<svg xmlns="http://www.w3.org/2000/svg" version="1.0" width="500" height="500"><path d="M11.024 10.82H489.13" fill="none" stroke="#000" stroke-width=".869"/><path d="M11.024 54.67H489.13" fill="none" stroke="#000" stroke-width="1.737"/><path d="M11.024 98.52H489.13M11.024 141.912H489.13M11.024 185.304H489.13M11.024 228.696H489.13M11.024 272.088H489.13M11.024 315.48H489.13M11.024 358.872H489.13M11.024 402.264H489.13M11.024 445.656H489.13" fill="none" stroke="#000" stroke-width=".869"/><path d="M11.024 489.506H489.13" fill="none" stroke="#000" stroke-width="1.737"/><g fill="none" stroke="#000"><path d="M70 303.79h580" transform="matrix(0 -.8261 .91541 0 -267.66 547.395)"/><path d="M70 351.687h580" stroke-width="2" transform="matrix(0 -.8261 .91541 0 -267.66 547.395)"/><path d="M70 399.583h580M70 446.979h580M70 494.375h580M70 541.771h580M70 589.167h580M70 636.563h580M70 683.96h580M70 731.356h580M70 778.752h580" transform="matrix(0 -.8261 .91541 0 -267.66 547.395)"/><path d="M70 826.648h580" stroke-width="2" transform="matrix(0 -.8261 .91541 0 -267.66 547.395)"/></g><text x="68.629" y="42.005" style="line-height:125%;text-align:start" font-weight="700" font-size="18.308" font-family="FreeSans"><tspan x="68.629" y="42.005">A</tspan></text><text x="112.349" y="41.893" style="line-height:125%;text-align:start" font-weight="700" font-size="18.308" font-family="FreeSans"><tspan x="112.349" y="41.893">B</tspan></text><text x="156.463" y="42.024" style="line-height:125%;text-align:start" font-weight="700" font-size="18.308" font-family="FreeSans"><tspan x="156.463" y="42.024">C</tspan></text><text x="199.459" y="42.172" style="line-height:125%;text-align:start" font-weight="700" font-size="18.308" font-family="FreeSans"><tspan x="199.459" y="42.172">D</tspan></text><text x="244.761" y="42.06" style="line-height:125%;text-align:start" font-weight="700" font-size="18.308" font-family="FreeSans"><tspan x="244.761" y="42.06">E</tspan></text><text x="289.219" y="41.949" style="line-height:125%;text-align:start" font-weight="700" font-size="18.308" font-family="FreeSans"><tspan x="289.219" y="41.949">F</tspan></text><text x="331.987" y="42.079" style="line-height:125%;text-align:start" font-weight="700" font-size="18.308" font-family="FreeSans"><tspan x="331.987" y="42.079">G</tspan></text><text x="375.953" y="42.227" style="line-height:125%;text-align:start" font-weight="700" font-size="18.308" font-family="FreeSans"><tspan x="375.953" y="42.227">H</tspan></text><text x="424.13" y="42.116" style="line-height:125%;text-align:start" font-weight="700" font-size="18.308" font-family="FreeSans"><tspan x="424.13" y="42.116">I</tspan></text><text x="464.873" y="42.005" style="line-height:125%;text-align:start" font-weight="700" font-size="18.308" font-family="FreeSans"><tspan x="464.873" y="42.005">J</tspan></text><text x="25.655" y="82.545" style="line-height:125%;text-align:start" font-weight="700" font-size="18.308" font-family="FreeSans"><tspan x="25.655" y="82.545">1</tspan></text><text x="26.061" y="126.33" style="line-height:125%;text-align:start" font-weight="700" font-size="18.308" font-family="FreeSans"><tspan x="26.061" y="126.33">2</tspan></text><text x="25.851" y="169.865" style="line-height:125%;text-align:start" font-weight="700" font-size="18.308" font-family="FreeSans"><tspan x="25.851" y="169.865">3</tspan></text><text x="25.883" y="213.539" style="line-height:125%;text-align:start" font-weight="700" font-size="18.308" font-family="FreeSans"><tspan x="25.883" y="213.539">4</tspan></text><text x="25.909" y="257.074" style="line-height:125%;text-align:start" font-weight="700" font-size="18.308" font-family="FreeSans"><tspan x="25.909" y="257.074">5</tspan></text><text x="25.753" y="300.86" style="line-height:125%;text-align:start" font-weight="700" font-size="18.308" font-family="FreeSans"><tspan x="25.753" y="300.86">6</tspan></text><text x="25.847" y="344.533" style="line-height:125%;text-align:start" font-weight="700" font-size="18.308" font-family="FreeSans"><tspan x="25.847" y="344.533">7</tspan></text><text x="25.82" y="388.189" style="line-height:125%;text-align:start" font-weight="700" font-size="18.308" font-family="FreeSans"><tspan x="25.82" y="388.189">8</tspan></text><text x="25.883" y="431.854" style="line-height:125%;text-align:start" font-weight="700" font-size="18.308" font-family="FreeSans"><tspan x="25.883" y="431.854">9</tspan></text><text x="19.589" y="475.519" style="line-height:125%;text-align:start" font-weight="700" font-size="18.308" font-family="FreeSans"><tspan x="19.589" y="475.519">10</tspan></text><path fill="#b3b3b3" fill-opacity=".502" stroke="#000" stroke-width="1.831" stroke-linecap="round" d="M56.533 57.698h83.041v38.251H56.533zm131.754 1.307h37.924v122.927h-37.924zm128.812-.654h168.698v37.924H317.099zm130.773 87.619h38.578v79.772h-38.578zm-174.582-1.308h126.196v38.578H273.29zm174.582 129.466h38.578v125.543h-38.578zm-173.928 1.307h38.578v81.08h-38.578zm-43.81 172.622H486.45v39.232H230.134zM57.513 145.97h37.924v166.082H57.513zm-.654 215.776H139.9v38.578H56.859z"/><path d="M105.9 280.666l23.539 26.809m1.961-24.847l-26.154 24.193m173.574-71.465l23.54 26.808m1.96-24.847l-26.154 24.193m44.115-22.455l23.54 26.808m1.961-24.847l-26.155 24.193M105.9 367.589l23.539 26.809m1.961-24.848l-26.154 24.194m-43.732-24.306l23.539 26.809m1.961-24.847L60.86 395.593m392.73-114.927l23.54 26.809m1.96-24.847l-26.154 24.193m4.353 16.382l23.539 26.809m1.962-24.847l-26.155 24.193m-91.817 22.855l23.54 26.808m1.961-24.847l-26.155 24.193m1.579-114.927l23.539 26.81m1.961-24.848l-26.154 24.193M150.286 195.593l23.539 26.809m1.961-24.847l-26.154 24.193m43.19 101.455l23.54 26.809m1.961-24.847l-26.155 24.193" stroke-width="2.746" fill="none" stroke="#000"/></svg>