<?xml version="1.0" standalone="no"?>
<!DOCTYPE svg PUBLIC "-//W3C//DTD SVG 1.1//EN" "http://www.w3.org/Graphics/SVG/1.1/DTD/svg11.dtd" >
<svg>
<metadata>
Created by FontForge 20120731 at Sat Aug 17 06:29:28 2019
 By www
(c) Copyright 2006, Station Debout / www.stationdebout.com
</metadata>
<defs>
<font id="Station-Medium" horiz-adv-x="1158" >
  <font-face 
    font-family="Station"
    font-weight="500"
    font-stretch="normal"
    units-per-em="2048"
    panose-1="2 11 6 2 2 2 4 2 3 3"
    ascent="1638"
    descent="-410"
    x-height="973"
    cap-height="1547"
    bbox="-1043 -591 2707 2164"
    underline-thickness="160"
    underline-position="-120"
    unicode-range="U+0008-FB02"
  />
<missing-glyph horiz-adv-x="1024" 
d="M200 0v1544h624v-1544h-624zM781 43v1458h-538v-1458h538z" />
    <glyph glyph-name="fi" unicode="fi" horiz-adv-x="1087" 
d="M526 974q22 0 41 -8.5t33 -22.5t22.5 -33t8.5 -41t-8.5 -41t-22.5 -33.5t-33 -22.5t-41 -8h-91q-21 -3 -35.5 -19t-14.5 -38v-596v-1q0 -24 -9 -44.5t-24.5 -36t-36.5 -24.5t-44 -9q-24 0 -44.5 9t-36.5 24.5t-25 36t-9 44.5q0 3 0.5 6t0.5 6v592q-2 21 -16.5 34.5
t-25.5 18.5q-32 10 -53 37t-21 62q0 30 15 53.5t38 37.5q9 9 20 13t26 17.5t17 35.5v328q0 186 64 260q89 107 258 107q29 0 67 -9q36 -7 60.5 -36t24.5 -68q0 -22 -8.5 -41.5t-23 -33.5t-34 -22.5t-41.5 -8.5h-9t-9 1t-10 1h-8q-61 0 -82 -43q-21 -42 -21 -162v-271
q3 -22 18.5 -36t37.5 -14zM831 1231q-62 0 -104 43q-44 44 -44 105q0 58 44 102q43 43 103 43q59 0 104 -43q43 -42 43 -103t-43 -104q-42 -43 -103 -43zM831 967q24 0 44.5 -9t35.5 -24.5t24 -36t9 -43.5v-3v-744q-1 -1 -1 -3q0 -23 -9 -43t-24 -35t-35.5 -24t-43.5 -9
t-43.5 9t-35.5 24t-24 35.5t-9 43.5v12v734v3q0 23 9 43.5t24 36t35.5 24.5t43.5 9z" />
    <glyph glyph-name="fl" unicode="fl" horiz-adv-x="1087" 
d="M529 974q22 0 41 -8.5t33 -22.5t22.5 -33t8.5 -41t-8.5 -41t-22.5 -33.5t-33 -22.5t-41 -8h-91q-21 -3 -35.5 -19t-14.5 -38v-596v-1q0 -24 -9 -44.5t-24.5 -36t-36.5 -24.5t-44 -9q-24 0 -44.5 9t-36.5 24.5t-25 36t-9 44.5q0 3 0.5 6t0.5 6v592q-2 21 -16.5 34.5
t-25.5 18.5q-32 10 -53 37t-21 62q0 30 15 53.5t38 37.5q9 9 20 13t26 17.5t17 35.5v328q0 186 64 260q89 107 258 107q29 0 67 -9q36 -7 60.5 -36t24.5 -68q0 -22 -8.5 -41.5t-23 -33.5t-34 -22.5t-41.5 -8.5h-9t-9 1t-10 1h-8q-61 0 -82 -43q-21 -42 -21 -162v-271
q3 -22 18.5 -36t37.5 -14zM945 108q0 -24 -9 -44.5t-24 -35.5t-35.5 -23.5t-44.5 -8.5q-23 0 -43.5 9t-35.5 24t-24 35.5t-9 44.5v9v1455v2q0 23 9 44t24 36.5t35.5 24.5t43.5 9t43.5 -9t36 -24.5t24.5 -36t9 -43.5v-1455v-13z" />
    <glyph glyph-name=".notdef" horiz-adv-x="1024" 
d="M200 0v1544h624v-1544h-624zM781 43v1458h-538v-1458h538z" />
    <glyph glyph-name=".null" horiz-adv-x="0" 
 />
    <glyph glyph-name="nonmarkingreturn" horiz-adv-x="1024" 
 />
    <glyph glyph-name="space" unicode=" " horiz-adv-x="632" 
 />
    <glyph glyph-name="zerowidthjoiner" unicode="&#x200d;" horiz-adv-x="0" 
 />
    <glyph glyph-name="endash" unicode="&#x2013;" horiz-adv-x="1313" 
d="M237 593h838v-196h-838v196z" />
    <glyph glyph-name="emdash" unicode="&#x2014;" horiz-adv-x="1336" 
d="M0 593h1336v-196h-1336v196z" />
    <glyph glyph-name="quoteleft" unicode="&#x2bb;" horiz-adv-x="669" 
d="M317 961l-201 78l285 572l152 -62z" />
    <glyph glyph-name="quoteleft" unicode="&#x2018;" horiz-adv-x="669" 
d="M317 961l-201 78l285 572l152 -62z" />
    <glyph glyph-name="quoteright" unicode="&#x2bc;" horiz-adv-x="669" 
d="M353 1611l200 -78l-285 -572l-152 63z" />
    <glyph glyph-name="quoteright" unicode="&#x2019;" horiz-adv-x="669" 
d="M353 1611l200 -78l-285 -572l-152 63z" />
    <glyph glyph-name="quotesinglbase" unicode="&#x201a;" horiz-adv-x="669" 
d="M353 289l200 -78l-285 -571l-152 63z" />
    <glyph glyph-name="quotedblleft" unicode="&#x201c;" horiz-adv-x="1069" 
d="M717 961l-201 78l285 572l152 -62zM317 961l-201 78l285 572l152 -62z" />
    <glyph glyph-name="quotedblright" unicode="&#x201d;" horiz-adv-x="1069" 
d="M353 1611l200 -78l-285 -572l-152 63zM753 1611l200 -78l-285 -572l-152 63z" />
    <glyph glyph-name="quotedblbase" unicode="&#x201e;" horiz-adv-x="1069" 
d="M353 289l200 -78l-285 -571l-152 63zM753 289l200 -78l-285 -571l-152 63z" />
    <glyph glyph-name="bullet" unicode="&#x2022;" horiz-adv-x="1544" 
d="M777 1112q128 0 220 -96q93 -95 93 -228q0 -136 -93 -230q-93 -95 -225 -95q-130 0 -225 95q-93 96 -93 229q0 136 94 230q95 95 229 95z" />
    <glyph glyph-name="ellipsis" unicode="&#x2026;" horiz-adv-x="1934" 
d="M183 112q0 56 41 97t98 41t98 -41t41 -98q0 -58 -41 -99q-40 -40 -98 -40q-59 0 -99 40t-40 100zM827 112q0 56 41 97t98 41q58 0 99 -41t41 -98q0 -58 -41 -99q-40 -40 -98 -40q-59 0 -99 40q-41 41 -41 100zM1472 112q0 56 41 97t98 41t98 -41t41 -98q0 -58 -41 -99
q-40 -40 -97 -40q-59 0 -99 40q-41 41 -41 100z" />
    <glyph glyph-name="perthousand" unicode="&#x2030;" horiz-adv-x="2784" 
d="M77 1201q0 145 111 252q113 107 261 107q152 0 262 -108q110 -107 110 -256q0 -150 -110 -257t-265 -107q-152 0 -261 109q-108 109 -108 260zM251 1198q0 -84 58 -142t141 -58q81 0 139 58t58 140q0 81 -58 139t-140 58t-140 -58t-58 -137zM1326 1571l109 -62
l-884 -1534l-110 66zM1054 355q0 144 111 251q113 107 261 107q153 0 263 -108q110 -107 110 -256q0 -151 -111 -257q-109 -106 -265 -106q-152 0 -261 108q-108 108 -108 261zM1229 351q0 -84 57 -142q58 -58 141 -58q82 0 139 58q58 58 58 140t-58 140q-57 58 -140 58
q-81 0 -139 -58t-58 -138zM1962 355q0 144 111 251q113 107 261 107q153 0 263 -108q110 -107 110 -256q0 -151 -111 -257q-109 -106 -265 -106q-152 0 -261 108q-108 108 -108 261zM2137 351q0 -84 57 -142q58 -58 141 -58q82 0 139 58q58 58 58 140t-58 140
q-57 58 -140 58q-81 0 -139 -58t-58 -138z" />
    <glyph glyph-name="guilsinglleft" unicode="&#x2039;" horiz-adv-x="751" 
d="M328 495l243 -312q11 -22 15 -43q3 -18 -3 -39.5t-29 -39.5q-27 -20 -51 -21.5t-42 6.5q-21 8 -40 26l-328 422l337 447q19 17 40 25q18 7 41.5 5.5t47.5 -21.5q23 -20 29 -41t4 -38q-3 -20 -13 -40z" />
    <glyph glyph-name="guilsinglright" unicode="&#x203a;" horiz-adv-x="751" 
d="M172 831q-10 20 -13 40q-2 17 4 38t29 41q24 20 47 21.5t41 -5.5q21 -8 41 -25l337 -447l-328 -422q-19 -18 -40 -26q-18 -8 -42.5 -6.5t-50.5 21.5q-24 18 -29.5 39.5t-2.5 39.5q4 21 15 43l243 312z" />
    <glyph glyph-name="fraction" unicode="&#x2044;" horiz-adv-x="376" 
d="M576 1571l109 -62l-884 -1534l-109 66z" />
    <glyph glyph-name="controlNULL" horiz-adv-x="0" 
 />
    <glyph glyph-name="controlNULL" horiz-adv-x="0" 
 />
    <glyph glyph-name="controlBS" horiz-adv-x="0" 
 />
    <glyph glyph-name="controlHT" unicode="&#x9;" horiz-adv-x="632" 
 />
    <glyph glyph-name="controlCR" unicode="&#xd;" horiz-adv-x="0" 
 />
    <glyph glyph-name="controlGS" horiz-adv-x="0" 
 />
    <glyph glyph-name="exclam" unicode="!" horiz-adv-x="679" 
d="M201 112q0 56 41 97t98 41t98 -41t41 -98q0 -58 -41 -99q-40 -40 -98 -40q-59 0 -99 40t-40 100zM210 1136q-2 28 -4.5 64t-2.5 80q0 58 1 103t8 77q7 35 41 58.5t85 23.5q48 0 75 -14.5t40.5 -44t16.5 -75.5t3 -109q0 -56 -2.5 -97t-4.5 -66l-51 -720
q-5 -42 -20.5 -59.5t-56.5 -17.5q-40 0 -56 17.5t-21 59.5z" />
    <glyph glyph-name="quotedbl" unicode="&#x22;" horiz-adv-x="840" 
d="M117 1434q0 19 8 38t23.5 34.5t38.5 25t53 9.5q27 0 49.5 -10.5t37.5 -27t23 -36t7 -37.5q0 -2 -0.5 -4.5t-0.5 -4.5l-27 -378l-3 -12v-2q0 -19 -7 -36t-19.5 -29.5t-29.5 -19.5t-36 -7t-36 7t-29.5 19.5t-20 29.5t-7.5 36q0 1 1 1h-1l-24 400v4zM488 1434q0 19 8 38
t23.5 34.5t38.5 25t53 9.5q27 0 49.5 -10.5t37.5 -27t23 -36t7 -37.5q0 -2 -0.5 -4.5t-0.5 -4.5l-27 -382q-2 -6 -2 -8t-3 -11q-2 -13 -7 -28.5t-17.5 -28t-29.5 -19.5t-36 -7t-36 7t-29.5 19.5t-20 29.5t-7.5 36q0 1 1 1h-1l-24 400v4z" />
    <glyph glyph-name="ampersand" unicode="&#x26;" horiz-adv-x="1497" 
d="M1344 194q16 -16 25 -36.5t9 -44.5t-9 -44.5t-24.5 -36t-36 -24.5t-44.5 -9q-31 0 -56 14.5t-40 37.5l-112 138q-214 -220 -443 -220q-204 0 -349 131q-141 133 -141 328q0 231 223 385l102 69q5 5 8 10q2 5 2 11.5t-6 14.5q-136 154 -136 303q0 158 102 254
q103 99 268 99q161 0 265 -95q104 -96 104 -241q0 -100 -57 -182q-52 -74 -182 -177q-7 -8 -8 -15.5t1 -13.5q2 -7 6 -14l258 -312l9 10q21 23 40.5 45t38.5 44q15 23 39 36t53 13q22 0 42 -8.5t35 -23.5t24 -35t9 -43t-9 -43t-24 -36l-3.5 -3.5l-3.5 -3.5
q-45 -53 -108 -123zM576 1340q-43 -38 -43 -95q0 -69 54 -135l49 -58q6 -7 15 -11q8 -3 17.5 -2.5t21.5 11.5q5 4 8 4q17 14 32.5 26.5t27.5 22.5q17 14 28 26t19 21q30 39 30 92q0 61 -41 99t-111 38q-64 0 -107 -39zM603 179q135 0 312 178l-288 350q-11 13 -24 11t-19 -6
q-134 -93 -184 -151q-51 -60 -51 -128q0 -97 77 -177q80 -77 177 -77z" />
    <glyph glyph-name="quotesingle" unicode="'" horiz-adv-x="474" 
d="M117 1434q0 19 8 38t23.5 34.5t38.5 25t53 9.5q27 0 49.5 -10.5t37.5 -27t23 -36t7 -37.5q0 -2 -0.5 -4.5t-0.5 -4.5l-29 -378q-1 -10 -1 -11v-3q0 -19 -7 -36t-19.5 -29.5t-29.5 -19.5t-36 -7t-36 7t-29.5 19.5t-20 29.5t-7.5 36q0 1 1 1h-1l-24 400v4z" />
    <glyph glyph-name="parenleft" unicode="(" horiz-adv-x="750" 
d="M566 -221q13 -26 13 -55q0 -24 -9 -44.5t-24.5 -36.5t-36.5 -25t-45 -9q-37 0 -66 25t-46 66q-165 414 -165 942q0 534 167 951q12 36 41.5 60.5t69.5 24.5q23 0 43.5 -9t36 -24.5t24.5 -36t9 -43.5q0 -26 -8 -46q-38 -100 -65.5 -192t-44.5 -180q-11 -57 -19 -115
t-14 -121q-5 -62 -8 -129t-3 -140q0 -74 3 -141t8 -129q6 -62 14 -120t19 -115q17 -84 44 -173.5t62 -184.5z" />
    <glyph glyph-name="parenright" unicode=")" horiz-adv-x="750" 
d="M188 -221q35 95 62 184.5t44 173.5q11 57 19 115t14 120q5 62 8 129t3 141q0 73 -3 140t-8 129q-6 63 -14 121t-19 115q-17 88 -44.5 180t-65.5 192q-8 20 -8 46q0 23 9 43.5t24.5 36t36 24.5t43.5 9q40 0 69.5 -24.5t41.5 -60.5q167 -417 167 -951q0 -528 -165 -942
q-17 -41 -46 -66t-66 -25q-24 0 -45 9t-36.5 25t-24.5 36.5t-9 44.5q0 29 13 55z" />
    <glyph glyph-name="asterisk" unicode="*" horiz-adv-x="1264" 
d="M546 1419l-15 270h201l-16 -270l253 98l62 -191l-262 -68l171 -210l-162 -118l-147 228l-146 -228l-163 118l172 209l-262 69l62 191z" />
    <glyph glyph-name="plus" unicode="+" horiz-adv-x="1264" 
d="M1169 804q0 -19 -7.5 -36t-20 -29.5t-29.5 -20t-36 -7.5v-1h-349v-340q0 -19 -7.5 -36t-20 -29.5t-30 -20t-36.5 -7.5t-36 7.5t-29.5 20t-20 29.5t-7.5 36v2v338h-349v1q-19 0 -36 7t-29.5 20t-20 29.5t-7.5 36.5q0 19 7.5 36.5t20 30t29.5 20t36 7.5q2 0 2.5 -0.5
t1.5 -0.5h345v334v7q0 19 7.5 36.5t20 30t29.5 20t37 7.5q19 0 36 -7.5t29.5 -20t20 -30t7.5 -36.5v-5v-336h345q1 0 1.5 0.5t2.5 0.5q19 0 36 -7.5t29.5 -20t20 -30t7.5 -36.5z" />
    <glyph glyph-name="comma" unicode="," horiz-adv-x="632" 
d="M350 294q22 0 42 -8.5t35 -23.5t23.5 -35t8.5 -42q0 -17 -5.5 -32t-13.5 -28l-206 -410v-1q-11 -21 -32 -33.5t-47 -12.5q-37 0 -63 26t-26 64q0 14 5 29h1l3 9l177 434h1q13 28 39 46t58 18z" />
    <glyph glyph-name="hyphen" unicode="-" horiz-adv-x="445" 
d="M345 591q20 0 37.5 -7.5t31 -20.5t21 -30.5t7.5 -37.5t-7.5 -37.5t-20.5 -31t-31 -21t-38 -7.5q-2 0 -5 0.5t-5 0.5h-225q-3 0 -5.5 -0.5t-5.5 -0.5q-40 0 -68 28t-28 68q0 41 28 69t68 28h1v1h241q1 0 1.5 -0.5t2.5 -0.5z" />
    <glyph glyph-name="period" unicode="." horiz-adv-x="632" 
d="M177 112q0 56 41 97t98 41t98 -41t41 -98q0 -58 -41 -99q-40 -40 -98 -40q-59 0 -99 40t-40 100z" />
    <glyph glyph-name="slash" unicode="/" horiz-adv-x="1061" 
d="M1014 1535q0 -3 -1 -4l-804 -1856v-1l-1 -2q-11 -27 -36 -43.5t-55 -16.5q-21 0 -39.5 8t-32.5 22t-22 32.5t-8 39.5q0 20 10 42l799 1848q10 31 36 51t61 20q21 0 39 -8t32 -22t22 -33t8 -40q0 -16 -7 -35z" />
    <glyph glyph-name="zero" unicode="0" horiz-adv-x="1264" 
d="M87 782q0 369 172 589q154 199 373 199t373 -199q172 -220 172 -599q0 -378 -172 -598q-154 -199 -372 -199t-374 199q-172 220 -172 608zM316 781q0 -257 89 -427q89 -167 227 -167q137 0 227 167q90 166 90 419t-90 420q-90 166 -227 166q-136 0 -226 -166
q-90 -165 -90 -412z" />
    <glyph glyph-name="one" unicode="1" horiz-adv-x="1212" 
d="M742 116h-3v-1q0 -24 -9 -44.5t-24.5 -36.5t-36.5 -25t-45 -9t-45 9t-37 25t-25 36.5t-9 44.5v3v1150v1q0 21 -8.5 32.5t-19.5 17t-20.5 6.5t-12.5 1h-1q-5 -1 -13 -1q-23 0 -43.5 8.5t-35.5 23.5t-24 35.5t-9 44.5q0 23 9 43t24 34.5t35.5 23t43.5 8.5q4 0 7.5 0.5
t6.5 0.5h180h4q22 0 41.5 -8.5t34.5 -22.5t24 -33t10 -41l1 -1v-1325z" />
    <glyph glyph-name="two" unicode="2" horiz-adv-x="1264" 
d="M980 222q23 0 43 -8.5t35 -23.5t23.5 -35t8.5 -43t-8.5 -43t-23.5 -35t-35 -24t-43 -9h-2v-1h-768h-1q-19 0 -35.5 8t-29 21t-19.5 30t-7 36q0 40 29 67l442 488q40 49 73 90.5t60 77.5q27 35 47.5 65t34.5 54q28 48 42.5 90t14.5 80q0 107 -77 181q-76 73 -187 73
q-198 0 -252 -197h-1q-11 -35 -40.5 -58t-67.5 -23q-23 0 -43.5 9t-36 24.5t-24.5 36t-9 43.5q0 13 3 27l-3 1q99 347 466 347q214 0 355 -134q144 -134 144 -332q0 -126 -67 -247q-34 -62 -100 -149q-67 -88 -166 -205l-214 -234q-2 -3 -7.5 -11t-7 -16.5t5 -15.5t28.5 -7
h6h394q5 1 10 1.5t10 0.5z" />
    <glyph glyph-name="three" unicode="3" horiz-adv-x="1264" 
d="M879 814q193 -115 193 -368q0 -209 -141 -341q-142 -133 -360 -133q-281 0 -416 207q-12 17 -21.5 37.5t-17.5 43.5l1 1q-8 21 -8 43q0 24 9 44.5t24.5 36t36 24.5t44.5 9q40 0 70 -23.5t40 -60.5q22 -52 64 -89q71 -59 182 -59q114 0 188 75t74 196q0 156 -111 222
q-20 11 -46.5 19t-59.5 13v2q-42 2 -71 31.5t-29 72.5q0 42 27.5 71t68.5 33h5q73 8 103 28q91 57 91 187q0 98 -66 161q-65 63 -169 63q-97 0 -151 -48q-29 -27 -50 -77q-11 -35 -40.5 -57.5t-68.5 -22.5q-23 0 -44 9t-37 25t-25.5 36.5t-9.5 44.5q0 8 2 16.5t4 16.5v-1
q39 106 108 169q112 102 315 102t332 -120t129 -308q0 -212 -169 -331z" />
    <glyph glyph-name="four" unicode="4" horiz-adv-x="1264" 
d="M241 219q-5 -2 -10.5 -1t-10.5 1q-22 0 -41.5 8.5t-34 23t-23 34t-8.5 42.5q0 20 8 38.5t19 32.5l792 1152q7 9 19.5 18.5t29.5 9.5q13 0 19.5 -9t8.5 -20q3 -12 2 -28h1v-1034q1 -23 17 -38t39 -15h1q22 0 42 -8.5t34.5 -23.5t23 -34.5t8.5 -41.5t-8 -41.5t-22.5 -34
t-34 -23t-41.5 -8.5h-4h4q-23 0 -40 -17t-17 -40l-2 -43v-2v1q0 -24 -9.5 -45.5t-25.5 -37.5t-37.5 -25.5t-45.5 -9.5t-45.5 9.5t-37.5 25t-25 37t-9 45.5v10v37q-1 23 -17 38.5t-39 15.5zM721 433q23 0 38.5 14.5t17.5 37.5v387v6q0 21 -4.5 27.5t-11.5 5t-13.5 -8
l-10.5 -10.5l-292 -426q-2 -3 -4 -8.5t-2 -11t4.5 -9.5t16.5 -4h3h258z" />
    <glyph glyph-name="five" unicode="5" horiz-adv-x="1264" 
d="M956 924q146 -151 146 -388q0 -245 -165 -404q-166 -158 -415 -158q-248 0 -412 188q-16 16 -25.5 37t-9.5 46q0 24 9 44.5t25 36.5t36.5 25t44.5 9q32 0 57.5 -15t40.5 -40q36 -42 73 -67q72 -50 181 -50q141 0 236 98q96 104 96 246q0 149 -95 244q-95 98 -236 98
q-39 0 -76 -9h-1q-18 -6 -40 -6q-30 0 -56.5 11.5t-46 31t-31 46.5t-11.5 57q0 13 2 24.5t5 22.5l138 456q8 26 22 33t23 8h4h1h490q1 0 2 -0.5t2 -0.5q23 0 42.5 -8.5t34 -23t23 -34.5t8.5 -43t-8.5 -43.5t-23.5 -35.5t-35 -23.5t-43 -8.5h-368l-61 -202q-1 -4 -1.5 -12
t3.5 -16t13 -14t28 -6h3q226 0 371 -154z" />
    <glyph glyph-name="six" unicode="6" horiz-adv-x="1264" 
d="M1015 834q138 -144 138 -344q0 -107 -39 -197.5t-114 -166.5q-150 -151 -365 -151q-210 0 -370 149q-155 149 -155 354q0 185 151 388l480 648q15 20 37.5 32.5t47.5 12.5q23 0 43 -8.5t34.5 -23t23 -34t8.5 -40.5q0 -34 -19 -62v-1l-311 -421q15 2 27.5 3.5t23.5 3.5
q11 1 19.5 1h14.5q94 0 175.5 -35.5t149.5 -107.5zM837 273q88 84 88 203q0 124 -87 208q-42 43 -94 64t-113 21q-122 0 -207 -85q-85 -82 -85 -205q0 -61 20.5 -112.5t64.5 -93.5q84 -84 208 -84t205 84z" />
    <glyph glyph-name="seven" unicode="7" horiz-adv-x="1264" 
d="M1168 1434q0 -35 -18 -60v-1l-804 -1320q-14 -26 -39.5 -42.5t-57.5 -16.5q-23 0 -42.5 8.5t-34.5 23.5t-23.5 34.5t-8.5 42.5q0 36 22 66l664 1086q13 21 12.5 34.5t-7.5 21t-17 10t-16 3.5h-578h-2q-23 0 -43 8.5t-35 23.5t-23.5 35t-8.5 43q0 22 8.5 42t23.5 35t35 24
t43 9q2 0 4.5 -0.5t4.5 -0.5h832q23 0 43 -8.5t34.5 -23.5t23 -35t8.5 -42z" />
    <glyph glyph-name="eight" unicode="8" horiz-adv-x="1264" 
d="M358 802q-170 119 -170 327q0 188 129 314q130 126 323 126q192 0 320 -126q128 -125 128 -315q0 -199 -169 -325q93 -50 146 -146q55 -95 55 -216q0 -205 -134 -336t-344 -131q-212 0 -353 132q-140 133 -140 332q0 260 209 364zM379 447q0 -106 73 -184q76 -76 182 -76
t181 75q75 76 75 182q0 107 -75 181q-75 76 -181 76q-105 0 -180 -76q-75 -74 -75 -178zM408 1131q0 -98 67 -167q68 -68 163 -68q94 0 162 68q68 70 68 163q0 94 -68 164q-68 68 -162 68t-162 -68q-68 -70 -68 -160z" />
    <glyph glyph-name="nine" unicode="9" horiz-adv-x="1264" 
d="M340 1071q0 -125 85 -210q86 -86 207 -86t206 85q86 86 86 207t-86 207q-85 85 -207 85q-120 0 -205 -85q-86 -86 -86 -203zM994 1423q156 -149 156 -351q0 -179 -152 -388l-476 -647q-15 -18 -36.5 -29t-47.5 -11q-22 0 -41.5 8.5t-33.5 23t-22.5 34t-8.5 41.5
q0 18 6 35t16 31q2 2 2.5 2t1.5 2l300 410q-14 -2 -27 -3.5t-23 -2.5q-11 -1 -19.5 -1.5t-15.5 -0.5q-187 0 -322 142q-136 140 -136 341q0 212 150 362q151 151 364 151q210 0 365 -149z" />
    <glyph glyph-name="colon" unicode=":" horiz-adv-x="632" 
d="M177 112q0 56 41 97t98 41t98 -41t41 -98q0 -58 -41 -99q-40 -40 -98 -40q-59 0 -99 40t-40 100zM177 864q0 55 41 96t98 41t98 -41t41 -98q0 -58 -41 -99q-40 -40 -98 -40t-99 41q-40 40 -40 100z" />
    <glyph glyph-name="semicolon" unicode=";" horiz-adv-x="632" 
d="M223 857q0 56 42 100q43 41 100 41t100 -41q42 -44 42 -101q0 -59 -42 -101q-41 -41 -100 -41q-57 0 -101 42q-41 41 -41 101zM341 243q-32 0 -57.5 -17t-37.5 -44h-1l-171 -420l-3 -9v-1q-5 -13 -5 -28q0 -18 7 -33.5t18.5 -27.5t27 -18.5t33.5 -6.5q25 0 45 12.5
t31 32.5h1l198 396q18 25 18 59q0 22 -8 41t-22.5 33t-33.5 22.5t-40 8.5z" />
    <glyph glyph-name="less" unicode="&#x3c;" horiz-adv-x="1264" 
d="M1134 1372v-230l-758 -359l758 -359v-228l-1004 490v197z" />
    <glyph glyph-name="equal" unicode="=" horiz-adv-x="1148" 
d="M196 884q-18 0 -34 6.5t-27.5 18t-18.5 27t-7 33.5q0 37 25.5 62.5t62.5 25.5h4h756h5q18 0 33.5 -7t27 -18.5t18.5 -27t7 -33.5t-6.5 -34t-18 -27.5t-27 -18.5t-32.5 -7v-1h-762q-2 0 -3.5 0.5t-2.5 0.5zM964 725q17 0 32.5 -7t27 -18.5t18 -27t6.5 -33.5t-6.5 -33.5
t-18 -27t-27 -18.5t-32.5 -7h-2h-765q-37 0 -62.5 25.5t-25.5 61.5t25.5 61.5t61.5 25.5q6 0 10 -2h758z" />
    <glyph glyph-name="greater" unicode="&#x3e;" horiz-adv-x="1264" 
d="M130 195v230l757 358l-757 360v228l1003 -490v-197z" />
    <glyph glyph-name="question" unicode="?" horiz-adv-x="1002" 
d="M364 112q0 56 41 97t98 41t98 -41t41 -98q0 -58 -41 -99q-40 -40 -97 -40q-59 0 -99 40q-41 41 -41 100zM516 811q-130 -40 -130 -126q0 -25 9 -46q9 -22 26 -37q18 -18 38 -26q22 -8 45 -8q19 0 32 4q16 6 35 6q22 0 42 -8.5t34.5 -23t23 -34.5t8.5 -42q0 -35 -21.5 -63
t-53.5 -39v-1q-24 -6 -50 -9.5t-54 -3.5q-145 0 -242 100q-99 100 -99 247q0 115 61 187q32 35 84.5 66.5t127.5 57.5q147 54 186 87q40 33 40 103q0 68 -41 109q-43 41 -111 41q-69 0 -111 -40q-35 -35 -39 -87q0 -2 -0.5 -3.5t-0.5 -3.5q-2 -22 -11.5 -41t-24.5 -33
t-35 -22t-42 -8q-23 0 -43.5 9t-35.5 24.5t-24 36t-9 43.5v12q14 133 105 223q106 106 269 106q166 0 273 -106q110 -106 110 -265q0 -164 -110 -264q-68 -63 -261 -122z" />
    <glyph glyph-name="at" unicode="@" horiz-adv-x="1803" 
d="M1124 790q0 93 -63 155q-65 62 -158 62q-101 0 -165 -78q-65 -77 -65 -197q0 -104 52 -171t134 -67q105 0 185 89t80 207zM1485 1374q217 -196 217 -493q0 -230 -118 -393q-120 -166 -280 -166q-114 0 -164 97q-5 8 -11.5 9.5t-11.5 -0.5q-6 -3 -13 -8
q-115 -103 -251 -103q-165 0 -276 119q-108 120 -108 303q0 198 122 326q122 131 305 131q169 0 273 -131q4 29 25 48t50 19q32 0 54 -22t22 -54l-1 -9l-48 -398q-2 -14 -3 -28t-2 -27q-1 -14 -1 -26v-24q0 -75 61 -75q86 0 157 123q35 61 52 130t17 147q0 248 -172 405
q-170 160 -438 160q-278 0 -469 -191q-189 -191 -189 -470q0 -153 68 -303q70 -141 194 -230q166 -120 417 -120q209 0 434 93l1 1h1l14 4t15 2q32 0 54 -22.5t22 -54.5q0 -24 -13.5 -43.5t-34.5 -27.5v-1q-238 -101 -491 -101q-316 0 -526 152q-156 109 -243 281
q-87 181 -87 368q0 340 240 571t593 231q325 0 543 -199z" />
    <glyph glyph-name="A" unicode="A" horiz-adv-x="1517" 
d="M1438 156q9 -21 7.5 -44t-11.5 -43.5t-27 -36.5t-39 -25q-21 -8 -43.5 -7t-42.5 10t-35.5 25t-24.5 37l-6 11l-106 250q-3 6 -8.5 13t-12.5 14t-16.5 11.5t-21.5 4.5h-584q-20 0 -33.5 -13t-20.5 -25l-124 -269q-13 -31 -41 -49.5t-63 -18.5q-24 0 -44.5 9t-35.5 24.5
t-24 36t-9 44.5q0 23 8 40l5 12l614 1322q2 4 8 13t15 18.5t21 16.5t27 7q16 0 29 -9t22 -20q11 -13 19 -29l598 -1329v-1zM946 596q18 0 25 7t8 15q1 10 -3 22l-202 464q-5 10 -9 7.5t-6 -5.5l-213 -468q-1 -3 -2 -10t0.5 -13.5t8 -12t20.5 -6.5h374h-1z" />
    <glyph glyph-name="B" unicode="B" horiz-adv-x="1211" 
d="M1030 683q73 -105 73 -241q0 -181 -128 -306q-38 -38 -81.5 -65t-91.5 -42q-53 -14 -118 -21t-145 -7h-299q-21 2 -36 17t-17 35v1436q2 22 17.5 37.5t38.5 15.5h175q156 0 246 -24q92 -24 157 -81q32 -29 57.5 -66t45.5 -81q38 -90 38 -179q0 -168 -126 -280
q122 -43 194 -148zM419 932q2 -20 16.5 -34t34.5 -16h22q130 0 190 57t60 170q0 107 -62 164q-31 29 -75.5 42t-103.5 13h-35q-21 -2 -33 -17t-14 -36v-343zM795 282q78 67 78 170q0 99 -75 167q-73 67 -261 67h-64q-21 -1 -36.5 -15t-17.5 -35v-367q2 -19 15.5 -33
t33.5 -17h95q157 0 232 63z" />
    <glyph glyph-name="C" unicode="C" horiz-adv-x="1435" 
d="M1185 260q41 14 82 1t61 -51q11 -21 12.5 -43.5t-5.5 -43t-21.5 -37.5t-35.5 -28q-4 -2 -7 -4t-7 -4q-76 -37 -156.5 -56t-161.5 -21q-10 0 -19 -0.5t-18 -0.5q-332 0 -566 231q-232 233 -232 563q0 295 195 526q239 283 621 283q173 0 340 -79q2 -2 6.5 -4t8.5 -4
q21 -11 35 -28.5t21 -38t5.5 -42.5t-11.5 -43q-10 -19 -26 -32t-35.5 -19.5t-40.5 -6.5t-41 8q-5 2 -12 5q-6 2 -14 5t-17 8q-58 26 -116.5 39t-118.5 13q-239 0 -401 -171q-164 -170 -164 -417q0 -243 164 -410t402 -167q17 0 34 1t34 3q41 5 81 17t81 29q9 4 17 8t14 6
q7 3 12 5z" />
    <glyph glyph-name="D" unicode="D" horiz-adv-x="1487" 
d="M1139 1349q240 -219 240 -574q0 -356 -250 -577q-126 -111 -262 -153q-128 -43 -363 -43h-266q-23 1 -38.5 16.5t-16.5 38.5v1436q1 22 15.5 37.5t36.5 17.5h272q235 0 369 -46q144 -45 263 -153zM971 365q172 157 172 410q0 255 -170 412q-153 141 -452 141h-49
q-23 0 -39 -16.5t-17 -39.5v-994q0 -23 15.5 -39t37.5 -18h52q159 0 262 34q101 34 188 110z" />
    <glyph glyph-name="E" unicode="E" 
d="M926 221q23 0 43 -8.5t34.5 -23.5t23 -35t8.5 -42q0 -23 -9 -43t-24 -35t-35 -23.5t-42 -8.5h-5h-684q-22 2 -37 17.5t-16 38.5v1435q2 23 17 38.5t38 16.5h682h6q22 0 42 -8.5t35 -23.5t23.5 -35t8.5 -42q0 -23 -8.5 -43t-23.5 -35t-35 -23.5t-43 -8.5h-3v-1h-451
q-23 0 -38 -16t-17 -39v-338q1 -24 18 -40.5t40 -16.5l436 -1q22 0 41.5 -9t34 -23.5t23 -34.5t8.5 -42q0 -23 -8.5 -42.5t-23 -34.5t-34 -23.5t-41.5 -9.5h-1h-2h-3h-433q-23 -1 -38 -16.5t-17 -38.5v-326q1 -23 16.5 -38.5t37.5 -17.5h450h6v0z" />
    <glyph glyph-name="F" unicode="F" horiz-adv-x="1041" 
d="M826 954q23 0 43 -8.5t35 -23t23.5 -34.5t8.5 -43t-8.5 -43t-23.5 -35t-35 -23.5t-43 -8.5h-3h-352q-22 -2 -37 -17t-16 -37v-572q-1 -23 -11 -43t-25.5 -34.5t-36 -23t-43.5 -8.5t-43.5 8.5t-36.5 23.5t-25.5 34.5t-10.5 42.5h-1v6v2v2v1370q2 22 16.5 37.5t36.5 17.5
h606h2q22 0 42 -9t35 -24t23.5 -35t8.5 -43t-8.5 -42.5t-23.5 -34.5t-35 -23.5t-42 -8.5h-2h-372q-22 -1 -37.5 -16.5t-16.5 -37.5v-260q1 -23 17 -39t39 -17h352v0z" />
    <glyph glyph-name="G" unicode="G" horiz-adv-x="1725" 
d="M1469 1352q8 -8 10.5 -13t6.5 -3q13 -16 18 -33t5 -38q0 -23 -9 -43.5t-24.5 -35.5t-36 -24t-43.5 -9q-20 0 -36.5 3.5t-31.5 17.5v1q-172 181 -404 181q-244 0 -413 -169q-167 -169 -167 -419q0 -259 186 -427q174 -156 377 -156q172 0 310 117q122 104 149 246
q1 9 -4 21.5t-27 12.5h-240v1h-1q-23 0 -43 8.5t-35 23.5t-23.5 35t-8.5 43q0 22 8.5 42t23.5 35t35 23.5t43 8.5h12h462q23 0 39 -15.5t18 -37.5q0 -173 -41 -307q-40 -125 -136 -233q-216 -244 -549 -244q-325 0 -558 235q-232 236 -232 567q0 337 237 573
q236 236 574 236q180 0 340 -74q26 -13 61 -37.5t67.5 -48.5t55.5 -43t25 -21z" />
    <glyph glyph-name="H" unicode="H" horiz-adv-x="1502" 
d="M1323 114v-1q-1 -24 -10.5 -44.5t-25 -35.5t-36.5 -23.5t-45 -8.5t-45.5 9t-37 25t-24.5 37t-9 45v14v542q-2 21 -16.5 36t-35.5 17h-563q-22 -2 -37.5 -17t-15.5 -38v-557v-1q-1 -24 -10.5 -44.5t-25.5 -35.5t-37 -23.5t-45 -8.5t-45.5 9.5t-37 25t-24.5 37t-9 45.5v14
v1290v12q0 24 9 45.5t25 37t37 25t45 9.5t45.5 -9.5t37.5 -25t25.5 -37t9.5 -45.5v-3v-430q0 -23 15.5 -38t37.5 -17h559q23 1 38.5 16t17.5 38v428q0 2 -0.5 3.5t-0.5 3.5q0 24 9.5 45t25 37t37 25t45.5 9t45.5 -9t37.5 -25t25 -37t9 -45v-4v-1317z" />
    <glyph glyph-name="I" unicode="I" horiz-adv-x="604" 
d="M417 118q0 -24 -9 -45.5t-25 -37.5t-37 -25t-45 -9t-45 10.5t-37 28t-25 39.5t-10 46v1302v3q0 24 9 45.5t24.5 37.5t37 25t45.5 9t45.5 -9.5t37.5 -25.5t25 -37.5t9 -45.5v-2v-1302v-7z" />
    <glyph glyph-name="J" unicode="J" horiz-adv-x="840" 
d="M423 1431v1q1 23 10.5 43.5t25.5 36t36.5 24.5t43.5 9q24 0 45 -9t37 -24.5t25.5 -36t10.5 -43.5h1v-4v-1v-1l1 -882q0 -176 -26 -266q-23 -98 -85 -169q-116 -137 -311 -137q-64 0 -125 15q-13 3 -23 7l-13 5q-29 13 -47.5 40t-18.5 62q0 23 9 43t24 35t35.5 24t43.5 9
q25 0 43 -9q2 0 2.5 -0.5t2.5 -0.5q15 -5 33.5 -8t33.5 -3q105 0 145 79q42 79 42 276l-1 877v8z" />
    <glyph glyph-name="K" unicode="K" horiz-adv-x="1357" 
d="M670 885v1q-17 -16 -19 -38.5t12 -40.5l507 -608q14 -16 21.5 -36t7.5 -43q0 -25 -9.5 -46.5t-26 -38t-38 -26t-46.5 -9.5q-30 0 -55.5 13.5t-42.5 36.5l-480 593q-6 8 -20 15.5t-28 6.5t-25 -14t-11 -46l-1 -493q0 -24 -9.5 -44t-25 -35t-36.5 -23.5t-45 -8.5t-45 9
t-37 25t-25 36.5t-9 44.5h-1v1312l1 3q0 24 9 45.5t25 37t37 24.5t45 9t45 -9t37 -25t25 -37t9 -45v-1h1v-454q1 -11 6.5 -19t22.5 3l537 551h1q32 35 81 35q22 0 42 -8.5t35 -23.5t24 -35t9 -43q0 -22 -8 -41.5t-22 -33.5z" />
    <glyph glyph-name="L" unicode="L" horiz-adv-x="908" 
d="M182 1428q0 24 9 45t25 37t37 25t45 9t45.5 -9.5t37 -25t24.5 -37t9 -45.5v-1v-1154q2 -22 17.5 -37.5t38.5 -16.5h294q22 -1 41.5 -9.5t33.5 -23t22.5 -34t8.5 -41.5q0 -23 -8.5 -42.5t-22.5 -34.5t-33.5 -23.5t-41.5 -9.5h-525q-23 0 -39.5 16.5t-17.5 39.5v1372z" />
    <glyph glyph-name="M" unicode="M" horiz-adv-x="1969" 
d="M1801 139q2 -5 2 -11v-11q0 -24 -9 -45.5t-25 -37t-37 -25t-45 -9.5q-45 0 -78 29t-39 72v-2l-125 784q-1 6 -4.5 10t-8.5 2.5t-11 -9t-13 -24.5l-348 -762q-1 -1 -1 -2q-1 -1 -1 -2t-1 -3l-5 -9q-5 -11 -12.5 -25t-17 -27.5t-20.5 -22.5t-21 -9t-19.5 7t-18 18t-16 24
t-12.5 24l-356 802q-7 14 -12.5 17.5t-9.5 1t-7 -8.5t-4 -12l-140 -782v-2q-10 -40 -41 -64.5t-73 -24.5q-24 0 -45.5 9.5t-37.5 25t-25.5 37t-9.5 45.5q0 5 0.5 10t0.5 10l2 7l267 1364q1 3 4 9t8 12t13 11t19 5q9 0 19 -4q8 -3 17 -10.5t15 -21.5l1 -1l448 -1013
q1 -2 4.5 -6.5t8 -7t10 -0.5t10.5 14q2 2 2 4l464 1012q5 13 14 20t17 10q10 4 19 4q11 0 19 -4.5t13 -10.5t8 -12t3 -10l241 -1369v0z" />
    <glyph glyph-name="N" unicode="N" horiz-adv-x="1410" 
d="M1225 100q0 -18 -2 -34.5t-8 -29.5t-16 -22t-26 -11q-20 -3 -34.5 3.5t-26.5 17.5t-22.5 24.5t-22.5 24.5l-27 29l-2 2l-580 829q-12 12 -20 15t-12.5 0t-6 -9t-2.5 -12v-8h1h-1v-802q0 -24 -9 -45t-25 -36.5t-37 -24.5t-45 -9t-44.5 9t-36.5 24.5t-25 36t-10 44.5v1371
q1 6 4 16t9.5 19.5t17 16t25.5 6.5q18 0 32 -5t26 -13.5t23 -19t22 -22.5l613 -867q10 -9 17 -11t10.5 0.5t5.5 8t2 10.5v809v2q1 23 10.5 43t25.5 35t36.5 23.5t43.5 8.5q24 0 45.5 -9.5t37.5 -25t25 -37t9 -45.5v-1330z" />
    <glyph glyph-name="O" unicode="O" horiz-adv-x="1830" 
d="M108 779q0 326 239 560q238 234 572 234q330 0 566 -236q237 -236 237 -567q0 -333 -238 -565q-239 -233 -577 -233q-299 0 -537 207q-262 229 -262 600zM343 776q0 -256 172 -421q171 -165 395 -165q243 0 410 168q167 170 167 414q0 247 -165 414q-164 168 -406 168
q-241 0 -407 -168q-166 -166 -166 -410z" />
    <glyph glyph-name="P" unicode="P" horiz-adv-x="1106" 
d="M917 1414q133 -130 133 -327q0 -211 -142 -335q-140 -124 -382 -124h-109v-509q0 -1 0.5 -1.5t0.5 -1.5q0 -24 -9 -45t-25 -36.5t-37 -25t-45 -9.5t-45 9.5t-37 25t-25 36.5t-9 45v3h-1v1377q4 20 20 33t37 14h207q194 0 292 -27q101 -27 176 -102zM505 843
q320 0 320 246q0 239 -331 239h-22q-23 -1 -38 -17t-17 -39v-373q1 -23 16.5 -38.5t37.5 -17.5h34z" />
    <glyph glyph-name="Q" unicode="Q" horiz-adv-x="1830" 
d="M1585 139l1 -2q24 -27 24 -64q0 -21 -8 -40t-22 -33t-33 -22t-40 -8q-22 0 -41 9t-33 23l-65 67q-3 3 -9.5 7t-14.5 6.5t-17 1t-19 -8.5q-178 -104 -398 -104q-310 0 -547 209q-260 230 -260 586q0 350 246 584q237 227 564 227q295 0 529 -198q281 -239 281 -624
q0 -285 -197 -507q-2 -3 -6 -7q-5 -6 -7.5 -16.5t8.5 -23.5q54 -52 64 -62zM1358 410q129 148 129 361q0 250 -165 418q-167 168 -412 168q-249 0 -409 -168q-162 -168 -162 -424q0 -251 166 -410q173 -164 397 -164q65 0 123 12.5t112 36.5q4 2 9.5 6.5t8.5 11t1 15
t-12 18.5q-36 35 -72.5 70t-72.5 70l-5 5q-26 29 -26 70q0 22 8 41t22.5 33t33.5 22.5t41 8.5q23 0 42 -9t33 -24l170 -168q6 -5 17 -8t23 8z" />
    <glyph glyph-name="R" unicode="R" horiz-adv-x="1233" 
d="M1051 193q13 -15 20.5 -34t7.5 -42q0 -24 -9 -45t-25 -36.5t-37.5 -25t-45.5 -9.5q-31 0 -57 15t-41 41l-384 550q-2 4 -13.5 14.5t-25.5 11.5q-9 0 -15 -8.5t-7 -33.5v-467v-7v-5v-2q-2 -23 -11.5 -43t-25 -34.5t-36 -23t-44.5 -8.5t-44.5 9t-36.5 24t-25 35.5t-10 44.5
v4v1373q0 24 16.5 40.5t39.5 17.5h217q307 0 444 -116q150 -129 150 -338q0 -164 -95 -283q-76 -97 -194 -136q-10 -3 -17 -6t-12 -6t-7 -5q-7 -10 0 -24zM494 838q331 0 331 253q0 238 -322 238h-28q-23 -1 -39 -16.5t-17 -38.5v-382q2 -23 17 -38t37 -16h21z" />
    <glyph glyph-name="S" unicode="S" horiz-adv-x="1168" 
d="M990 732q86 -107 86 -268q0 -212 -141 -352q-143 -140 -354 -140q-202 0 -332 120q-88 80 -131 207h1q-7 17 -7 38q0 24 9.5 45.5t25.5 37.5t37.5 25.5t45.5 9.5q42 0 73 -25t41 -63q15 -51 35 -76q72 -100 210 -100q109 0 181 73t72 185q0 44 -12 82q-6 19 -16 36
t-23 33q-14 16 -31 30.5t-38 28.5t-46 27t-54 25l-148 62q-316 133 -316 392q0 173 132 290q133 118 331 118q195 0 328 -139q19 -16 30 -37.5t11 -47.5q0 -23 -8.5 -43t-23.5 -35t-35 -23.5t-42 -8.5q-26 0 -48.5 11t-37.5 31q-12 14 -23.5 24t-23.5 17q-50 32 -128 32
q-99 0 -161 -55q-64 -54 -64 -136q0 -113 167 -182l154 -63q188 -77 274 -186z" />
    <glyph glyph-name="T" unicode="T" horiz-adv-x="988" 
d="M379 1272q-1 23 -17 38.5t-39 16.5h-191v1q-23 0 -43 8.5t-34.5 23.5t-23 34.5t-8.5 42.5t8.5 43t23.5 35t35 23.5t43 8.5h722q23 0 43 -9t35 -24t23.5 -35t8.5 -42q0 -23 -8.5 -42.5t-23.5 -34.5t-35 -24t-42 -9h-1h-189q-22 -1 -37.5 -16.5t-16.5 -38.5v-1155
q0 -24 -9 -45t-25 -37t-37.5 -25t-45.5 -9t-45.5 9t-37 24.5t-24.5 37t-9 45.5v1155z" />
    <glyph glyph-name="U" unicode="U" horiz-adv-x="1513" 
d="M1338 1433v-886q0 -244 -154 -406q-170 -176 -423 -176t-423 176q-153 160 -153 406v886q0 24 9.5 45t25.5 37t37 25t45 9t45.5 -9t37.5 -25t25.5 -37t9.5 -45v-821q0 -199 65 -293q99 -134 276 -134q179 0 275 134q67 89 67 293v821q0 24 9 45t25 37t37 25t45 9
q25 0 46.5 -9t37.5 -25t25 -37t9 -45h1z" />
    <glyph glyph-name="V" unicode="V" horiz-adv-x="1374" 
d="M1314 1387l-3 -6l-535 -1280q-12 -28 -26 -50q-12 -19 -28.5 -34.5t-34.5 -15.5q-15 0 -28.5 10.5t-25 25.5t-20 30.5t-12.5 24.5l-525 1286q-11 25 -11 52q0 24 9.5 45.5t25.5 37.5t37.5 25t45.5 9q38 0 67.5 -21t42.5 -54l378 -948q8 -17 15 -19.5t12 1t8.5 9.5t4.5 8
v1l383 945q0 2 1 4.5t2 4.5l1 2q14 29 42.5 48t63.5 19q24 0 45.5 -9t37.5 -25t25 -37.5t9 -45.5q0 -11 -2 -21.5t-5 -20.5v-1z" />
    <glyph glyph-name="W" unicode="W" horiz-adv-x="2172" 
d="M2109 1391q-1 -3 -2.5 -6t-2.5 -6l-537 -1278q-13 -28 -26 -50q-11 -19 -26 -34.5t-29 -15.5q-13 0 -25 12t-22 28.5t-17 32t-10 23.5l-327 901l-340 -900q-3 -6 -10 -22t-17 -32.5t-22.5 -29.5t-26.5 -13q-12 0 -24 10.5t-22 25t-17.5 30t-11.5 24.5l-512 1288
q-12 22 -12 51q0 24 9 45.5t25 37.5t37.5 25t45.5 9q38 0 68 -22t42 -56l359 -921q1 -1 4 -9.5t10 -8.5q5 0 8 6t5 11l353 934q6 17 14 31q7 12 16 22.5t20 12.5h8q9 -2 16.5 -10.5t13.5 -18.5t10.5 -20t6.5 -14l339 -936q1 -1 4.5 -9.5t8.5 -8.5q6 0 9.5 6.5t5.5 10.5
l377 910q15 38 43.5 64t70.5 26q24 0 45.5 -9t37 -25t25 -37.5t9.5 -45.5q0 -20 -6 -36z" />
    <glyph glyph-name="X" unicode="X" horiz-adv-x="1265" 
d="M1138 177q19 -29 19 -63q0 -24 -9 -44.5t-24.5 -35.5t-36 -24t-44.5 -9q-33 0 -60 17t-41 45l-296 510q-4 8 -11 7.5t-10 -7.5l-306 -515q-14 -26 -40.5 -42t-58.5 -16q-24 0 -45 9t-36 24.5t-24 36t-9 44.5q0 36 20 64l368 614v-1q3 5 4 11q1 5 0 11t-5 13v3l-311 538
q-10 14 -15.5 30.5t-5.5 34.5q0 24 9 44.5t25 36t36.5 24.5t44.5 9q35 0 63 -18.5t42 -47.5l1 -2l245 -435q1 -3 3 -5q4 -4 9 -4q8 0 13 9l259 434q13 31 41 50t63 19q24 0 44.5 -9t36.5 -25t25 -36.5t9 -44.5q0 -14 -3.5 -27.5t-8.5 -24.5l-336 -554q-2 -4 -4 -13.5
t4 -20.5l356 -614v0z" />
    <glyph glyph-name="Y" unicode="Y" horiz-adv-x="1229" 
d="M740 685q-8 -14 -9 -24q-1 -6 -1 -11v-533q0 -24 -9.5 -45t-25.5 -37t-37 -25t-45 -9t-45 9.5t-37 25t-25 36.5t-9 45v2v532q-1 3 -2.5 13.5t-7.5 21.5v1l-393 682q-18 27 -18 63q0 24 9 45.5t25 37t37 25t45 9.5q35 0 63.5 -19t42.5 -49l1 1l303 -531l3.5 -3.5t5.5 -4
t7 0t9 8.5l305 530q14 29 42 47.5t63 18.5q24 0 45 -9t37 -25t25 -37t9 -45q0 -31 -13 -54z" />
    <glyph glyph-name="Z" unicode="Z" horiz-adv-x="1280" 
d="M1087 220q22 -1 41.5 -9.5t34 -23.5t23 -35t8.5 -42q0 -23 -8.5 -42.5t-23.5 -34.5t-35 -23.5t-42 -8.5h-2h-803v1q-4 -1 -8 0q-7 0 -20 5q-37 11 -61 41.5t-24 70.5q0 12 2 25t8 31.5t18.5 43.5t33.5 61l579 1011q6 10 6 17t-3.5 10.5t-8.5 5t-9 1.5h-482h-8
q-23 0 -43 8.5t-35 23.5t-23.5 35t-8.5 43q0 22 8.5 42t23.5 35t35 23.5t43 8.5v1h766q38 -3 61 -17q10 -6 17 -15.5t9 -23t-2.5 -32t-17.5 -42.5q-3 -4 -5 -7.5t-4 -7.5l-656 -1148q-1 -3 -2 -8.5t1 -10.5t8 -9t19 -4q1 0 1 0.5t2 -0.5h587v0z" />
    <glyph glyph-name="bracketleft" unicode="[" horiz-adv-x="732" 
d="M400 -417q-62 0 -101.5 14t-62.5 44.5t-31.5 78.5t-8.5 117v1599q0 69 8.5 117.5t31.5 79t62.5 45t101.5 14.5h97q127 0 127 -120q0 -116 -127 -116h-60v-1637h61q127 0 127 -120q0 -116 -127 -116h-98v0z" />
    <glyph glyph-name="backslash" unicode="\" horiz-adv-x="1061" 
d="M46 1537q-7 19 -7 35q0 21 8 40t22 33t32 22t39 8q35 0 61 -20t36 -51l799 -1848q10 -22 10 -42q0 -21 -8 -39.5t-22 -32.5t-32.5 -22t-39.5 -8q-30 0 -55 16.5t-36 43.5l-1 2v1l-804 1856q-1 1 -1 4z" />
    <glyph glyph-name="bracketright" unicode="]" horiz-adv-x="732" 
d="M332 -417h-98q-127 0 -127 116q0 120 127 120h61v1637h-60q-127 0 -127 116q0 120 127 120h97q62 0 101.5 -14.5t62.5 -45t31.5 -79t8.5 -117.5v-1599q0 -69 -8.5 -117t-31.5 -78.5t-62.5 -44.5t-101.5 -14z" />
    <glyph glyph-name="asciicircum" unicode="^" 
d="M281 812h-245l391 739h304l392 -739h-246l-298 555z" />
    <glyph glyph-name="underscore" unicode="_" 
d="M0 -129h1158v-210h-1158v210z" />
    <glyph glyph-name="grave" unicode="`" 
d="M262 1361q-12 14 -19 32.5t-6 39.5t11 43t32 42q19 18 41.5 24.5t44 5t40 -10t29.5 -21.5q2 -2 2.5 -3.5t2.5 -3.5l182 -218q1 -2 6 -7q13 -14 19 -30.5t5.5 -33.5t-8 -33t-20.5 -28q-14 -12 -30.5 -18t-33.5 -5.5t-33 7t-29 20.5q-1 1 0 1h-1l-232 194q-1 1 -1 1.5
t-2 1.5z" />
    <glyph glyph-name="a" unicode="a" horiz-adv-x="1228" 
d="M914 0q-23 0 -39 14.5t-18 37.5v50q-139 -130 -297 -130q-202 0 -333 146q-132 148 -132 371q0 219 132 365q129 146 327 146q168 0 303 -140q0 23 9 43.5t24 36t35.5 24.5t43.5 9q24 0 45 -9t36.5 -24.5t24.5 -36t9 -43.5q0 -2 -0.5 -3t-0.5 -2h1l-1 -799
q0 -23 -16.5 -39.5t-40.5 -16.5h-112zM796 259q77 91 77 225q0 136 -77 225q-77 87 -201 87q-114 0 -192 -87q-78 -90 -78 -220q0 -138 76 -226q78 -90 193 -90q124 0 202 86z" />
    <glyph glyph-name="b" unicode="b" horiz-adv-x="1228" 
d="M141 1582q0 23 9 43.5t24 36t35.5 24.5t44.5 9q23 0 43.5 -9t36 -24t24.5 -35.5t9 -43.5v-719q136 141 307 141q198 0 330 -148q131 -146 131 -365q0 -228 -133 -374q-131 -147 -332 -147q-168 0 -303 130v-45q0 -23 -16 -39.5t-39 -17.5h-114q-23 0 -40 17t-17 40v1526z
M825 261q79 90 79 220q0 141 -77 229q-76 91 -194 91q-124 0 -203 -87q-77 -88 -77 -226q0 -142 76 -227q76 -87 201 -87q118 0 195 87z" />
    <glyph glyph-name="c" unicode="c" horiz-adv-x="976" 
d="M796 214q22 0 41 -8.5t33 -23t22 -33.5t8 -41q0 -35 -20.5 -62t-52.5 -37q-101 -39 -200 -39q-227 0 -381 147q-153 148 -153 366t155 369q154 151 380 151q104 0 200 -36q31 -11 51.5 -38t20.5 -63q0 -22 -8.5 -41.5t-22.5 -34t-33.5 -23t-41.5 -8.5q-26 0 -50 13
q-55 26 -123 26q-128 0 -212 -87q-84 -90 -84 -225q0 -139 81 -226q84 -87 211 -87q75 0 134 31q22 10 45 10z" />
    <glyph glyph-name="d" unicode="d" horiz-adv-x="1228" 
d="M326 490q0 -140 75 -228q77 -89 194 -89q125 0 202 86q77 89 77 226t-77 226q-77 87 -200 87q-116 0 -194 -88q-77 -89 -77 -220zM1030 0h-114q-23 1 -40 17.5t-17 39.5v44q-134 -129 -301 -129q-200 0 -331 146q-131 151 -131 373q0 216 131 364q129 147 326 147
q171 0 306 -140v710v4q0 24 9 44.5t24.5 36t36 24.5t44.5 9q23 0 44 -9t36.5 -24.5t24.5 -36t9 -44.5v-1524q-2 -22 -18.5 -37t-38.5 -15z" />
    <glyph glyph-name="e" unicode="e" horiz-adv-x="1133" 
d="M943 125q-48 -52 -106 -89q-56 -33 -121 -50q-64 -16 -141 -16q-219 0 -351 141q-132 139 -132 374q0 231 128 374q128 141 343 141q109 0 193 -33.5t147 -103.5q125 -136 125 -376q-2 -23 -18.5 -39t-39.5 -16h-590q-4 0 -13 -1t-17.5 -5.5t-13.5 -14t-2 -26.5
q16 -87 71 -143q70 -70 178 -70q84 0 140 40q15 11 31.5 28.5t35.5 40.5q15 21 38.5 33t49.5 12q23 0 43 -8.5t34.5 -23.5t23 -35t8.5 -42q0 -39 -24 -69q-1 -2 -2 -2.5t-2 -1.5zM358 661q-2 -5 -3 -12.5t2 -14.5t11.5 -12.5t26.5 -5.5h3h353q14 1 21 6.5t9.5 12t1.5 13
t-2 11.5q-56 138 -213 138q-44 0 -77 -13q-36 -12 -66 -36q-15 -12 -27.5 -25.5t-22.5 -30.5q-5 -8 -9 -15.5t-8 -15.5z" />
    <glyph glyph-name="f" unicode="f" horiz-adv-x="616" 
d="M529 974q22 0 41 -8.5t33 -22.5t22.5 -33t8.5 -41t-8.5 -41t-22.5 -33.5t-33 -22.5t-41 -8h-91q-21 -3 -35.5 -19t-14.5 -38v-596v-1q0 -24 -9 -44.5t-24.5 -36t-36.5 -24.5t-44 -9q-24 0 -44.5 9t-36.5 24.5t-25 36t-9 44.5q0 3 0.5 6t0.5 6v592q-2 21 -16.5 34.5
t-25.5 18.5q-32 10 -53 37t-21 62q0 30 15 53.5t38 37.5q9 9 20 13t26 17.5t17 35.5v328q0 186 64 260q89 107 258 107q29 0 67 -9q36 -7 60.5 -36t24.5 -68q0 -22 -8.5 -41.5t-23 -33.5t-34 -22.5t-41.5 -8.5h-9t-9 1t-10 1h-8q-61 0 -82 -43q-21 -42 -21 -162v-271
q3 -22 18.5 -36t37.5 -14l85 -1v0z" />
    <glyph glyph-name="g" unicode="g" horiz-adv-x="1226" 
d="M1083 864q0 -2 0.5 -3.5t0.5 -2.5v-835q0 -35 -1.5 -65t-3.5 -56q-5 -53 -12 -93q-26 -110 -94 -189q-132 -152 -363 -152q-196 0 -321 106q-68 56 -106 135q-13 26 -13 53q0 23 9 43.5t24 35.5t35.5 24t43.5 9q37 0 65.5 -21.5t39.5 -55.5q5 -10 10 -18.5t11 -16.5
q69 -90 204 -90q247 0 247 302v77l-1 1q0 21 -8.5 24.5t-19.5 -0.5q-12 -4 -28 -17h-1q-113 -86 -252 -86q-199 0 -325 144q-128 146 -128 365q0 211 119 362q128 158 338 158q183 0 306 -138q0 23 9 43.5t24.5 35.5t36 23.5t43.5 8.5t43.5 -8.5t35.5 -23.5t23.5 -35.5
t8.5 -43.5zM800 268q69 84 69 218q0 140 -76 225q-78 87 -197 87q-129 0 -202 -94q-67 -85 -67 -220q0 -132 67 -217q73 -93 202 -93q128 0 204 94z" />
    <glyph glyph-name="h" unicode="h" horiz-adv-x="1123" 
d="M978 125q1 -4 0.5 -7.5t-0.5 -6.5q0 -24 -8.5 -44.5t-23.5 -35.5t-35.5 -24t-44.5 -9q-23 0 -43.5 9t-36 24t-24.5 35.5t-9 44.5v1v5v458q0 117 -41 169q-42 54 -134 54q-118 0 -166 -74q-47 -72 -47 -254v-346q0 -4 0.5 -7t0.5 -6q0 -24 -9 -44.5t-24.5 -35.5t-36 -24
t-43.5 -9t-43.5 8.5t-36 23.5t-24.5 35t-9 43v1v1v1v1v1460v5q0 23 9 43.5t24 36t35.5 24.5t43.5 9q24 0 44.5 -9t35.5 -24t24 -35.5t9 -44.5v-684q120 108 265 108q165 0 264 -107q84 -93 84 -298v-471v0z" />
    <glyph glyph-name="i" unicode="i" horiz-adv-x="510" 
d="M256 1231q-62 0 -104 43q-44 44 -44 105q0 58 44 102q43 43 103 43q59 0 104 -43q43 -42 43 -103t-43 -104q-42 -43 -103 -43zM256 975q24 0 44.5 -9t35.5 -24.5t24 -36t9 -43.5v-3v-744q-1 -1 -1 -3q0 -23 -9 -43t-24 -35t-35.5 -24t-43.5 -9t-43.5 9t-35.5 24t-24 35.5
t-9 43.5v12v734v3q0 23 9 43.5t24 36t35.5 24.5t43.5 9z" />
    <glyph glyph-name="j" unicode="j" horiz-adv-x="510" 
d="M108 1379q0 59 43 102t103 43q61 0 104 -43q43 -42 43 -103t-43 -104q-42 -43 -103 -43t-104 43t-43 105zM255 973q-23 0 -43.5 -9t-35.5 -24t-24 -35.5t-9 -43.5v-9v-1273h1q0 -23 8.5 -43t23.5 -35t35.5 -24t43.5 -9t43.5 8.5t36 23.5t24.5 35t9 43v1v1281
q0 23 -9 43.5t-24 36t-35.5 24.5t-44.5 9z" />
    <glyph glyph-name="k" unicode="k" horiz-adv-x="1020" 
d="M863 189q31 -33 31 -78q0 -24 -9 -44.5t-24 -36t-36 -24.5t-45 -9q-47 0 -79 32l-6 6q-2 3 -5 6.5t-5 6.5l-283 362l-36 -36v-260q0 -1 -1 -2v-1q0 -23 -8.5 -43.5t-23.5 -35.5t-35.5 -24t-44.5 -9q-23 0 -43 8.5t-35 23t-24 34t-10 42.5v6v1462l-1 2q0 24 9 44.5
t24 35.5t35.5 24t44.5 9q23 0 43.5 -9t35.5 -24t24 -35.5t9 -44.5h1v-918l287 285v-1q29 31 74 31t75 -30t30 -75q0 -20 -7.5 -38.5t-20.5 -32.5l-2 -2q0 -1 -1 -1l-239 -231l301 -375v0z" />
    <glyph glyph-name="l" unicode="l" horiz-adv-x="510" 
d="M366 111q0 -24 -9 -44.5t-24 -35.5t-35.5 -23.5t-44.5 -8.5q-23 0 -43.5 9t-35.5 24t-24 35.5t-9 44.5v9v1455v2q0 23 9 44t24 36.5t35.5 24.5t43.5 9t43.5 -9t36 -24.5t24.5 -36t9 -43.5v-1455v-13z" />
    <glyph glyph-name="m" unicode="m" horiz-adv-x="1620" 
d="M1475 114q0 -5 -1 -8q-2 -22 -11 -41t-24 -33.5t-35 -22.5t-42 -8q-24 0 -44.5 9t-35.5 24.5t-24 36t-9 43.5v10v416q0 140 -34 198q-35 59 -115 59q-93 0 -135 -70q-42 -71 -42 -225v-388q-1 -2 -1 -7q-1 -22 -10.5 -41.5t-24.5 -34t-35 -23t-43 -8.5t-43.5 9t-36 24.5
t-24.5 36t-9 43.5v3v421q0 260 -149 260q-94 0 -138 -71q-43 -70 -43 -224l-1 -386q0 -6 -1 -9q-1 -22 -10 -41.5t-24 -34t-35 -23t-42 -8.5q-23 0 -43.5 8.5t-35.5 23t-24 34.5t-9 43v5v747q0 23 9 43.5t24.5 36t36 24.5t43.5 9q43 0 74 -24.5t37 -65.5l1 -1q65 68 111 92
q47 25 123 25q164 0 260 -144q106 144 287 144q329 0 329 -398z" />
    <glyph glyph-name="n" unicode="n" horiz-adv-x="1123" 
d="M983 114q0 -2 -0.5 -4.5t-0.5 -4.5q-1 -23 -10.5 -42.5t-25 -34t-35.5 -23t-43 -8.5q-24 0 -44.5 9t-36 24.5t-24.5 36t-9 44.5q0 9 1 14v416q0 145 -40 200q-41 57 -143 57q-114 0 -160 -75q-47 -73 -47 -256v-328q2 -7 2 -12.5v-13.5q0 -24 -9 -45.5t-24 -37.5
t-36 -25.5t-45 -9.5t-45.5 9t-37.5 25t-25 37t-9 45q0 11 1 16v732q0 24 9 45t25 37t37 25t45 9q20 0 38.5 -7t33.5 -19t25.5 -29t14.5 -36q119 118 269 118q171 0 266 -108q83 -90 83 -298v-482z" />
    <glyph glyph-name="o" unicode="o" horiz-adv-x="1231" 
d="M96 494q0 211 151 359t368 148q218 0 370 -149q150 -149 150 -366q0 -219 -151 -367q-152 -147 -373 -147q-219 0 -367 150q-148 148 -148 372zM326 490q0 -146 78 -231q80 -86 211 -86q132 0 211 85t79 227t-79 227q-80 86 -211 86q-129 0 -209 -86t-80 -222z" />
    <glyph glyph-name="p" unicode="p" horiz-adv-x="1228" 
d="M903 481q0 140 -76 228q-77 89 -194 89q-124 0 -201 -86t-77 -226q0 -137 77 -226q76 -87 200 -87q117 0 193 88q78 88 78 220zM999 853q132 -146 132 -371q0 -219 -130 -364q-131 -146 -328 -146q-172 0 -306 137v-527h-1q0 -23 -9 -43.5t-24 -35.5t-35.5 -24t-43.5 -9
t-43.5 9t-35.5 24t-24 35.5t-9 43.5v2v1274v4q0 23 9 43.5t24 35.5t35.5 24t43.5 9q22 0 42 -8.5t35 -22.5t24.5 -33.5t10.5 -41.5q133 133 302 133q202 0 331 -148z" />
    <glyph glyph-name="q" unicode="q" horiz-adv-x="1228" 
d="M1090 -415l1 -2q0 -24 -9 -44.5t-24.5 -36t-36 -24.5t-44.5 -9t-44.5 9t-36 24t-24.5 35.5t-9 44.5v10v519q-134 -138 -307 -138q-196 0 -327 146t-131 366q0 221 131 372q133 148 332 148q168 0 302 -134q2 22 11.5 41.5t25 33.5t35 22.5t42.5 8.5t43.5 -9t36 -24
t24.5 -35.5t9 -44.5v-3v-1276zM801 261q78 87 78 227q0 135 -77 226q-77 87 -201 87q-116 0 -194 -88q-77 -87 -77 -218q0 -143 76 -229q75 -91 193 -91q124 0 202 86z" />
    <glyph glyph-name="r" unicode="r" horiz-adv-x="766" 
d="M632 997q22 -2 41 -11t33.5 -24.5t22.5 -35.5t8 -42q0 -23 -9 -43.5t-24 -36t-35.5 -24.5t-43.5 -9q-8 0 -15.5 1t-15.5 3l-2 1q-11 3 -20 4t-20 1q-185 0 -185 -279v-378q1 -5 1 -16q0 -23 -9 -43.5t-24.5 -36t-36 -24.5t-43.5 -9q-24 0 -44.5 9t-36 24.5t-24.5 36
t-9 43.5v1v747v2q0 24 9 44.5t24.5 36t36.5 24.5t45 9q40 0 71 -24.5t39 -62.5h1q62 65 110 89q49 25 117 25h18.5t19.5 -2z" />
    <glyph glyph-name="s" unicode="s" horiz-adv-x="831" 
d="M708 473q63 -65 63 -173q0 -141 -106 -236q-101 -90 -244 -90q-172 0 -277 123h1q-24 27 -24 68q0 22 8.5 42t22.5 34t33.5 22.5t42.5 8.5q26 0 48.5 -11.5t37.5 -31.5v1q9 -13 15 -17q20 -18 43.5 -28t52.5 -10q114 0 114 104q0 60 -87 111q-17 8 -34 16.5t-34 17.5
q-17 8 -33.5 16t-34.5 16q-100 49 -137 97q-51 60 -51 156q0 127 86 210q89 82 215 82q56 0 104 -17.5t86 -52.5q18 -14 29 -35.5t11 -46.5q0 -23 -8.5 -42.5t-22.5 -33.5t-33.5 -22.5t-41.5 -8.5t-41 7.5t-33 21.5q-30 27 -67 27q-29 0 -51 -20q-21 -20 -21 -52
q0 -58 128 -111q90 -38 149 -74t91 -68z" />
    <glyph glyph-name="t" unicode="t" horiz-adv-x="568" 
d="M452 974q22 0 41 -8.5t33 -22.5t22.5 -33t8.5 -41t-8.5 -41t-22.5 -33t-33 -22t-41 -8h-4l-12 -1q-23 -1 -38.5 -17.5t-15.5 -39.5v-594v-2q0 -23 -8.5 -43.5t-23.5 -35.5t-35.5 -23.5t-44.5 -8.5q-23 0 -43.5 8.5t-36 23.5t-24.5 35.5t-9 43.5v4v592q0 17 -9.5 30.5
t-23.5 21.5q-14 2 -26 6q-2 1 -3.5 1t-3.5 2q-29 13 -47 40t-18 61t18 60.5t47 40.5q2 2 4.5 2t4.5 1q10 4 24 6q14 7 23.5 20.5t9.5 30.5v187q0 23 9 43.5t24 35.5t35.5 24t43.5 9t43.5 -9t36 -24t24.5 -35.5t9 -43.5v-187q0 -23 16 -39.5t39 -16.5h13h2v0z" />
    <glyph glyph-name="u" unicode="u" horiz-adv-x="1116" 
d="M973 854v-443q0 -115 -29 -202q-28 -76 -97 -137q-114 -99 -290 -99q-175 0 -289 99q-35 31 -60 65t-39 72q-28 68 -28 202v451v1q0 23 9 43.5t24 35.5t35.5 24t44.5 9q23 0 43.5 -9t35.5 -24t24 -35.5t9 -43.5v-1v-445q0 -243 191 -243t191 243v445q0 23 9 43.5t24 36
t35.5 24.5t43.5 9q24 0 44.5 -9t35.5 -24.5t24 -36t9 -43.5v-8z" />
    <glyph glyph-name="v" unicode="v" horiz-adv-x="1029" 
d="M837 976q24 0 44.5 -9t35.5 -24t24 -35.5t9 -44.5q0 -32 -15 -56l-367 -754l-1 1q-10 -22 -21 -40q-9 -15 -18.5 -27t-17.5 -12q-5 0 -11 6t-12.5 15t-13 19.5t-10.5 19.5l-374 775q-14 25 -14 54q0 23 9 43.5t24.5 35.5t36 24t44.5 9q34 0 61.5 -18.5t40.5 -48.5l1 -1
l209 -451q2 -5 5.5 -9.5t6.5 -4.5q4 0 10 11q3 4 6 11v-1l204 444q13 30 41 49t63 19z" />
    <glyph glyph-name="w" unicode="w" horiz-adv-x="1585" 
d="M1398 978q23 0 43.5 -9t36 -24.5t24.5 -36t9 -44.5q0 -22 -10 -47l-374 -769v1q-11 -22 -22 -40q-9 -15 -19 -27t-18 -12q-6 0 -13.5 8t-14.5 18.5t-13.5 22t-9.5 19.5l-192 441q-6 12 -14.5 23.5t-17.5 11.5q-10 0 -19 -13t-15 -25l-187 -428v1q-9 -22 -19 -40
q-8 -15 -18.5 -27t-18.5 -12q-6 0 -12.5 6t-13.5 15t-13 19.5t-10 19.5l-383 785q-11 22 -11 49q0 24 9 44.5t24.5 36t36 24.5t44.5 9q34 0 61.5 -18.5t41.5 -47.5l206 -449q3 -8 7 -14q7 -13 13 -13q5 0 12 13q4 6 7 14l200 469q2 4 6.5 12t12 15.5t17 13t21.5 5.5
q14 0 25 -7.5t19 -16.5q9 -11 15 -24l203 -470q2 -5 7.5 -14.5t10.5 -9.5q6 0 13 13q4 6 7 14l202 444q12 32 40.5 51.5t63.5 19.5z" />
    <glyph glyph-name="x" unicode="x" horiz-adv-x="1143" 
d="M1000 168q22 -28 22 -63q0 -22 -8.5 -41t-22.5 -33.5t-33.5 -22.5t-40.5 -8q-25 0 -46 11t-36 28l1 -1l-218 278h-1q-7 8 -13 14q-6 5 -12.5 9.5t-12.5 4.5q-12 0 -21.5 -10t-15.5 -16l-220 -275l-1 -1q-31 -42 -85 -42q-22 0 -41 8.5t-33.5 23t-23 33.5t-8.5 41
q0 19 6 35t17 30h-1l260 317q6 8 11 15q4 6 7.5 12.5t3.5 11.5t-3.5 12t-7.5 14q-5 7 -11 15l-183 234l-2 3q-12 13 -17 28.5t-5 35.5q0 22 8 41t22.5 33.5t33.5 22.5t41 8q27 0 49 -11t36 -31l1 -3l149 -194q-3 3 0 -0.5t8.5 -9t12.5 -10.5t13 -5q12 0 22 10.5t14 15.5
l155 199q31 39 83 39q22 0 42 -8.5t34 -22.5t22.5 -34t8.5 -42q0 -19 -6 -35t-16 -30l-205 -254l-5.5 -11t-2.5 -10t4.5 -13.5t9.5 -14.5l260 -329l1 -2v0z" />
    <glyph glyph-name="y" unicode="y" horiz-adv-x="1113" 
d="M1027 859q0 -18 -5.5 -34.5t-14.5 -30.5l-645 -1250q-12 -32 -40.5 -53.5t-66.5 -21.5q-24 0 -44.5 9t-36 24.5t-24.5 36t-9 44.5q0 39 22 67l268 503q4 6 7 14t3 12q0 3 -2.5 9t-4.5 11q-4 6 -7 14l-320 580q-10 14 -15.5 30.5t-5.5 35.5q0 24 9 44.5t24.5 36t36 24.5
t44.5 9q35 0 62.5 -19t41.5 -49v1l241 -453q3 -5 9 -12t13 -7q8 0 15 11q4 4 6 11l220 443q13 32 41 52.5t65 20.5q23 0 43.5 -9t36 -24.5t24.5 -36t9 -43.5z" />
    <glyph glyph-name="z" unicode="z" horiz-adv-x="1113" 
d="M264 -4q-35 -3 -61 5q-23 7 -41.5 24.5t-18.5 53.5q0 38 10.5 68t24.5 51q15 25 35 44h-1l349 422q12 17 22 37t10 36q0 9 -6.5 14t-14.5 7q-9 3 -20 4h-304v1q-22 0 -41 8.5t-33.5 22.5t-22.5 33.5t-8 40.5q0 22 8 41t22.5 33t33.5 22.5t41 8.5h616q12 0 27 -6.5
t27.5 -18t21 -28t8.5 -36.5q0 -28 -5 -49.5t-12 -38t-15.5 -29t-15.5 -22.5l-17 -21l-2 -1v-1l-337 -409q-11 -14 -20 -28q-8 -12 -14 -26.5t-6 -25.5q0 -16 13.5 -20.5t24.5 -5.5h295h6q45 0 75.5 -30t30.5 -75t-30.5 -75.5t-75.5 -30.5h-1h-578z" />
    <glyph glyph-name="braceleft" unicode="{" horiz-adv-x="732" 
d="M628 1501h-28q-90 0 -117 -35t-27 -146v-402q0 -106 -29 -173q-29 -58 -111 -107q140 -84 140 -222v-453q0 -114 27 -150q28 -36 117 -36l28 1v-202h-57l-71 -4q-147 0 -211 79t-64 260v492q0 52 -35 92.5t-95 54.5v193q70 16 100 60t30 131v446q0 171 63.5 248.5
t204.5 77.5l77 -2l58 -2v-201z" />
    <glyph glyph-name="bar" unicode="|" 
d="M463 1438q0 24 8 40q10 22 26.5 37.5t37 24t43 8.5t43.5 -9q35 -16 53.5 -48t14.5 -68l-5 -1843q2 -23 -8 -47q-10 -21 -26.5 -36.5t-36.5 -23.5t-42.5 -8t-44.5 9q-31 14 -49.5 41.5t-17.5 60.5v3l3 1853q-2 1 1 4v2z" />
    <glyph glyph-name="braceright" unicode="}" horiz-adv-x="732" 
d="M105 -222l28 -1q89 0 116 35q28 34 28 147v400q0 107 29 174q29 58 111 107q-140 84 -140 221v455q0 116 -28 150q-29 36 -116 36l-28 -1v202h57l70 4q147 0 211 -79q65 -80 65 -260v-494q0 -52 35 -92.5t95 -54.5v-192q-70 -17 -100 -61t-30 -130v-446
q0 -171 -63.5 -248.5t-204.5 -77.5l-77 3h-58v203z" />
    <glyph glyph-name="nonbreakingspace" unicode="&#xa0;" horiz-adv-x="632" 
 />
    <glyph glyph-name="cent" unicode="&#xa2;" horiz-adv-x="1264" 
d="M755 1479v-194l9 -1q122 -15 220 -65v-300q-40 45 -75.5 75.5t-66.5 47.5q-61 34 -143 34q-127 0 -208 -86q-80 -86 -80 -221q0 -133 79 -215t209 -82q90 0 149 35q60 35 136 131v-312q-60 -25 -117 -41t-112 -24v-199h-171v208q-57 17 -99 35.5t-73 37.5
q-66 45 -116 109q-109 136 -109 320q0 383 397 510v197h171z" />
    <glyph glyph-name="sterling" unicode="&#xa3;" horiz-adv-x="1264" 
d="M519 761h301v-163h-234q26 -102 26 -142q0 -46 -29 -159l15 -5q32 -11 58.5 -20.5t48.5 -17.5q122 -49 178 -49q43 0 75 30q17 16 37.5 45t45.5 72l186 -112q-67 -143 -146 -201q-80 -60 -196 -60q-84 0 -256 59q-167 64 -234 64q-55 0 -87 -26t-72 -110l-200 101
q93 149 148 191q64 51 171 63q24 79 24 143q0 69 -35 134h-264v163h181q-97 193 -97 330q0 199 150 339q152 140 366 140q215 0 353 -141q139 -139 139 -360l-229 -85q0 167 -34 234q-66 133 -230 133q-121 0 -199 -79q-78 -78 -78 -200q0 -102 106 -292q2 -3 4.5 -7.5
t6.5 -11.5z" />
    <glyph glyph-name="section" unicode="&#xa7;" horiz-adv-x="1264" 
d="M166 7q3 26 14 46q10 17 30.5 32t58.5 15q42 1 66 -13t35 -32q13 -21 16 -48q28 -224 231 -224q97 0 151.5 54.5t54.5 154.5q0 93 -48 137q-48 45 -225 113q-213 83 -288 167t-75 236q0 251 219 349q-180 108 -180 300q0 169 129 291q130 121 312 121q187 0 309 -132
q124 -117 121 -338q-3 -19 -14 -34q-10 -14 -31 -25.5t-59 -13.5q-40 1 -62 12.5t-33 25.5q-12 16 -15 35q-17 254 -215 254q-96 0 -158 -59q-61 -58 -61 -151q0 -126 163 -184l102 -36q220 -79 301 -166t81 -244q0 -119 -50 -202q-49 -82 -167 -155q93 -63 131 -131
q39 -71 39 -173q0 -183 -124 -301q-125 -119 -312 -119q-122 0 -222 52q-101 50 -157 140q-58 91 -68 246zM407 649q0 -95 68 -163q69 -66 167 -66q96 0 164 66q69 66 69 160q0 95 -69 161q-68 66 -165 66q-98 0 -165 -67q-69 -66 -69 -157z" />
    <glyph glyph-name="dieresis" unicode="&#xa8;" 
d="M227 1284q0 58 42 99q42 42 101 42t101 -42q42 -41 42 -100q0 -60 -42 -102q-44 -41 -101 -41q-60 0 -102 42q-41 44 -41 102zM645 1284q0 58 42 99q43 42 101 42q60 0 101 -42q42 -41 42 -100q0 -60 -42 -102q-44 -41 -101 -41q-59 0 -101 42t-42 102z" />
    <glyph glyph-name="copyright" unicode="&#xa9;" horiz-adv-x="1756" 
d="M1186 1181v-202l-25 20q-122 95 -248 95q-135 0 -228 -94q-93 -95 -93 -231t93 -227q95 -92 229 -92q122 0 247 98l25 20v-204q-132 -72 -274 -72q-207 0 -352 139t-145 338q0 201 148 342t359 141q132 0 256 -67zM1679 774q0 -335 -234 -570t-566 -235t-568 236
q-234 235 -234 571q0 186 76 339q77 163 214 276q224 185 503 185q185 0 335 -70q213 -93 343 -295q131 -203 131 -437zM873 1459q-274 0 -470 -202q-197 -203 -197 -482q0 -285 197 -488q196 -202 476 -202q277 0 474 201q196 202 196 488q0 153 -77 316q-76 153 -202 243
q-177 126 -397 126z" />
    <glyph glyph-name="guillemotleft" unicode="&#xab;" horiz-adv-x="1179" 
d="M328 495l243 -312q11 -22 15 -43q3 -18 -3 -39.5t-29 -39.5q-27 -20 -51 -21.5t-42 6.5q-21 8 -40 26l-328 422l337 447q19 17 40 25q18 7 41.5 5.5t47.5 -21.5q23 -20 29 -41t4 -38q-3 -20 -13 -40zM757 495l243 -312q11 -22 15 -43q3 -18 -3 -39.5t-29 -39.5
q-27 -20 -51 -21.5t-42 6.5q-21 8 -40 26l-328 422l337 447q19 17 40 25q18 7 41.5 5.5t47.5 -21.5q23 -20 29 -41t4 -38q-3 -20 -13 -40z" />
    <glyph glyph-name="registered" unicode="&#xae;" horiz-adv-x="1756" 
d="M957 696l301 -387h-216l-275 367v-367h-177v926h185q194 0 283 -69q99 -80 99 -209q0 -87 -53 -161q-53 -72 -135 -96zM766 824h30q190 0 190 131q0 122 -184 122h-36v-253zM1679 774q0 -335 -234 -570t-566 -235t-568 236q-234 235 -234 571q0 186 76 339
q77 163 214 276q224 185 503 185q185 0 335 -70q213 -93 343 -295q131 -203 131 -437zM873 1459q-274 0 -470 -202q-197 -203 -197 -482q0 -285 197 -488q196 -202 476 -202q277 0 474 201q196 202 196 488q0 153 -77 316q-76 153 -202 243q-177 126 -397 126z" />
    <glyph glyph-name="macron" unicode="&#xaf;" 
d="M229 1343h701v-180h-701v180z" />
    <glyph glyph-name="macron" unicode="&#x2c9;" 
d="M229 1343h701v-180h-701v180z" />
    <glyph glyph-name="degree" unicode="&#xb0;" horiz-adv-x="1313" 
d="M661 1567q125 0 215 -91q90 -90 90 -217q0 -128 -91 -219q-90 -90 -218 -90t-219 90q-90 91 -90 218q0 131 91 219q91 90 222 90zM659 1413q-69 0 -117 -45q-47 -45 -47 -111q0 -70 48 -119t114 -49q68 0 114 49q48 49 48 119q0 65 -47 110q-46 46 -113 46z" />
    <glyph glyph-name="plusminus" unicode="&#xb1;" horiz-adv-x="1264" 
d="M99 710v186h440v432h185v-432h440v-186h-440v-401h-185v401h-440zM99 0v185h1065v-185h-1065z" />
    <glyph glyph-name="twosuperior" unicode="&#xb2;" horiz-adv-x="896" 
d="M393 763h341v-145h-657l338 395q48 57 79.5 97.5t48.5 68.5q35 56 35 99q0 61 -44 102t-109 41q-137 0 -157 -164h-157q36 304 310 304q133 0 221 -82q90 -81 90 -202q0 -74 -41 -148q-20 -36 -60 -89t-103 -123z" />
    <glyph glyph-name="threesuperior" unicode="&#xb3;" horiz-adv-x="896" 
d="M373 1041v132q96 0 126 18q52 31 52 104q0 55 -38 89.5t-99 34.5q-109 0 -131 -123h-157q23 138 92.5 201t198.5 63q128 0 207 -73q81 -74 81 -187q0 -124 -97 -194q110 -68 110 -217q0 -126 -88 -207q-89 -80 -224 -80q-275 0 -304 278h153q23 -137 159 -137
q65 0 107 42q42 43 42 110q0 78 -44 112t-146 34z" />
    <glyph glyph-name="acute" unicode="&#xb4;" 
d="M872 1375q-2 -1 -2 -1.5t-1 -1.5l-224 -203h-1q1 0 0 -1q-12 -15 -28 -22t-33 -8t-33.5 4.5t-31.5 16.5q-13 11 -21 27t-9.5 33t4 33.5t18.5 31.5q4 5 5 7l174 225q2 2 2 3.5t2 3.5q11 13 29 22.5t39.5 12t44 -3.5t42.5 -23q23 -19 34 -40.5t12.5 -42.5t-4.5 -40t-18 -33
z" />
    <glyph glyph-name="paragraph" unicode="&#xb6;" horiz-adv-x="1264" 
d="M631 -220h-214v995l-26 -1q-158 0 -256 104q-98 107 -98 274q0 392 452 392h716l-128 -216h-61v-1548h-213v1548h-172v-1548z" />
    <glyph glyph-name="periodcentered" unicode="&#xb7;" horiz-adv-x="632" 
d="M177 773q0 56 41 97t98 41t98 -41t41 -98q0 -58 -41 -99q-40 -40 -98 -40q-59 0 -99 40t-40 100z" />
    <glyph glyph-name="cedilla" unicode="&#xb8;" 
d="M787 -199l-239 -306l-146 73l199 309z" />
    <glyph glyph-name="onesuperior" unicode="&#xb9;" horiz-adv-x="896" 
d="M394 1401h-169l88 143h238v-926h-157v783z" />
    <glyph glyph-name="guillemotright" unicode="&#xbb;" horiz-adv-x="1179" 
d="M172 831q-10 20 -13 40q-2 17 4 38t29 41q24 20 47 21.5t41 -5.5q21 -8 41 -25l337 -447l-328 -422q-19 -18 -40 -26q-18 -8 -42.5 -6.5t-50.5 21.5q-24 18 -29.5 39.5t-2.5 39.5q4 21 15 43l243 312zM601 831q-10 20 -13 40q-2 17 4 38t29 41q24 20 47 21.5t41 -5.5
q21 -8 41 -25l337 -447l-328 -422q-19 -18 -40 -26q-18 -8 -42.5 -6.5t-50.5 21.5q-24 18 -29.5 39.5t-2.5 39.5q4 21 15 43l243 312z" />
    <glyph glyph-name="Agrave" unicode="&#xc0;" horiz-adv-x="1517" 
d="M1438 156q9 -21 7.5 -44t-11.5 -43.5t-27 -36.5t-39 -25q-21 -8 -43.5 -7t-42.5 10t-35.5 25t-24.5 37l-6 11l-106 250q-3 6 -8.5 13t-12.5 14t-16.5 11.5t-21.5 4.5h-584q-20 0 -33.5 -13t-20.5 -25l-124 -269q-13 -31 -41 -49.5t-63 -18.5q-24 0 -44.5 9t-35.5 24.5
t-24 36t-9 44.5q0 23 8 40l5 12l614 1322q2 4 8 13t15 18.5t21 16.5t27 7q16 0 29 -9t22 -20q11 -13 19 -29l598 -1329v-1zM946 596q18 0 25 7t8 15q1 10 -3 22l-202 464q-5 10 -9 7.5t-6 -5.5l-213 -468q-1 -3 -2 -10t0.5 -13.5t8 -12t20.5 -6.5h374h-1zM489 1895
q-14 12 -22.5 30t-10 39t6 43.5t26.5 45.5q17 19 38.5 28.5t43.5 10.5t41 -5t31 -18q2 -2 3 -3.5t3 -3.5l206 -196q1 -1 3 -2.5t4 -3.5q29 -24 31.5 -60.5t-21.5 -63.5q-12 -14 -28 -22t-33 -9.5t-34 3.5t-31 17q-1 1 0 1h-1l-252 166q-2 1 -2 1.5t-2 1.5z" />
    <glyph glyph-name="Aacute" unicode="&#xc1;" horiz-adv-x="1517" 
d="M1438 156q9 -21 7.5 -44t-11.5 -43.5t-27 -36.5t-39 -25q-21 -8 -43.5 -7t-42.5 10t-35.5 25t-24.5 37l-6 11l-106 250q-3 6 -8.5 13t-12.5 14t-16.5 11.5t-21.5 4.5h-584q-20 0 -33.5 -13t-20.5 -25l-124 -269q-13 -31 -41 -49.5t-63 -18.5q-24 0 -44.5 9t-35.5 24.5
t-24 36t-9 44.5q0 23 8 40l5 12l614 1322q2 4 8 13t15 18.5t21 16.5t27 7q16 0 29 -9t22 -20q11 -13 19 -29l598 -1329v-1zM946 596q18 0 25 7t8 15q1 10 -3 22l-202 464q-5 10 -9 7.5t-6 -5.5l-213 -468q-1 -3 -2 -10t0.5 -13.5t8 -12t20.5 -6.5h374h-1zM1126 1959
l-408 -276l-111 93l321 322z" />
    <glyph glyph-name="Acircumflex" unicode="&#xc2;" horiz-adv-x="1517" 
d="M1060 1862q17 -15 26 -35t9 -43q0 -21 -8 -39.5t-21.5 -32t-32 -21.5t-39.5 -8q-23 0 -42 9t-34 24l-105 99q-16 16 -37 17.5t-38 -11.5l-114 -106q-30 -30 -72 -30q-21 0 -39.5 7.5t-32 21t-21.5 31.5t-8 39q0 26 12 48.5t32 36.5l235 213q17 18 42.5 18t43.5 -18l-1 1z
M1438 156q9 -21 7.5 -44t-11.5 -43.5t-27 -36.5t-39 -25q-21 -8 -43.5 -7t-42.5 10t-35.5 25t-24.5 37l-6 11l-106 250q-3 6 -8.5 13t-12.5 14t-16.5 11.5t-21.5 4.5h-584q-20 0 -33.5 -13t-20.5 -25l-124 -269q-13 -31 -41 -49.5t-63 -18.5q-24 0 -44.5 9t-35.5 24.5
t-24 36t-9 44.5q0 23 8 40l5 12l614 1322q2 4 8 13t15 18.5t21 16.5t27 7q16 0 29 -9t22 -20q11 -13 19 -29l598 -1329v-1zM946 596q18 0 25 7t8 15q1 10 -3 22l-202 464q-5 10 -9 7.5t-6 -5.5l-213 -468q-1 -3 -2 -10t0.5 -13.5t8 -12t20.5 -6.5h374h-1z" />
    <glyph glyph-name="Atilde" unicode="&#xc3;" horiz-adv-x="1517" 
d="M1438 156q9 -21 7.5 -44t-11.5 -43.5t-27 -36.5t-39 -25q-21 -8 -43.5 -7t-42.5 10t-35.5 25t-24.5 37l-6 11l-106 250q-3 6 -8.5 13t-12.5 14t-16.5 11.5t-21.5 4.5h-584q-20 0 -33.5 -13t-20.5 -25l-124 -269q-13 -31 -41 -49.5t-63 -18.5q-24 0 -44.5 9t-35.5 24.5
t-24 36t-9 44.5q0 23 8 40l5 12l614 1322q2 4 8 13t15 18.5t21 16.5t27 7q16 0 29 -9t22 -20q11 -13 19 -29l598 -1329v-1zM946 596q18 0 25 7t8 15q1 10 -3 22l-202 464q-5 10 -9 7.5t-6 -5.5l-213 -468q-1 -3 -2 -10t0.5 -13.5t8 -12t20.5 -6.5h374h-1zM494 1699l-131 111
l29 41q28 40 54 67.5t53 45t56 25t63 7.5q78 0 181 -52q104 -53 134 -53q56 0 124 108l127 -106q-96 -192 -260 -192q-56 0 -183 56q-91 46 -136 46q-55 0 -111 -104z" />
    <glyph glyph-name="Adieresis" unicode="&#xc4;" horiz-adv-x="1517" 
d="M1438 156q9 -21 7.5 -44t-11.5 -43.5t-27 -36.5t-39 -25q-21 -8 -43.5 -7t-42.5 10t-35.5 25t-24.5 37l-6 11l-106 250q-3 6 -8.5 13t-12.5 14t-16.5 11.5t-21.5 4.5h-584q-20 0 -33.5 -13t-20.5 -25l-124 -269q-13 -31 -41 -49.5t-63 -18.5q-24 0 -44.5 9t-35.5 24.5
t-24 36t-9 44.5q0 23 8 40l5 12l614 1322q2 4 8 13t15 18.5t21 16.5t27 7q16 0 29 -9t22 -20q11 -13 19 -29l598 -1329v-1zM946 596q18 0 25 7t8 15q1 10 -3 22l-202 464q-5 10 -9 7.5t-6 -5.5l-213 -468q-1 -3 -2 -10t0.5 -13.5t8 -12t20.5 -6.5h374h-1zM406 1844
q0 58 42 100t100 42q60 0 101 -42q42 -42 42 -102q0 -59 -42 -101q-41 -42 -100 -42q-60 0 -102 42q-41 44 -41 103zM855 1844q0 58 42 100t101 42t101 -42t42 -102q0 -59 -42 -101t-101 -42q-60 0 -102 42q-41 44 -41 103z" />
    <glyph glyph-name="Aring" unicode="&#xc5;" horiz-adv-x="1517" 
d="M1438 156q9 -21 7.5 -44t-11.5 -43.5t-27 -36.5t-39 -25q-21 -8 -43.5 -7t-42.5 10t-35.5 25t-24.5 37l-6 11l-106 250q-3 6 -8.5 13t-12.5 14t-16.5 11.5t-21.5 4.5h-584q-20 0 -33.5 -13t-20.5 -25l-124 -269q-13 -31 -41 -49.5t-63 -18.5q-24 0 -44.5 9t-35.5 24.5
t-24 36t-9 44.5q0 23 8 40l5 12l614 1322q2 4 8 13t15 18.5t21 16.5t27 7q16 0 29 -9t22 -20q11 -13 19 -29l598 -1329v-1zM946 596q18 0 25 7t8 15q1 10 -3 22l-202 464q-5 10 -9 7.5t-6 -5.5l-213 -468q-1 -3 -2 -10t0.5 -13.5t8 -12t20.5 -6.5h374h-1zM556 1906
q0 88 64 151q64 64 153 64q91 0 154 -64q64 -64 64 -154t-64 -154q-63 -64 -153 -64q-91 0 -155 64q-63 64 -63 157zM675 1904q0 -43 28.5 -71.5t70.5 -28.5t70.5 28.5t28.5 70.5t-28.5 70.5t-70.5 28.5q-21 0 -39 -8t-31.5 -21.5t-21 -31.5t-7.5 -37z" />
    <glyph glyph-name="Ccedilla" unicode="&#xc7;" horiz-adv-x="1435" 
d="M1185 260q41 14 82 1t61 -51q11 -21 12.5 -43.5t-5.5 -43t-21.5 -37.5t-35.5 -28q-4 -2 -7 -4t-7 -4q-76 -37 -156.5 -56t-161.5 -21q-10 0 -19 -0.5t-18 -0.5q-332 0 -566 231q-232 233 -232 563q0 295 195 526q239 283 621 283q173 0 340 -79q2 -2 6.5 -4t8.5 -4
q21 -11 35 -28.5t21 -38t5.5 -42.5t-11.5 -43q-10 -19 -26 -32t-35.5 -19.5t-40.5 -6.5t-41 8q-5 2 -12 5q-6 2 -14 5t-17 8q-58 26 -116.5 39t-118.5 13q-239 0 -401 -171q-164 -170 -164 -417q0 -243 164 -410t402 -167q17 0 34 1t34 3q41 5 81 17t81 29q9 4 17 8t14 6
q7 3 12 5zM1010 -211l-262 -308l-146 77l210 319z" />
    <glyph glyph-name="Egrave" unicode="&#xc8;" 
d="M926 221q23 0 43 -8.5t34.5 -23.5t23 -35t8.5 -42q0 -23 -9 -43t-24 -35t-35 -23.5t-42 -8.5h-5h-684q-22 2 -37 17.5t-16 38.5v1435q2 23 17 38.5t38 16.5h682h6q22 0 42 -8.5t35 -23.5t23.5 -35t8.5 -42q0 -23 -8.5 -43t-23.5 -35t-35 -23.5t-43 -8.5h-3v-1h-451
q-23 0 -38 -16t-17 -39v-338q1 -24 18 -40.5t40 -16.5l436 -1q22 0 41.5 -9t34 -23.5t23 -34.5t8.5 -42q0 -23 -8.5 -42.5t-23 -34.5t-34 -23.5t-41.5 -9.5h-1h-2h-3h-433q-23 -1 -38 -16.5t-17 -38.5v-326q1 -23 16.5 -38.5t37.5 -17.5h450h6v0zM391 1895q-14 12 -22.5 30
t-10 39t6 43.5t26.5 45.5q17 19 38.5 28.5t43.5 10.5t41 -5t31 -18q2 -2 3 -3.5t3 -3.5l206 -196q1 -1 3 -2.5t4 -3.5q29 -24 31.5 -60.5t-21.5 -63.5q-12 -14 -28 -22t-33 -9.5t-34 3.5t-31 17q-1 1 0 1h-1l-252 166q-2 1 -2 1.5t-2 1.5z" />
    <glyph glyph-name="Eacute" unicode="&#xc9;" 
d="M926 221q23 0 43 -8.5t34.5 -23.5t23 -35t8.5 -42q0 -23 -9 -43t-24 -35t-35 -23.5t-42 -8.5h-5h-684q-22 2 -37 17.5t-16 38.5v1435q2 23 17 38.5t38 16.5h682h6q22 0 42 -8.5t35 -23.5t23.5 -35t8.5 -42q0 -23 -8.5 -43t-23.5 -35t-35 -23.5t-43 -8.5h-3v-1h-451
q-23 0 -38 -16t-17 -39v-338q1 -24 18 -40.5t40 -16.5l436 -1q22 0 41.5 -9t34 -23.5t23 -34.5t8.5 -42q0 -23 -8.5 -42.5t-23 -34.5t-34 -23.5t-41.5 -9.5h-1h-2h-3h-433q-23 -1 -38 -16.5t-17 -38.5v-326q1 -23 16.5 -38.5t37.5 -17.5h450h6v0zM962 1959l-408 -276
l-111 93l321 322z" />
    <glyph glyph-name="Ecircumflex" unicode="&#xca;" 
d="M896 1862q17 -15 26 -35t9 -43q0 -21 -8 -39.5t-21.5 -32t-32 -21.5t-39.5 -8q-23 0 -42 9t-34 24l-105 99q-16 16 -37 17.5t-38 -11.5l-114 -106q-30 -30 -72 -30q-21 0 -39.5 7.5t-32 21t-21.5 31.5t-8 39q0 26 12 48.5t32 36.5l235 213q17 18 42.5 18t43.5 -18l-1 1z
M926 221q23 0 43 -8.5t34.5 -23.5t23 -35t8.5 -42q0 -23 -9 -43t-24 -35t-35 -23.5t-42 -8.5h-5h-684q-22 2 -37 17.5t-16 38.5v1435q2 23 17 38.5t38 16.5h682h6q22 0 42 -8.5t35 -23.5t23.5 -35t8.5 -42q0 -23 -8.5 -43t-23.5 -35t-35 -23.5t-43 -8.5h-3v-1h-451
q-23 0 -38 -16t-17 -39v-338q1 -24 18 -40.5t40 -16.5l436 -1q22 0 41.5 -9t34 -23.5t23 -34.5t8.5 -42q0 -23 -8.5 -42.5t-23 -34.5t-34 -23.5t-41.5 -9.5h-1h-2h-3h-433q-23 -1 -38 -16.5t-17 -38.5v-326q1 -23 16.5 -38.5t37.5 -17.5h450h6z" />
    <glyph glyph-name="Edieresis" unicode="&#xcb;" 
d="M926 221q23 0 43 -8.5t34.5 -23.5t23 -35t8.5 -42q0 -23 -9 -43t-24 -35t-35 -23.5t-42 -8.5h-5h-684q-22 2 -37 17.5t-16 38.5v1435q2 23 17 38.5t38 16.5h682h6q22 0 42 -8.5t35 -23.5t23.5 -35t8.5 -42q0 -23 -8.5 -43t-23.5 -35t-35 -23.5t-43 -8.5h-3v-1h-451
q-23 0 -38 -16t-17 -39v-338q1 -24 18 -40.5t40 -16.5l436 -1q22 0 41.5 -9t34 -23.5t23 -34.5t8.5 -42q0 -23 -8.5 -42.5t-23 -34.5t-34 -23.5t-41.5 -9.5h-1h-2h-3h-433q-23 -1 -38 -16.5t-17 -38.5v-326q1 -23 16.5 -38.5t37.5 -17.5h450h6v0zM253 1844q0 58 42 100
t100 42q60 0 101 -42q42 -42 42 -102q0 -59 -42 -101q-41 -42 -100 -42q-60 0 -102 42q-41 44 -41 103zM702 1844q0 58 42 100t101 42t101 -42t42 -102q0 -59 -42 -101t-101 -42q-60 0 -102 42q-41 44 -41 103z" />
    <glyph glyph-name="Ntilde" unicode="&#xd1;" horiz-adv-x="1729" 
d="M1440 100q0 -18 -2 -34.5t-8 -29.5t-16 -22t-26 -11q-20 -3 -34.5 3.5t-26.5 17.5t-22.5 24.5t-22.5 24.5l-27 29l-2 2l-580 829q-12 12 -20 15t-12.5 0t-6 -9t-2.5 -12v-8h1h-1v-802q0 -24 -9 -45t-25 -36.5t-37 -24.5t-45 -9t-44.5 9t-36.5 24.5t-25 36t-10 44.5v1371
q1 6 4 16t9.5 19.5t17 16t25.5 6.5q18 0 32 -5t26 -13.5t23 -19t22 -22.5l613 -867q10 -9 17 -11t10.5 0.5t5.5 8t2 10.5v809v2q1 23 10.5 43t25.5 35t36.5 23.5t43.5 8.5q24 0 45.5 -9.5t37.5 -25t25 -37t9 -45.5v-1330zM580 1699l-131 111l29 41q28 40 54 67.5t53 45
t56 25t63 7.5q78 0 181 -52q104 -53 134 -53q56 0 124 108l127 -106q-96 -192 -260 -192q-56 0 -183 56q-91 46 -136 46q-55 0 -111 -104z" />
    <glyph glyph-name="Odieresis" unicode="&#xd6;" horiz-adv-x="1830" 
d="M108 779q0 326 239 560q238 234 572 234q330 0 566 -236q237 -236 237 -567q0 -333 -238 -565q-239 -233 -577 -233q-299 0 -537 207q-262 229 -262 600zM343 776q0 -256 172 -421q171 -165 395 -165q243 0 410 168q167 170 167 414q0 247 -165 414q-164 168 -406 168
q-241 0 -407 -168q-166 -166 -166 -410zM550 1844q0 58 42 100t100 42q60 0 101 -42q42 -42 42 -102q0 -59 -42 -101q-41 -42 -100 -42q-60 0 -102 42q-41 44 -41 103zM999 1844q0 58 42 100t101 42t101 -42t42 -102q0 -59 -42 -101t-101 -42q-60 0 -102 42q-41 44 -41 103z
" />
    <glyph glyph-name="Udieresis" unicode="&#xdc;" horiz-adv-x="1513" 
d="M1338 1433v-886q0 -244 -154 -406q-170 -176 -423 -176t-423 176q-153 160 -153 406v886q0 24 9.5 45t25.5 37t37 25t45 9t45.5 -9t37.5 -25t25.5 -37t9.5 -45v-821q0 -199 65 -293q99 -134 276 -134q179 0 275 134q67 89 67 293v821q0 24 9 45t25 37t37 25t45 9
q25 0 46.5 -9t37.5 -25t25 -37t9 -45h1zM389 1844q0 58 42 100t100 42q60 0 101 -42q42 -42 42 -102q0 -59 -42 -101q-41 -42 -100 -42q-60 0 -102 42q-41 44 -41 103zM838 1844q0 58 42 100t101 42t101 -42t42 -102q0 -59 -42 -101t-101 -42q-60 0 -102 42q-41 44 -41 103z
" />
    <glyph glyph-name="aacute" unicode="&#xe1;" horiz-adv-x="1228" 
d="M892 1341q-2 -1 -2 -1.5t-2 -1.5l-252 -166h-1q1 0 0 -1q-14 -12 -31 -17t-34 -3.5t-33 9.5t-28 22q-24 27 -21.5 63.5t31.5 60.5q2 2 4 3.5t3 2.5l206 196q2 2 3 3.5t3 3.5q12 12 31 18t41 5t43.5 -10.5t38.5 -28.5q19 -23 26.5 -45.5t6 -43.5t-10.5 -39t-22 -30zM914 0
q-23 0 -39 14.5t-18 37.5v50q-139 -130 -297 -130q-202 0 -333 146q-132 148 -132 371q0 219 132 365q129 146 327 146q168 0 303 -140q0 23 9 43.5t24 36t35.5 24.5t43.5 9q24 0 45 -9t36.5 -24.5t24.5 -36t9 -43.5q0 -2 -0.5 -3t-0.5 -2h1l-1 -799q0 -23 -16.5 -39.5
t-40.5 -16.5h-112zM796 259q77 91 77 225q0 136 -77 225q-77 87 -201 87q-114 0 -192 -87q-78 -90 -78 -220q0 -138 76 -226q78 -90 193 -90q124 0 202 86z" />
    <glyph glyph-name="agrave" unicode="&#xe0;" horiz-adv-x="1228" 
d="M914 0q-23 0 -39 14.5t-18 37.5v50q-139 -130 -297 -130q-202 0 -333 146q-132 148 -132 371q0 219 132 365q129 146 327 146q168 0 303 -140q0 23 9 43.5t24 36t35.5 24.5t43.5 9q24 0 45 -9t36.5 -24.5t24.5 -36t9 -43.5q0 -2 -0.5 -3t-0.5 -2h1l-1 -799
q0 -23 -16.5 -39.5t-40.5 -16.5h-112zM796 259q77 91 77 225q0 136 -77 225q-77 87 -201 87q-114 0 -192 -87q-78 -90 -78 -220q0 -138 76 -226q78 -90 193 -90q124 0 202 86zM358 1361q-12 14 -19 32.5t-6 39.5t11 43t32 42q19 18 41.5 24.5t44 5t40 -10t29.5 -21.5
q2 -2 2.5 -3.5t2.5 -3.5l182 -218q1 -2 6 -7q13 -14 19 -30.5t5.5 -33.5t-8 -33t-20.5 -28q-14 -12 -30.5 -18t-33.5 -5.5t-33 7t-29 20.5q-1 1 0 1h-1l-232 194q-1 1 -1 1.5t-2 1.5z" />
    <glyph glyph-name="acircumflex" unicode="&#xe2;" horiz-adv-x="1228" 
d="M914 0q-23 0 -39 14.5t-18 37.5v50q-139 -130 -297 -130q-202 0 -333 146q-132 148 -132 371q0 219 132 365q129 146 327 146q168 0 303 -140q0 23 9 43.5t24 36t35.5 24.5t43.5 9q24 0 45 -9t36.5 -24.5t24.5 -36t9 -43.5q0 -2 -0.5 -3t-0.5 -2h1l-1 -799
q0 -23 -16.5 -39.5t-40.5 -16.5h-112zM796 259q77 91 77 225q0 136 -77 225q-77 87 -201 87q-114 0 -192 -87q-78 -90 -78 -220q0 -138 76 -226q78 -90 193 -90q124 0 202 86zM919 1308q17 -15 26 -35t9 -43q0 -21 -8 -39.5t-21.5 -32t-32 -21.5t-39.5 -8q-23 0 -42 9
t-34 24l-105 99q-16 16 -37 17.5t-38 -11.5l-114 -106q-30 -30 -72 -30q-21 0 -39.5 7.5t-32 21t-21.5 31.5t-8 39q0 26 12 48.5t32 36.5l235 213q17 18 42.5 18t43.5 -18l-1 1l245 -221v0z" />
    <glyph glyph-name="adieresis" unicode="&#xe4;" horiz-adv-x="1228" 
d="M914 0q-23 0 -39 14.5t-18 37.5v50q-139 -130 -297 -130q-202 0 -333 146q-132 148 -132 371q0 219 132 365q129 146 327 146q168 0 303 -140q0 23 9 43.5t24 36t35.5 24.5t43.5 9q24 0 45 -9t36.5 -24.5t24.5 -36t9 -43.5q0 -2 -0.5 -3t-0.5 -2h1l-1 -799
q0 -23 -16.5 -39.5t-40.5 -16.5h-112zM796 259q77 91 77 225q0 136 -77 225q-77 87 -201 87q-114 0 -192 -87q-78 -90 -78 -220q0 -138 76 -226q78 -90 193 -90q124 0 202 86zM269 1284q0 58 42 99q42 42 101 42t101 -42q42 -41 42 -100q0 -60 -42 -102q-44 -41 -101 -41
q-60 0 -102 42q-41 44 -41 102zM687 1284q0 58 42 99q43 42 101 42q60 0 101 -42q42 -41 42 -100q0 -60 -42 -102q-44 -41 -101 -41q-59 0 -101 42t-42 102z" />
    <glyph glyph-name="atilde" unicode="&#xe3;" horiz-adv-x="1228" 
d="M914 0q-23 0 -39 14.5t-18 37.5v50q-139 -130 -297 -130q-202 0 -333 146q-132 148 -132 371q0 219 132 365q129 146 327 146q168 0 303 -140q0 23 9 43.5t24 36t35.5 24.5t43.5 9q24 0 45 -9t36.5 -24.5t24.5 -36t9 -43.5q0 -2 -0.5 -3t-0.5 -2h1l-1 -799
q0 -23 -16.5 -39.5t-40.5 -16.5h-112zM796 259q77 91 77 225q0 136 -77 225q-77 87 -201 87q-114 0 -192 -87q-78 -90 -78 -220q0 -138 76 -226q78 -90 193 -90q124 0 202 86zM350 1140l-131 111l29 41q28 40 54 67.5t53 45t56 25t63 7.5q78 0 181 -52q104 -53 134 -53
q56 0 124 108l127 -106q-96 -192 -260 -192q-56 0 -183 56q-91 46 -136 46q-55 0 -111 -104z" />
    <glyph glyph-name="aring" unicode="&#xe5;" horiz-adv-x="1228" 
d="M914 0q-23 0 -39 14.5t-18 37.5v50q-139 -130 -297 -130q-202 0 -333 146q-132 148 -132 371q0 219 132 365q129 146 327 146q168 0 303 -140q0 23 9 43.5t24 36t35.5 24.5t43.5 9q24 0 45 -9t36.5 -24.5t24.5 -36t9 -43.5q0 -2 -0.5 -3t-0.5 -2h1l-1 -799
q0 -23 -16.5 -39.5t-40.5 -16.5h-112zM796 259q77 91 77 225q0 136 -77 225q-77 87 -201 87q-114 0 -192 -87q-78 -90 -78 -220q0 -138 76 -226q78 -90 193 -90q124 0 202 86zM403 1345q0 88 64 151q64 64 153 64q91 0 154 -64q64 -64 64 -154t-64 -154q-63 -64 -153 -64
q-91 0 -155 64q-63 64 -63 157zM522 1343q0 -43 28.5 -71.5t70.5 -28.5t70.5 28.5t28.5 70.5t-28.5 70.5t-70.5 28.5q-21 0 -39 -8t-31.5 -21.5t-21 -31.5t-7.5 -37z" />
    <glyph glyph-name="ccedilla" unicode="&#xe7;" horiz-adv-x="976" 
d="M667 -268q-1 -1 -0.5 -1t-1.5 -2l-167 -190h-1q1 0 0 0q-8 -13 -20.5 -21t-27 -10t-28.5 0.5t-28 11.5q-24 18 -30.5 47.5t12.5 54.5q1 4 2.5 5t1.5 3l123 203q2 1 2.5 2.5t0.5 3.5q9 13 22 21.5t31.5 12.5t38 1t36.5 -13q20 -16 32.5 -32t15 -34t0 -34.5t-13.5 -28.5z
M796 214q22 0 41 -8.5t33 -23t22 -33.5t8 -41q0 -35 -20.5 -62t-52.5 -37q-101 -39 -200 -39q-227 0 -381 147q-153 148 -153 366t155 369q154 151 380 151q104 0 200 -36q31 -11 51.5 -38t20.5 -63q0 -22 -8.5 -41.5t-22.5 -34t-33.5 -23t-41.5 -8.5q-26 0 -50 13
q-55 26 -123 26q-128 0 -212 -87q-84 -90 -84 -225q0 -139 81 -226q84 -87 211 -87q75 0 134 31q22 10 45 10z" />
    <glyph glyph-name="eacute" unicode="&#xe9;" horiz-adv-x="1133" 
d="M831 1339q-2 -1 -2 -1.5t-2 -1.5l-252 -166h-1q1 0 0 -1q-14 -12 -31 -17t-34 -3.5t-33 9.5t-28 22q-24 27 -21.5 63.5t31.5 60.5q2 2 4 3.5t3 2.5l206 196q2 2 3 3.5t3 3.5q12 12 31 18t41 5t43.5 -10.5t38.5 -28.5q19 -23 26.5 -45.5t6 -43.5t-10.5 -39t-22 -30z
M943 125q-48 -52 -106 -89q-56 -33 -121 -50q-64 -16 -141 -16q-219 0 -351 141q-132 139 -132 374q0 231 128 374q128 141 343 141q109 0 193 -33.5t147 -103.5q125 -136 125 -376q-2 -23 -18.5 -39t-39.5 -16h-590q-4 0 -13 -1t-17.5 -5.5t-13.5 -14t-2 -26.5
q16 -87 71 -143q70 -70 178 -70q84 0 140 40q15 11 31.5 28.5t35.5 40.5q15 21 38.5 33t49.5 12q23 0 43 -8.5t34.5 -23.5t23 -35t8.5 -42q0 -39 -24 -69q-1 -2 -2 -2.5t-2 -1.5zM358 661q-2 -5 -3 -12.5t2 -14.5t11.5 -12.5t26.5 -5.5h3h353q14 1 21 6.5t9.5 12t1.5 13
t-2 11.5q-56 138 -213 138q-44 0 -77 -13q-36 -12 -66 -36q-15 -12 -27.5 -25.5t-22.5 -30.5q-5 -8 -9 -15.5t-8 -15.5z" />
    <glyph glyph-name="egrave" unicode="&#xe8;" horiz-adv-x="1133" 
d="M943 125q-48 -52 -106 -89q-56 -33 -121 -50q-64 -16 -141 -16q-219 0 -351 141q-132 139 -132 374q0 231 128 374q128 141 343 141q109 0 193 -33.5t147 -103.5q125 -136 125 -376q-2 -23 -18.5 -39t-39.5 -16h-590q-4 0 -13 -1t-17.5 -5.5t-13.5 -14t-2 -26.5
q16 -87 71 -143q70 -70 178 -70q84 0 140 40q15 11 31.5 28.5t35.5 40.5q15 21 38.5 33t49.5 12q23 0 43 -8.5t34.5 -23.5t23 -35t8.5 -42q0 -39 -24 -69q-1 -2 -2 -2.5t-2 -1.5zM358 661q-2 -5 -3 -12.5t2 -14.5t11.5 -12.5t26.5 -5.5h3h353q14 1 21 6.5t9.5 12t1.5 13
t-2 11.5q-56 138 -213 138q-44 0 -77 -13q-36 -12 -66 -36q-15 -12 -27.5 -25.5t-22.5 -30.5q-5 -8 -9 -15.5t-8 -15.5zM311 1361q-12 14 -19 32.5t-6 39.5t11 43t32 42q19 18 41.5 24.5t44 5t40 -10t29.5 -21.5q2 -2 2.5 -3.5t2.5 -3.5l182 -218q1 -2 6 -7q13 -14 19 -30.5
t5.5 -33.5t-8 -33t-20.5 -28q-14 -12 -30.5 -18t-33.5 -5.5t-33 7t-29 20.5q-1 1 0 1h-1l-232 194q-1 1 -1 1.5t-2 1.5z" />
    <glyph glyph-name="ecircumflex" unicode="&#xea;" horiz-adv-x="1133" 
d="M943 125q-48 -52 -106 -89q-56 -33 -121 -50q-64 -16 -141 -16q-219 0 -351 141q-132 139 -132 374q0 231 128 374q128 141 343 141q109 0 193 -33.5t147 -103.5q125 -136 125 -376q-2 -23 -18.5 -39t-39.5 -16h-590q-4 0 -13 -1t-17.5 -5.5t-13.5 -14t-2 -26.5
q16 -87 71 -143q70 -70 178 -70q84 0 140 40q15 11 31.5 28.5t35.5 40.5q15 21 38.5 33t49.5 12q23 0 43 -8.5t34.5 -23.5t23 -35t8.5 -42q0 -39 -24 -69q-1 -2 -2 -2.5t-2 -1.5zM358 661q-2 -5 -3 -12.5t2 -14.5t11.5 -12.5t26.5 -5.5h3h353q14 1 21 6.5t9.5 12t1.5 13
t-2 11.5q-56 138 -213 138q-44 0 -77 -13q-36 -12 -66 -36q-15 -12 -27.5 -25.5t-22.5 -30.5q-5 -8 -9 -15.5t-8 -15.5zM867 1308q17 -15 26 -35t9 -43q0 -21 -8 -39.5t-21.5 -32t-32 -21.5t-39.5 -8q-23 0 -42 9t-34 24l-105 99q-16 16 -37 17.5t-38 -11.5l-114 -106
q-30 -30 -72 -30q-21 0 -39.5 7.5t-32 21t-21.5 31.5t-8 39q0 26 12 48.5t32 36.5l235 213q17 18 42.5 18t43.5 -18l-1 1l245 -221v0z" />
    <glyph glyph-name="edieresis" unicode="&#xeb;" horiz-adv-x="1133" 
d="M943 125q-48 -52 -106 -89q-56 -33 -121 -50q-64 -16 -141 -16q-219 0 -351 141q-132 139 -132 374q0 231 128 374q128 141 343 141q109 0 193 -33.5t147 -103.5q125 -136 125 -376q-2 -23 -18.5 -39t-39.5 -16h-590q-4 0 -13 -1t-17.5 -5.5t-13.5 -14t-2 -26.5
q16 -87 71 -143q70 -70 178 -70q84 0 140 40q15 11 31.5 28.5t35.5 40.5q15 21 38.5 33t49.5 12q23 0 43 -8.5t34.5 -23.5t23 -35t8.5 -42q0 -39 -24 -69q-1 -2 -2 -2.5t-2 -1.5zM358 661q-2 -5 -3 -12.5t2 -14.5t11.5 -12.5t26.5 -5.5h3h353q14 1 21 6.5t9.5 12t1.5 13
t-2 11.5q-56 138 -213 138q-44 0 -77 -13q-36 -12 -66 -36q-15 -12 -27.5 -25.5t-22.5 -30.5q-5 -8 -9 -15.5t-8 -15.5zM225 1284q0 58 42 99q42 42 101 42t101 -42q42 -41 42 -100q0 -60 -42 -102q-44 -41 -101 -41q-60 0 -102 42q-41 44 -41 102zM643 1284q0 58 42 99
q43 42 101 42q60 0 101 -42q42 -41 42 -100q0 -60 -42 -102q-44 -41 -101 -41q-59 0 -101 42t-42 102z" />
    <glyph glyph-name="iacute" unicode="&#xed;" horiz-adv-x="510" 
d="M367 974v-974h-225v974h225zM549 1411q-2 -1 -2 -1.5t-1 -1.5l-194 -232h-1q1 0 0 -1q-10 -16 -24.5 -25.5t-31.5 -13t-34 -0.5t-33 13q-15 9 -25 23.5t-13.5 31t-0.5 34t13 33.5q4 6 5 8l140 247q2 2 2 3.5t2 3.5q8 15 25 26.5t38 17t44 3t45 -16.5q25 -16 39 -36
t18.5 -40.5t1 -40t-12.5 -35.5z" />
    <glyph glyph-name="igrave" unicode="&#xec;" horiz-adv-x="510" 
d="M367 974v-974h-225v974h225zM-45 1403q-10 15 -14 34.5t0 40.5t17.5 41t37.5 37q21 15 44.5 18t44.5 -1.5t38 -15.5t26 -25q2 -2 2 -4t2 -4l148 -243q1 -1 2 -3t3 -4q11 -15 14.5 -32.5t0.5 -34t-12.5 -31.5t-24.5 -25q-30 -20 -66.5 -14.5t-57.5 36.5q-1 1 0 1h-1
l-201 225q-2 2 -1.5 2.5t-1.5 1.5z" />
    <glyph glyph-name="icircumflex" unicode="&#xee;" horiz-adv-x="510" 
d="M367 974v-974h-225v974h225zM541 1318q17 -15 26 -35t9 -43q0 -21 -8 -39.5t-21.5 -32t-32 -21.5t-39.5 -8q-23 0 -42 9t-34 24l-105 99q-16 16 -37 17.5t-38 -11.5l-114 -106q-30 -30 -72 -30q-21 0 -39.5 7.5t-32 21t-21.5 31.5t-8 39q0 26 12 48.5t32 36.5l235 213
q17 18 42.5 18t43.5 -18l-1 1z" />
    <glyph glyph-name="idieresis" unicode="&#xef;" horiz-adv-x="510" 
d="M367 974v-974h-225v974h225zM-68 1284q0 58 42 99q40 42 100 42q59 0 101 -42q42 -41 42 -100q0 -60 -42 -102q-44 -41 -101 -41q-61 0 -101 42q-41 44 -41 102zM294 1284q0 58 42 99q42 42 101 42t101 -42q42 -41 42 -100q0 -60 -42 -102q-44 -41 -101 -41
q-60 0 -102 42q-41 44 -41 102z" />
    <glyph glyph-name="ntilde" unicode="&#xf1;" horiz-adv-x="1123" 
d="M983 114q0 -2 -0.5 -4.5t-0.5 -4.5q-1 -23 -10.5 -42.5t-25 -34t-35.5 -23t-43 -8.5q-24 0 -44.5 9t-36 24.5t-24.5 36t-9 44.5q0 9 1 14v416q0 145 -40 200q-41 57 -143 57q-114 0 -160 -75q-47 -73 -47 -256v-328q2 -7 2 -12.5v-13.5q0 -24 -9 -45.5t-24 -37.5
t-36 -25.5t-45 -9.5t-45.5 9t-37.5 25t-25 37t-9 45q0 11 1 16v732q0 24 9 45t25 37t37 25t45 9q20 0 38.5 -7t33.5 -19t25.5 -29t14.5 -36q119 118 269 118q171 0 266 -108q83 -90 83 -298v-482zM270 1140l-131 111l29 41q28 40 54 67.5t53 45t56 25t63 7.5q78 0 181 -52
q104 -53 134 -53q56 0 124 108l127 -106q-96 -192 -260 -192q-56 0 -183 56q-91 46 -136 46q-55 0 -111 -104z" />
    <glyph glyph-name="oacute" unicode="&#xf3;" horiz-adv-x="1231" 
d="M96 494q0 211 151 359t368 148q218 0 370 -149q150 -149 150 -366q0 -219 -151 -367q-152 -147 -373 -147q-219 0 -367 150q-148 148 -148 372zM326 490q0 -146 78 -231q80 -86 211 -86q132 0 211 85t79 227t-79 227q-80 86 -211 86q-129 0 -209 -86t-80 -222zM865 1375
q-2 -1 -2 -1.5t-1 -1.5l-224 -203h-1q1 0 0 -1q-12 -15 -28 -22t-33 -8t-33.5 4.5t-31.5 16.5q-13 11 -21 27t-9.5 33t4 33.5t18.5 31.5q4 5 5 7l174 225q2 2 2 3.5t2 3.5q11 13 29 22.5t39.5 12t44 -3.5t42.5 -23q23 -19 34 -40.5t12.5 -42.5t-4.5 -40t-18 -33z" />
    <glyph glyph-name="ograve" unicode="&#xf2;" horiz-adv-x="1231" 
d="M96 494q0 211 151 359t368 148q218 0 370 -149q150 -149 150 -366q0 -219 -151 -367q-152 -147 -373 -147q-219 0 -367 150q-148 148 -148 372zM326 490q0 -146 78 -231q80 -86 211 -86q132 0 211 85t79 227t-79 227q-80 86 -211 86q-129 0 -209 -86t-80 -222zM360 1361
q-12 14 -19 32.5t-6 39.5t11 43t32 42q19 18 41.5 24.5t44 5t40 -10t29.5 -21.5q2 -2 2.5 -3.5t2.5 -3.5l182 -218q1 -2 6 -7q13 -14 19 -30.5t5.5 -33.5t-8 -33t-20.5 -28q-14 -12 -30.5 -18t-33.5 -5.5t-33 7t-29 20.5q-1 1 0 1h-1l-232 194q-1 1 -1 1.5t-2 1.5z" />
    <glyph glyph-name="ocircumflex" unicode="&#xf4;" horiz-adv-x="1231" 
d="M96 494q0 211 151 359t368 148q218 0 370 -149q150 -149 150 -366q0 -219 -151 -367q-152 -147 -373 -147q-219 0 -367 150q-148 148 -148 372zM326 490q0 -146 78 -231q80 -86 211 -86q132 0 211 85t79 227t-79 227q-80 86 -211 86q-129 0 -209 -86t-80 -222zM905 1308
q17 -15 26 -35t9 -43q0 -21 -8 -39.5t-21.5 -32t-32 -21.5t-39.5 -8q-23 0 -42 9t-34 24l-105 99q-16 16 -37 17.5t-38 -11.5l-114 -106q-30 -30 -72 -30q-21 0 -39.5 7.5t-32 21t-21.5 31.5t-8 39q0 26 12 48.5t32 36.5l235 213q17 18 42.5 18t43.5 -18l-1 1l245 -221v0z
" />
    <glyph glyph-name="odieresis" unicode="&#xf6;" horiz-adv-x="1231" 
d="M96 494q0 211 151 359t368 148q218 0 370 -149q150 -149 150 -366q0 -219 -151 -367q-152 -147 -373 -147q-219 0 -367 150q-148 148 -148 372zM326 490q0 -146 78 -231q80 -86 211 -86q132 0 211 85t79 227t-79 227q-80 86 -211 86q-129 0 -209 -86t-80 -222zM263 1284
q0 58 42 99q42 42 101 42t101 -42q42 -41 42 -100q0 -60 -42 -102q-44 -41 -101 -41q-60 0 -102 42q-41 44 -41 102zM681 1284q0 58 42 99q43 42 101 42q60 0 101 -42q42 -41 42 -100q0 -60 -42 -102q-44 -41 -101 -41q-59 0 -101 42t-42 102z" />
    <glyph glyph-name="otilde" unicode="&#xf5;" horiz-adv-x="1231" 
d="M96 494q0 211 151 359t368 148q218 0 370 -149q150 -149 150 -366q0 -219 -151 -367q-152 -147 -373 -147q-219 0 -367 150q-148 148 -148 372zM326 490q0 -146 78 -231q80 -86 211 -86q132 0 211 85t79 227t-79 227q-80 86 -211 86q-129 0 -209 -86t-80 -222zM359 1140
l-131 111l29 41q28 40 54 67.5t53 45t56 25t63 7.5q78 0 181 -52q104 -53 134 -53q56 0 124 108l127 -106q-96 -192 -260 -192q-56 0 -183 56q-91 46 -136 46q-55 0 -111 -104z" />
    <glyph glyph-name="uacute" unicode="&#xfa;" horiz-adv-x="1116" 
d="M973 854v-443q0 -115 -29 -202q-28 -76 -97 -137q-114 -99 -290 -99q-175 0 -289 99q-35 31 -60 65t-39 72q-28 68 -28 202v451v1q0 23 9 43.5t24 35.5t35.5 24t44.5 9q23 0 43.5 -9t35.5 -24t24 -35.5t9 -43.5v-1v-445q0 -243 191 -243t191 243v445q0 23 9 43.5t24 36
t35.5 24.5t43.5 9q24 0 44.5 -9t35.5 -24.5t24 -36t9 -43.5v-8zM823 1375q-2 -1 -2 -1.5t-1 -1.5l-224 -203h-1q1 0 0 -1q-12 -15 -28 -22t-33 -8t-33.5 4.5t-31.5 16.5q-13 11 -21 27t-9.5 33t4 33.5t18.5 31.5q4 5 5 7l174 225q2 2 2 3.5t2 3.5q11 13 29 22.5t39.5 12
t44 -3.5t42.5 -23q23 -19 34 -40.5t12.5 -42.5t-4.5 -40t-18 -33z" />
    <glyph glyph-name="ugrave" unicode="&#xf9;" horiz-adv-x="1116" 
d="M973 854v-443q0 -115 -29 -202q-28 -76 -97 -137q-114 -99 -290 -99q-175 0 -289 99q-35 31 -60 65t-39 72q-28 68 -28 202v451v1q0 23 9 43.5t24 35.5t35.5 24t44.5 9q23 0 43.5 -9t35.5 -24t24 -35.5t9 -43.5v-1v-445q0 -243 191 -243t191 243v445q0 23 9 43.5t24 36
t35.5 24.5t43.5 9q24 0 44.5 -9t35.5 -24.5t24 -36t9 -43.5v-8zM287 1361q-12 14 -19 32.5t-6 39.5t11 43t32 42q19 18 41.5 24.5t44 5t40 -10t29.5 -21.5q2 -2 2.5 -3.5t2.5 -3.5l182 -218q1 -2 6 -7q13 -14 19 -30.5t5.5 -33.5t-8 -33t-20.5 -28q-14 -12 -30.5 -18
t-33.5 -5.5t-33 7t-29 20.5q-1 1 0 1h-1l-232 194q-1 1 -1 1.5t-2 1.5z" />
    <glyph glyph-name="ucircumflex" unicode="&#xfb;" horiz-adv-x="1116" 
d="M973 854v-443q0 -115 -29 -202q-28 -76 -97 -137q-114 -99 -290 -99q-175 0 -289 99q-35 31 -60 65t-39 72q-28 68 -28 202v451v1q0 23 9 43.5t24 35.5t35.5 24t44.5 9q23 0 43.5 -9t35.5 -24t24 -35.5t9 -43.5v-1v-445q0 -243 191 -243t191 243v445q0 23 9 43.5t24 36
t35.5 24.5t43.5 9q24 0 44.5 -9t35.5 -24.5t24 -36t9 -43.5v-8zM851 1308q17 -15 26 -35t9 -43q0 -21 -8 -39.5t-21.5 -32t-32 -21.5t-39.5 -8q-23 0 -42 9t-34 24l-105 99q-16 16 -37 17.5t-38 -11.5l-114 -106q-30 -30 -72 -30q-21 0 -39.5 7.5t-32 21t-21.5 31.5t-8 39
q0 26 12 48.5t32 36.5l235 213q17 18 42.5 18t43.5 -18l-1 1l245 -221v0z" />
    <glyph glyph-name="udieresis" unicode="&#xfc;" horiz-adv-x="1116" 
d="M973 854v-443q0 -115 -29 -202q-28 -76 -97 -137q-114 -99 -290 -99q-175 0 -289 99q-35 31 -60 65t-39 72q-28 68 -28 202v451v1q0 23 9 43.5t24 35.5t35.5 24t44.5 9q23 0 43.5 -9t35.5 -24t24 -35.5t9 -43.5v-1v-445q0 -243 191 -243t191 243v445q0 23 9 43.5t24 36
t35.5 24.5t43.5 9q24 0 44.5 -9t35.5 -24.5t24 -36t9 -43.5v-8zM209 1284q0 58 42 99q42 42 101 42t101 -42q42 -41 42 -100q0 -60 -42 -102q-44 -41 -101 -41q-60 0 -102 42q-41 44 -41 102zM627 1284q0 58 42 99q43 42 101 42q60 0 101 -42q42 -41 42 -100q0 -60 -42 -102
q-44 -41 -101 -41q-59 0 -101 42t-42 102z" />
    <glyph glyph-name="germandbls" unicode="&#xdf;" horiz-adv-x="1274" 
d="M142 0v774h-80v200h80v247q0 239 114 361q126 134 347 134q198 0 327 -123q130 -121 130 -309q0 -198 -165 -310q129 -57 206 -182t77 -275q0 -280 -245 -447q-152 -102 -368 -102v216q174 0 277 94q106 94 106 245q0 165 -125 252q-80 54 -258 72v207q134 0 203 62.5
t69 177.5q0 96 -65 158q-64 61 -168 61q-121 0 -176.5 -67.5t-55.5 -212.5l-4 -123v-1110h-226z" />
    <glyph glyph-name="Oslash" unicode="&#xd8;" horiz-adv-x="1828" 
d="M1401 1411l167 170l134 -133l-165 -169q183 -228 183 -511q0 -328 -237 -562t-569 -234q-277 0 -511 177l-166 -165l-128 131l161 166q-162 216 -162 485q0 346 245 579q240 228 567 228q260 0 481 -162zM1238 1257q-145 97 -319 97q-247 0 -412 -169
q-164 -170 -164 -422q0 -165 97 -322zM1372 1126l-803 -819q169 -117 348 -117q236 0 402 169t166 412q0 191 -113 355z" />
    <glyph glyph-name="infinity" unicode="&#x221e;" horiz-adv-x="1544" 
d="M778 636q-163 -214 -372 -214q-161 0 -263 102q-102 103 -102 266q0 158 103 261t262 103q204 0 362 -213q154 213 372 213q162 0 262 -103q102 -102 102 -264q0 -160 -102 -263q-100 -103 -259 -103q-212 0 -365 215zM887 788q111 -170 224 -170q70 0 117 48
q47 50 47 122q0 70 -48 120q-46 49 -117 49q-112 0 -223 -169zM658 788q-109 169 -225 169q-70 0 -116 -49q-47 -50 -47 -120q0 -71 47 -121q48 -49 118 -49q113 0 223 170z" />
    <glyph glyph-name="lessequal" unicode="&#x2264;" 
d="M1081 1478v-220l-758 -342l758 -342v-220l-1004 460v197zM1081 287v-216h-1004v216h1004z" />
    <glyph glyph-name="greaterequal" unicode="&#x2265;" 
d="M77 354v220l758 342l-758 342v220l1004 -468v-197zM77 71v216h1004v-216h-1004z" />
    <glyph glyph-name="ae" unicode="&#xe6;" horiz-adv-x="1701" 
d="M869 900q59 56 127.5 79.5t157.5 23.5q101 0 183.5 -33.5t141.5 -96t91.5 -150t32.5 -195.5q0 -40 -8.5 -62.5t-26 -33t-45 -13t-65.5 -2.5h-21h-492q3 -115 57.5 -176.5t151.5 -61.5q51 0 89.5 11.5t63.5 34.5q18 16 33.5 31.5t31.5 27.5t34 19t40 7q45 0 74 -28t29 -70
q0 -30 -17 -60t-49 -61q-126 -121 -347 -121q-112 0 -193 43t-131 126q-62 -88 -158 -128.5t-233 -40.5q-149 0 -225.5 78.5t-76.5 227.5q0 132 73.5 206t222.5 95q86 12 142.5 18.5t90 16t47 27t13.5 51.5q0 31 -8 52.5t-26.5 35t-49 19t-76.5 5.5q-42 0 -76 -13.5
t-62 -36.5q-16 -14 -30.5 -31t-32 -31.5t-38.5 -24t-50 -9.5q-42 0 -67 27.5t-25 70.5q0 48 27 93t78 79.5t123.5 55.5t163.5 21q100 0 179.5 -27t130.5 -76zM1338 594q0 96 -52.5 149t-145.5 53q-85 0 -137.5 -55t-55.5 -153h391v6zM714 474q-44 -20 -84 -31t-75.5 -18
t-65 -13.5t-51.5 -17.5q-34 -15 -51 -44t-17 -70q0 -55 35.5 -85.5t103.5 -30.5q44 0 81.5 15.5t65 41t43 59.5t15.5 70v124z" />
    <glyph glyph-name="Otilde" unicode="&#xd5;" horiz-adv-x="1830" 
d="M108 779q0 326 239 560q238 234 572 234q330 0 566 -236q237 -236 237 -567q0 -333 -238 -565q-239 -233 -577 -233q-299 0 -537 207q-262 229 -262 600zM343 776q0 -256 172 -421q171 -165 395 -165q243 0 410 168q167 170 167 414q0 247 -165 414q-164 168 -406 168
q-241 0 -407 -168q-166 -166 -166 -410zM611 1699l-131 111l29 41q28 40 54 67.5t53 45t56 25t63 7.5q78 0 181 -52q104 -53 134 -53q56 0 124 108l127 -106q-96 -192 -260 -192q-56 0 -183 56q-91 46 -136 46q-55 0 -111 -104z" />
    <glyph glyph-name="OE" unicode="&#x152;" horiz-adv-x="2424" 
d="M2304 1325h-598v-372h581v-220h-581v-514h598v-219h-831v213q-136 -132 -263 -187q-126 -54 -287 -54q-339 0 -577 232t-238 563q0 303 203 539q231 268 602 268q174 0 294 -58q130 -58 266 -193v221h831v-219zM343 782q0 -247 162 -419t395 -172q239 0 407 168
q168 169 168 408q0 240 -168 413q-167 173 -401 173q-230 0 -396 -169q-167 -170 -167 -402z" />
    <glyph glyph-name="oe" unicode="&#x153;" horiz-adv-x="1952" 
d="M1854 434h-711q8 -114 82 -188q73 -73 183 -73q159 0 258 192l192 -111q-171 -283 -466 -283q-104 0 -216 50q-103 51 -164 136q-158 -185 -402 -185q-212 0 -364 149q-150 148 -150 362q0 219 152 368q151 150 374 150q246 0 390 -189q133 189 370 189q218 0 346 -137
t128 -372zM1618 618q-39 180 -227 180q-181 0 -230 -180h457zM327 490q0 -147 75 -232q76 -85 206 -85q69 0 123 21.5t91.5 62t57 98.5t19.5 132q0 73 -19.5 131t-56.5 98t-90 61t-120 21q-131 0 -209 -84q-77 -83 -77 -224z" />
    <glyph glyph-name="divide" unicode="&#xf7;" horiz-adv-x="1264" 
d="M99 710v186h1065v-186h-1065zM502 459q0 52 38 90q41 38 92 38q53 0 91 -38t38 -92t-38 -92t-91 -38q-54 0 -92 38q-38 41 -38 94zM502 1151q0 52 38 90q41 38 92 38q53 0 91 -38t38 -92t-38 -92t-91 -38q-54 0 -92 38q-38 41 -38 94z" />
    <glyph glyph-name="ydieresis" unicode="&#xff;" horiz-adv-x="1113" 
d="M1027 859q0 -18 -5.5 -34.5t-14.5 -30.5l-645 -1250q-12 -32 -40.5 -53.5t-66.5 -21.5q-24 0 -44.5 9t-36 24.5t-24.5 36t-9 44.5q0 39 22 67l268 503q4 6 7 14t3 12q0 3 -2.5 9t-4.5 11q-4 6 -7 14l-320 580q-10 14 -15.5 30.5t-5.5 35.5q0 24 9 44.5t24.5 36t36 24.5
t44.5 9q35 0 62.5 -19t41.5 -49v1l241 -453q3 -5 9 -12t13 -7q8 0 15 11q4 4 6 11l220 443q13 32 41 52.5t65 20.5q23 0 43.5 -9t36 -24.5t24.5 -36t9 -43.5zM207 1284q0 58 42 99q42 42 101 42t101 -42q42 -41 42 -100q0 -60 -42 -102q-44 -41 -101 -41q-60 0 -102 42
q-41 44 -41 102zM625 1284q0 58 42 99q43 42 101 42q60 0 101 -42q42 -41 42 -100q0 -60 -42 -102q-44 -41 -101 -41q-59 0 -101 42t-42 102z" />
    <glyph glyph-name="Ydieresis" unicode="&#x178;" horiz-adv-x="1229" 
d="M740 685q-8 -14 -9 -24q-1 -6 -1 -11v-533q0 -24 -9.5 -45t-25.5 -37t-37 -25t-45 -9t-45 9.5t-37 25t-25 36.5t-9 45v2v532q-1 3 -2.5 13.5t-7.5 21.5v1l-393 682q-18 27 -18 63q0 24 9 45.5t25 37t37 25t45 9.5q35 0 63.5 -19t42.5 -49l1 1l303 -531l3.5 -3.5t5.5 -4
t7 0t9 8.5l305 530q14 29 42 47.5t63 18.5q24 0 45 -9t37 -25t25 -37t9 -45q0 -31 -13 -54zM251 1844q0 58 42 100t100 42q60 0 101 -42q42 -42 42 -102q0 -59 -42 -101q-41 -42 -100 -42q-60 0 -102 42q-41 44 -41 103zM700 1844q0 58 42 100t101 42t101 -42t42 -102
q0 -59 -42 -101t-101 -42q-60 0 -102 42q-41 44 -41 103z" />
    <glyph glyph-name="divisionslash" unicode="&#x2215;" horiz-adv-x="376" 
d="M576 1571l109 -62l-884 -1534l-109 66z" />
    <glyph glyph-name="Iacute" unicode="&#xcd;" horiz-adv-x="604" 
d="M417 118q0 -24 -9 -45.5t-25 -37.5t-37 -25t-45 -9t-45 10.5t-37 28t-25 39.5t-10 46v1302v3q0 24 9 45.5t24.5 37.5t37 25t45.5 9t45.5 -9.5t37.5 -25.5t25 -37.5t9 -45.5v-2v-1302v-7zM612 1895q-2 -1 -2 -1.5t-2 -1.5l-252 -166h-1q1 0 0 -1q-14 -12 -31 -17t-34 -3.5
t-33 9.5t-28 22q-24 27 -21.5 63.5t31.5 60.5q2 2 4 3.5t3 2.5l206 196q2 2 3 3.5t3 3.5q12 12 31 18t41 5t43.5 -10.5t38.5 -28.5q19 -23 26.5 -45.5t6 -43.5t-10.5 -39t-22 -30z" />
    <glyph glyph-name="Icircumflex" unicode="&#xce;" horiz-adv-x="604" 
d="M590 1862q17 -15 26 -35t9 -43q0 -21 -8 -39.5t-21.5 -32t-32 -21.5t-39.5 -8q-23 0 -42 9t-34 24l-105 99q-16 16 -37 17.5t-38 -11.5l-114 -106q-30 -30 -72 -30q-21 0 -39.5 7.5t-32 21t-21.5 31.5t-8 39q0 26 12 48.5t32 36.5l235 213q17 18 42.5 18t43.5 -18l-1 1z
M417 118q0 -24 -9 -45.5t-25 -37.5t-37 -25t-45 -9t-45 10.5t-37 28t-25 39.5t-10 46v1302v3q0 24 9 45.5t24.5 37.5t37 25t45.5 9t45.5 -9.5t37.5 -25.5t25 -37.5t9 -45.5v-2v-1302v-7z" />
    <glyph glyph-name="Idieresis" unicode="&#xcf;" horiz-adv-x="604" 
d="M417 118q0 -24 -9 -45.5t-25 -37.5t-37 -25t-45 -9t-45 10.5t-37 28t-25 39.5t-10 46v1302v3q0 24 9 45.5t24.5 37.5t37 25t45.5 9t45.5 -9.5t37.5 -25.5t25 -37.5t9 -45.5v-2v-1302v-7zM-29 1844q0 56 41 100q42 42 101 42t101 -42t42 -102q0 -59 -42 -101t-101 -42
q-61 0 -101 42q-41 44 -41 103zM348 1844q0 58 42 100q43 42 101 42q59 0 101 -42t42 -102q0 -59 -42 -101t-101 -42t-101 42t-42 103z" />
    <glyph glyph-name="Igrave" unicode="&#xcc;" horiz-adv-x="604" 
d="M417 118q0 -24 -9 -45.5t-25 -37.5t-37 -25t-45 -9t-45 10.5t-37 28t-25 39.5t-10 46v1302v3q0 24 9 45.5t24.5 37.5t37 25t45.5 9t45.5 -9.5t37.5 -25.5t25 -37.5t9 -45.5v-2v-1302v-7zM-6 1895q-14 12 -22.5 30t-10 39t6 43.5t26.5 45.5q17 19 38.5 28.5t43.5 10.5
t41 -5t31 -18q2 -2 3 -3.5t3 -3.5l206 -196q1 -1 3 -2.5t4 -3.5q29 -24 31.5 -60.5t-21.5 -63.5q-12 -14 -28 -22t-33 -9.5t-34 3.5t-31 17q-1 1 0 1h-1l-252 166q-2 1 -2 1.5t-2 1.5z" />
    <glyph glyph-name="Oacute" unicode="&#xd3;" horiz-adv-x="1830" 
d="M1182 1895q-2 -1 -2 -1.5t-2 -1.5l-252 -166h-1q1 0 0 -1q-14 -12 -31 -17t-34 -3.5t-33 9.5t-28 22q-24 27 -21.5 63.5t31.5 60.5q2 2 4 3.5t3 2.5l206 196q2 2 3 3.5t3 3.5q12 12 31 18t41 5t43.5 -10.5t38.5 -28.5q19 -23 26.5 -45.5t6 -43.5t-10.5 -39t-22 -30z
M108 779q0 326 239 560q238 234 572 234q330 0 566 -236q237 -236 237 -567q0 -333 -238 -565q-239 -233 -577 -233q-299 0 -537 207q-262 229 -262 600zM343 776q0 -256 172 -421q171 -165 395 -165q243 0 410 168q167 170 167 414q0 247 -165 414q-164 168 -406 168
q-241 0 -407 -168q-166 -166 -166 -410z" />
    <glyph glyph-name="Ocircumflex" unicode="&#xd4;" horiz-adv-x="1830" 
d="M108 779q0 326 239 560q238 234 572 234q330 0 566 -236q237 -236 237 -567q0 -333 -238 -565q-239 -233 -577 -233q-299 0 -537 207q-262 229 -262 600zM343 776q0 -256 172 -421q171 -165 395 -165q243 0 410 168q167 170 167 414q0 247 -165 414q-164 168 -406 168
q-241 0 -407 -168q-166 -166 -166 -410zM1208 1862q17 -15 26 -35t9 -43q0 -21 -8 -39.5t-21.5 -32t-32 -21.5t-39.5 -8q-23 0 -42 9t-34 24l-105 99q-16 16 -37 17.5t-38 -11.5l-114 -106q-30 -30 -72 -30q-21 0 -39.5 7.5t-32 21t-21.5 31.5t-8 39q0 26 12 48.5t32 36.5
l235 213q17 18 42.5 18t43.5 -18l-1 1l245 -221v0z" />
    <glyph glyph-name="Ograve" unicode="&#xd2;" horiz-adv-x="1830" 
d="M108 779q0 326 239 560q238 234 572 234q330 0 566 -236q237 -236 237 -567q0 -333 -238 -565q-239 -233 -577 -233q-299 0 -537 207q-262 229 -262 600zM343 776q0 -256 172 -421q171 -165 395 -165q243 0 410 168q167 170 167 414q0 247 -165 414q-164 168 -406 168
q-241 0 -407 -168q-166 -166 -166 -410zM663 1895q-14 12 -22.5 30t-10 39t6 43.5t26.5 45.5q17 19 38.5 28.5t43.5 10.5t41 -5t31 -18q2 -2 3 -3.5t3 -3.5l206 -196q1 -1 3 -2.5t4 -3.5q29 -24 31.5 -60.5t-21.5 -63.5q-12 -14 -28 -22t-33 -9.5t-34 3.5t-31 17q-1 1 0 1
h-1l-252 166q-2 1 -2 1.5t-2 1.5z" />
    <glyph glyph-name="Uacute" unicode="&#xda;" horiz-adv-x="1513" 
d="M1338 1433v-886q0 -244 -154 -406q-170 -176 -423 -176t-423 176q-153 160 -153 406v886q0 24 9.5 45t25.5 37t37 25t45 9t45.5 -9t37.5 -25t25.5 -37t9.5 -45v-821q0 -199 65 -293q99 -134 276 -134q179 0 275 134q67 89 67 293v821q0 24 9 45t25 37t37 25t45 9
q25 0 46.5 -9t37.5 -25t25 -37t9 -45h1zM1110 1959l-408 -276l-111 93l321 322z" />
    <glyph glyph-name="Ucircumflex" unicode="&#xdb;" horiz-adv-x="1513" 
d="M1040 1862q17 -15 26 -35t9 -43q0 -21 -8 -39.5t-21.5 -32t-32 -21.5t-39.5 -8q-23 0 -42 9t-34 24l-105 99q-16 16 -37 17.5t-38 -11.5l-114 -106q-30 -30 -72 -30q-21 0 -39.5 7.5t-32 21t-21.5 31.5t-8 39q0 26 12 48.5t32 36.5l235 213q17 18 42.5 18t43.5 -18l-1 1z
M1338 1433v-886q0 -244 -154 -406q-170 -176 -423 -176t-423 176q-153 160 -153 406v886q0 24 9.5 45t25.5 37t37 25t45 9t45.5 -9t37.5 -25t25.5 -37t9.5 -45v-821q0 -199 65 -293q99 -134 276 -134q179 0 275 134q67 89 67 293v821q0 24 9 45t25 37t37 25t45 9
q25 0 46.5 -9t37.5 -25t25 -37t9 -45h1z" />
    <glyph glyph-name="Ugrave" unicode="&#xd9;" horiz-adv-x="1513" 
d="M1338 1433v-886q0 -244 -154 -406q-170 -176 -423 -176t-423 176q-153 160 -153 406v886q0 24 9.5 45t25.5 37t37 25t45 9t45.5 -9t37.5 -25t25.5 -37t9.5 -45v-821q0 -199 65 -293q99 -134 276 -134q179 0 275 134q67 89 67 293v821q0 24 9 45t25 37t37 25t45 9
q25 0 46.5 -9t37.5 -25t25 -37t9 -45h1zM501 1895q-14 12 -22.5 30t-10 39t6 43.5t26.5 45.5q17 19 38.5 28.5t43.5 10.5t41 -5t31 -18q2 -2 3 -3.5t3 -3.5l206 -196q1 -1 3 -2.5t4 -3.5q29 -24 31.5 -60.5t-21.5 -63.5q-12 -14 -28 -22t-33 -9.5t-34 3.5t-31 17q-1 1 0 1
h-1l-252 166q-2 1 -2 1.5t-2 1.5z" />
    <glyph glyph-name="circumflex" unicode="&#x2c6;" 
d="M869 1308q17 -15 26 -35t9 -43q0 -21 -8 -39.5t-21.5 -32t-32 -21.5t-39.5 -8q-23 0 -42 9t-34 24l-105 99q-16 16 -37 17.5t-38 -11.5l-114 -106q-30 -30 -72 -30q-21 0 -39.5 7.5t-32 21t-21.5 31.5t-8 39q0 26 12 48.5t32 36.5l235 213q17 18 42.5 18t43.5 -18l-1 1
l245 -221v0z" />
    <glyph glyph-name="tilde" unicode="&#x2dc;" 
d="M300 1140l-131 111l29 41q28 40 54 67.5t53 45t56 25t63 7.5q78 0 181 -52q104 -53 134 -53q56 0 124 108l127 -106q-96 -192 -260 -192q-56 0 -183 56q-91 46 -136 46q-55 0 -111 -104z" />
    <glyph glyph-name="breve" unicode="&#x2d8;" 
d="M221 1462h185q22 -157 174 -157q151 0 173 157h185q-15 -166 -106.5 -250.5t-256.5 -84.5q-153 0 -248 89q-94 88 -106 246z" />
    <glyph glyph-name="dotaccent" unicode="&#x2d9;" 
d="M428 1292q0 60 44 104q47 44 107 44q62 0 106 -44q45 -44 45 -106q0 -63 -45 -106q-44 -44 -106 -44q-63 0 -107 44t-44 108z" />
    <glyph glyph-name="ring" unicode="&#x2da;" 
d="M392 1345q0 88 64 151q64 64 153 64q91 0 154 -64q64 -64 64 -154t-64 -154q-63 -64 -153 -64q-91 0 -155 64q-63 64 -63 157zM511 1343q0 -43 28.5 -71.5t70.5 -28.5t70.5 28.5t28.5 70.5t-28.5 70.5t-70.5 28.5q-21 0 -39 -8t-31.5 -21.5t-21 -31.5t-7.5 -37z" />
    <glyph glyph-name="hungarumlaut" unicode="&#x2dd;" 
d="M726 1454l-334 -330l-99 76l244 364zM1143 1454l-334 -330l-99 76l243 364z" />
    <glyph glyph-name="ogonek" unicode="&#x2db;" horiz-adv-x="1332" 
d="M662 0h196q-194 -129 -194 -224q0 -82 101 -82q29 0 64.5 5t80.5 15l-23 -166q-79 -49 -172 -49q-110 0 -183 61q-73 58 -73 151q0 90 46 151q46 66 157 138z" />
    <glyph glyph-name="caron" unicode="&#x2c7;" 
d="M933 1445l-351 -321l-356 321l154 119l201 -190l200 190z" />
    <glyph glyph-name="Scaron" unicode="&#x160;" horiz-adv-x="1194" 
d="M1016 732q86 -107 86 -268q0 -212 -141 -352q-143 -140 -354 -140q-202 0 -332 120q-88 80 -131 207h1q-7 17 -7 38q0 24 9.5 45.5t25.5 37.5t37.5 25.5t45.5 9.5q42 0 73 -25t41 -63q15 -51 35 -76q72 -100 210 -100q109 0 181 73t72 185q0 44 -12 82q-6 19 -16 36
t-23 33q-14 16 -31 30.5t-38 28.5t-46 27t-54 25l-148 62q-316 133 -316 392q0 173 132 290q133 118 331 118q195 0 328 -139q19 -16 30 -37.5t11 -47.5q0 -23 -8.5 -43t-23.5 -35t-35 -23.5t-42 -8.5q-26 0 -48.5 11t-37.5 31q-12 14 -23.5 24t-23.5 17q-50 32 -128 32
q-99 0 -161 -55q-64 -54 -64 -136q0 -113 167 -182l154 -63q188 -77 274 -186zM335 1939q-35 32 -35 78q0 21 8 39.5t21.5 32t32 21.5t39.5 8q23 0 42 -9t34 -24l105 -99q16 -16 37 -17.5t38 11.5l114 106q30 30 72 30q21 0 39.5 -7.5t32 -21t21.5 -31.5t8 -39
q0 -26 -12 -48.5t-32 -36.5l-235 -213q-17 -18 -42.5 -18t-43.5 18l1 -1l-245 221v0z" />
    <glyph glyph-name="Zcaron" unicode="&#x17d;" horiz-adv-x="1280" 
d="M1087 220q22 -1 41.5 -9.5t34 -23.5t23 -35t8.5 -42q0 -23 -8.5 -42.5t-23.5 -34.5t-35 -23.5t-42 -8.5h-2h-803v1q-4 -1 -8 0q-7 0 -20 5q-37 11 -61 41.5t-24 70.5q0 12 2 25t8 31.5t18.5 43.5t33.5 61l579 1011q6 10 6 17t-3.5 10.5t-8.5 5t-9 1.5h-482h-8
q-23 0 -43 8.5t-35 23.5t-23.5 35t-8.5 43q0 22 8.5 42t23.5 35t35 23.5t43 8.5v1h766q38 -3 61 -17q10 -6 17 -15.5t9 -23t-2.5 -32t-17.5 -42.5q-3 -4 -5 -7.5t-4 -7.5l-656 -1148q-1 -3 -2 -8.5t1 -10.5t8 -9t19 -4q1 0 1 0.5t2 -0.5h587v0zM400 1935q-35 32 -35 78
q0 21 8 39.5t21.5 32t32 21.5t39.5 8q23 0 42 -9t34 -24l105 -99q16 -16 37 -17.5t38 11.5l114 106q30 30 72 30q21 0 39.5 -7.5t32 -21t21.5 -31.5t8 -39q0 -26 -12 -48.5t-32 -36.5l-235 -213q-17 -18 -42.5 -18t-43.5 18l1 -1l-245 221v0z" />
    <glyph glyph-name="scaron" unicode="&#x161;" horiz-adv-x="831" 
d="M772 1445l-351 -321l-356 321l154 119l201 -190l200 190zM708 473q63 -65 63 -173q0 -141 -106 -236q-101 -90 -244 -90q-172 0 -277 123h1q-24 27 -24 68q0 22 8.5 42t22.5 34t33.5 22.5t42.5 8.5q26 0 48.5 -11.5t37.5 -31.5v1q9 -13 15 -17q20 -18 43.5 -28t52.5 -10
q114 0 114 104q0 60 -87 111q-17 8 -34 16.5t-34 17.5q-17 8 -33.5 16t-34.5 16q-100 49 -137 97q-51 60 -51 156q0 127 86 210q89 82 215 82q56 0 104 -17.5t86 -52.5q18 -14 29 -35.5t11 -46.5q0 -23 -8.5 -42.5t-22.5 -33.5t-33.5 -22.5t-41.5 -8.5t-41 7.5t-33 21.5
q-30 27 -67 27q-29 0 -51 -20q-21 -20 -21 -52q0 -58 128 -111q90 -38 149 -74t91 -68z" />
    <glyph glyph-name="zcaron" unicode="&#x17e;" horiz-adv-x="1113" 
d="M264 -4q-35 -3 -61 5q-23 7 -41.5 24.5t-18.5 53.5q0 38 10.5 68t24.5 51q15 25 35 44h-1l349 422q12 17 22 37t10 36q0 9 -6.5 14t-14.5 7q-9 3 -20 4h-304v1q-22 0 -41 8.5t-33.5 22.5t-22.5 33.5t-8 40.5q0 22 8 41t22.5 33t33.5 22.5t41 8.5h616q12 0 27 -6.5
t27.5 -18t21 -28t8.5 -36.5q0 -28 -5 -49.5t-12 -38t-15.5 -29t-15.5 -22.5l-17 -21l-2 -1v-1l-337 -409q-11 -14 -20 -28q-8 -12 -14 -26.5t-6 -25.5q0 -16 13.5 -20.5t24.5 -5.5h295h6q45 0 75.5 -30t30.5 -75t-30.5 -75.5t-75.5 -30.5h-1h-578zM957 1445l-351 -321
l-356 321l154 119l201 -190l200 190z" />
    <glyph glyph-name="Lslash" unicode="&#x141;" horiz-adv-x="908" 
d="M419 956l298 197v-231l-298 -197v-506h454v-219h-687v600l-147 -98v232l147 98v712h233v-588z" />
    <glyph glyph-name="lslash" unicode="&#x142;" horiz-adv-x="611" 
d="M565 1081v-224l-147 -102v-755h-225v643l-147 -103v224l147 103v822h225v-710z" />
    <glyph glyph-name="Eth" unicode="&#xd0;" horiz-adv-x="1487" 
d="M185 0v703h-139v200h139v641h324q233 0 368 -46q145 -45 263 -153q239 -218 239 -573q0 -356 -249 -576q-125 -110 -262 -153q-128 -43 -363 -43h-320zM418 219h105q157 0 261 33q104 34 188 110q172 157 172 409q0 255 -170 413q-153 141 -451 141h-105v-422h332v-200
h-332v-484z" />
    <glyph glyph-name="eth" unicode="&#xf0;" horiz-adv-x="1231" 
d="M127 1566l92 140q67 -23 137.5 -57t145.5 -80l45 -27l236 124l79 -130l-187 -100q216 -200 338 -448q122 -255 122 -484q0 -231 -146 -383q-146 -149 -370 -149q-222 0 -373 147q-150 147 -150 364q0 218 150 367q152 149 372 149q82 0 157 -22q-61 109 -131 200.5
t-151 166.5l-240 -129l-73 131l190 100q-27 16 -36 21l-72 36l-81 42q-12 6 -54 21zM326 489q0 -145 78 -230q80 -86 211 -86q132 0 211 85t79 227q0 141 -79 226q-80 86 -211 86q-129 0 -209 -86t-80 -222z" />
    <glyph glyph-name="Yacute" unicode="&#xdd;" horiz-adv-x="1229" 
d="M740 685q-8 -14 -9 -24q-1 -6 -1 -11v-533q0 -24 -9.5 -45t-25.5 -37t-37 -25t-45 -9t-45 9.5t-37 25t-25 36.5t-9 45v2v532q-1 3 -2.5 13.5t-7.5 21.5v1l-393 682q-18 27 -18 63q0 24 9 45.5t25 37t37 25t45 9.5q35 0 63.5 -19t42.5 -49l1 1l303 -531l3.5 -3.5t5.5 -4
t7 0t9 8.5l305 530q14 29 42 47.5t63 18.5q24 0 45 -9t37 -25t25 -37t9 -45q0 -31 -13 -54zM1019 1959l-408 -276l-111 93l321 322z" />
    <glyph glyph-name="yacute" unicode="&#xfd;" horiz-adv-x="1113" 
d="M1027 859q0 -18 -5.5 -34.5t-14.5 -30.5l-645 -1250q-12 -32 -40.5 -53.5t-66.5 -21.5q-24 0 -44.5 9t-36 24.5t-24.5 36t-9 44.5q0 39 22 67l268 503q4 6 7 14t3 12q0 3 -2.5 9t-4.5 11q-4 6 -7 14l-320 580q-10 14 -15.5 30.5t-5.5 35.5q0 24 9 44.5t24.5 36t36 24.5
t44.5 9q35 0 62.5 -19t41.5 -49v1l241 -453q3 -5 9 -12t13 -7q8 0 15 11q4 4 6 11l220 443q13 32 41 52.5t65 20.5q23 0 43.5 -9t36 -24.5t24.5 -36t9 -43.5zM852 1375q-2 -1 -2 -1.5t-1 -1.5l-224 -203h-1q1 0 0 -1q-12 -15 -28 -22t-33 -8t-33.5 4.5t-31.5 16.5
q-13 11 -21 27t-9.5 33t4 33.5t18.5 31.5q4 5 5 7l174 225q2 2 2 3.5t2 3.5q11 13 29 22.5t39.5 12t44 -3.5t42.5 -23q23 -19 34 -40.5t12.5 -42.5t-4.5 -40t-18 -33z" />
    <glyph glyph-name="Thorn" unicode="&#xde;" horiz-adv-x="1106" 
d="M418 411v-411h-233v1544h233v-216h31q203 0 293 -28q97 -25 176 -101q133 -130 133 -329q0 -211 -142 -335t-383 -124h-108zM418 627h87q321 0 321 247q0 239 -331 239h-77v-486z" />
    <glyph glyph-name="thorn" unicode="&#xfe;" horiz-adv-x="1228" 
d="M367 -530h-225v2219h225v-821q133 133 302 133q201 0 331 -148q132 -147 132 -371q0 -219 -131 -365q-130 -145 -328 -145q-171 0 -306 137v-639zM902 481q0 140 -76 228q-77 89 -194 89q-124 0 -201 -86t-77 -226q0 -137 77 -226q76 -87 200 -87q117 0 193 88
q78 88 78 220z" />
    <glyph glyph-name="minus" unicode="&#x2212;" horiz-adv-x="1313" 
d="M124 710v186h1065v-186h-1065z" />
    <glyph glyph-name="multiply" unicode="&#xd7;" horiz-adv-x="1264" 
d="M175 1133l127 127l329 -330l330 330l127 -127l-330 -330l330 -330l-127 -126l-330 329l-329 -329l-127 126l330 330z" />
    <glyph glyph-name="Gbreve" unicode="&#x11e;" horiz-adv-x="1725" 
d="M1469 1352q8 -8 10.5 -13t6.5 -3q13 -16 18 -33t5 -38q0 -23 -9 -43.5t-24.5 -35.5t-36 -24t-43.5 -9q-20 0 -36.5 3.5t-31.5 17.5v1q-172 181 -404 181q-244 0 -413 -169q-167 -169 -167 -419q0 -259 186 -427q174 -156 377 -156q172 0 310 117q122 104 149 246
q1 9 -4 21.5t-27 12.5h-240v1h-1q-23 0 -43 8.5t-35 23.5t-23.5 35t-8.5 43q0 22 8.5 42t23.5 35t35 23.5t43 8.5h12h462q23 0 39 -15.5t18 -37.5q0 -173 -41 -307q-40 -125 -136 -233q-216 -244 -549 -244q-325 0 -558 235q-232 236 -232 567q0 337 237 573
q236 236 574 236q180 0 340 -74q26 -13 61 -37.5t67.5 -48.5t55.5 -43t25 -21zM535 2026h185q23 -158 174 -158q150 0 173 158h185q-15 -167 -106.5 -251t-256.5 -84q-153 0 -248 89q-94 88 -106 246z" />
    <glyph glyph-name="gbreve" unicode="&#x11f;" horiz-adv-x="1226" 
d="M1083 864q0 -2 0.5 -3.5t0.5 -2.5v-835q0 -35 -1.5 -65t-3.5 -56q-5 -53 -12 -93q-26 -110 -94 -189q-132 -152 -363 -152q-196 0 -321 106q-68 56 -106 135q-13 26 -13 53q0 23 9 43.5t24 35.5t35.5 24t43.5 9q37 0 65.5 -21.5t39.5 -55.5q5 -10 10 -18.5t11 -16.5
q69 -90 204 -90q247 0 247 302v77l-1 1q0 21 -8.5 24.5t-19.5 -0.5q-12 -4 -28 -17h-1q-113 -86 -252 -86q-199 0 -325 144q-128 146 -128 365q0 211 119 362q128 158 338 158q183 0 306 -138q0 23 9 43.5t24.5 35.5t36 23.5t43.5 8.5t43.5 -8.5t35.5 -23.5t23.5 -35.5
t8.5 -43.5zM800 268q69 84 69 218q0 140 -76 225q-78 87 -197 87q-129 0 -202 -94q-67 -85 -67 -220q0 -132 67 -217q73 -93 202 -93q128 0 204 94zM244 1462h185q22 -157 174 -157q151 0 173 157h185q-15 -166 -106.5 -250.5t-256.5 -84.5q-153 0 -248 89q-94 88 -106 246z
" />
    <glyph glyph-name="Idotaccent" unicode="&#x130;" horiz-adv-x="604" 
d="M417 118q0 -24 -9 -45.5t-25 -37.5t-37 -25t-45 -9t-45 10.5t-37 28t-25 39.5t-10 46v1302v3q0 24 9 45.5t24.5 37.5t37 25t45.5 9t45.5 -9.5t37.5 -25.5t25 -37.5t9 -45.5v-2v-1302v-7zM151 1851q0 61 44 105q47 44 107 44q62 0 106 -44q45 -44 45 -106q0 -64 -45 -107
q-44 -44 -106 -44q-63 0 -107 44q-44 47 -44 108z" />
    <glyph glyph-name="Scommaaccent" unicode="&#x218;" horiz-adv-x="1194" 
d="M1058 1314l-189 -112q-53 92 -101 120q-50 32 -129 32q-97 0 -161 -55q-64 -54 -64 -136q0 -113 168 -182l154 -63q188 -76 275 -185.5t87 -268.5q0 -213 -142 -352q-143 -140 -355 -140q-201 0 -332 119q-129 119 -161 335l236 52q16 -136 56 -188q72 -100 210 -100
q109 0 181 73t72 185q0 45 -12.5 82.5t-39 69t-68.5 59t-100 52.5l-149 62q-317 134 -317 392q0 174 133 291q133 118 331 118q267 0 417 -260zM801 -211l-262 -308l-146 77l211 319z" />
    <glyph glyph-name="Cacute" unicode="&#x106;" horiz-adv-x="1435" 
d="M1185 260q41 14 82 1t61 -51q11 -21 12.5 -43.5t-5.5 -43t-21.5 -37.5t-35.5 -28q-4 -2 -7 -4t-7 -4q-76 -37 -156.5 -56t-161.5 -21q-10 0 -19 -0.5t-18 -0.5q-332 0 -566 231q-232 233 -232 563q0 295 195 526q239 283 621 283q173 0 340 -79q2 -2 6.5 -4t8.5 -4
q21 -11 35 -28.5t21 -38t5.5 -42.5t-11.5 -43q-10 -19 -26 -32t-35.5 -19.5t-40.5 -6.5t-41 8q-5 2 -12 5q-6 2 -14 5t-17 8q-58 26 -116.5 39t-118.5 13q-239 0 -401 -171q-164 -170 -164 -417q0 -243 164 -410t402 -167q17 0 34 1t34 3q41 5 81 17t81 29q9 4 17 8t14 6
q7 3 12 5zM1221 1959l-408 -276l-111 93l321 322z" />
    <glyph glyph-name="cacute" unicode="&#x107;" horiz-adv-x="976" 
d="M796 214q22 0 41 -8.5t33 -23t22 -33.5t8 -41q0 -35 -20.5 -62t-52.5 -37q-101 -39 -200 -39q-227 0 -381 147q-153 148 -153 366t155 369q154 151 380 151q104 0 200 -36q31 -11 51.5 -38t20.5 -63q0 -22 -8.5 -41.5t-22.5 -34t-33.5 -23t-41.5 -8.5q-26 0 -50 13
q-55 26 -123 26q-128 0 -212 -87q-84 -90 -84 -225q0 -139 81 -226q84 -87 211 -87q75 0 134 31q22 10 45 10zM822 1375q-2 -1 -2 -1.5t-1 -1.5l-224 -203h-1q1 0 0 -1q-12 -15 -28 -22t-33 -8t-33.5 4.5t-31.5 16.5q-13 11 -21 27t-9.5 33t4 33.5t18.5 31.5q4 5 5 7
l174 225q2 2 2 3.5t2 3.5q11 13 29 22.5t39.5 12t44 -3.5t42.5 -23q23 -19 34 -40.5t12.5 -42.5t-4.5 -40t-18 -33z" />
    <glyph glyph-name="Ccaron" unicode="&#x10c;" horiz-adv-x="1435" 
d="M1185 260q41 14 82 1t61 -51q11 -21 12.5 -43.5t-5.5 -43t-21.5 -37.5t-35.5 -28q-4 -2 -7 -4t-7 -4q-76 -37 -156.5 -56t-161.5 -21q-10 0 -19 -0.5t-18 -0.5q-332 0 -566 231q-232 233 -232 563q0 295 195 526q239 283 621 283q173 0 340 -79q2 -2 6.5 -4t8.5 -4
q21 -11 35 -28.5t21 -38t5.5 -42.5t-11.5 -43q-10 -19 -26 -32t-35.5 -19.5t-40.5 -6.5t-41 8q-5 2 -12 5q-6 2 -14 5t-17 8q-58 26 -116.5 39t-118.5 13q-239 0 -401 -171q-164 -170 -164 -417q0 -243 164 -410t402 -167q17 0 34 1t34 3q41 5 81 17t81 29q9 4 17 8t14 6
q7 3 12 5zM600 1935q-35 32 -35 78q0 21 8 39.5t21.5 32t32 21.5t39.5 8q23 0 42 -9t34 -24l105 -99q16 -16 37 -17.5t38 11.5l114 106q30 30 72 30q21 0 39.5 -7.5t32 -21t21.5 -31.5t8 -39q0 -26 -12 -48.5t-32 -36.5l-235 -213q-17 -18 -42.5 -18t-43.5 18l1 -1l-245 221
v0z" />
    <glyph glyph-name="ccaron" unicode="&#x10d;" horiz-adv-x="976" 
d="M796 214q22 0 41 -8.5t33 -23t22 -33.5t8 -41q0 -35 -20.5 -62t-52.5 -37q-101 -39 -200 -39q-227 0 -381 147q-153 148 -153 366t155 369q154 151 380 151q104 0 200 -36q31 -11 51.5 -38t20.5 -63q0 -22 -8.5 -41.5t-22.5 -34t-33.5 -23t-41.5 -8.5q-26 0 -50 13
q-55 26 -123 26q-128 0 -212 -87q-84 -90 -84 -225q0 -139 81 -226q84 -87 211 -87q75 0 134 31q22 10 45 10zM921 1445l-351 -321l-356 321l154 119l201 -190l200 190z" />
    <glyph glyph-name="Dieresis" horiz-adv-x="1517" 
d="M406 1844q0 58 42 100t100 42q60 0 101 -42q42 -42 42 -102q0 -59 -42 -101q-41 -42 -100 -42q-60 0 -102 42q-41 44 -41 103zM855 1844q0 58 42 100t101 42t101 -42t42 -102q0 -59 -42 -101t-101 -42q-60 0 -102 42q-41 44 -41 103z" />
    <glyph glyph-name="Grave" horiz-adv-x="1517" 
d="M489 1895q-14 12 -22.5 30t-10 39t6 43.5t26.5 45.5q17 19 38.5 28.5t43.5 10.5t41 -5t31 -18q2 -2 3 -3.5t3 -3.5l206 -196q1 -1 3 -2.5t4 -3.5q29 -24 31.5 -60.5t-21.5 -63.5q-12 -14 -28 -22t-33 -9.5t-34 3.5t-31 17q-1 1 0 1h-1l-252 166q-2 1 -2 1.5t-2 1.5z" />
    <glyph glyph-name="judge" horiz-adv-x="1435" 
d="M1010 -211l-262 -308l-146 77l210 319z" />
    <glyph glyph-name="up" horiz-adv-x="604" 
d="M612 1895q-2 -1 -2 -1.5t-2 -1.5l-252 -166h-1q1 0 0 -1q-14 -12 -31 -17t-34 -3.5t-33 9.5t-28 22q-24 27 -21.5 63.5t31.5 60.5q2 2 4 3.5t3 2.5l206 196q2 2 3 3.5t3 3.5q12 12 31 18t41 5t43.5 -10.5t38.5 -28.5q19 -23 26.5 -45.5t6 -43.5t-10.5 -39t-22 -30z" />
    <glyph glyph-name="oak" horiz-adv-x="604" 
d="M-6 1895q-14 12 -22.5 30t-10 39t6 43.5t26.5 45.5q17 19 38.5 28.5t43.5 10.5t41 -5t31 -18q2 -2 3 -3.5t3 -3.5l206 -196q1 -1 3 -2.5t4 -3.5q29 -24 31.5 -60.5t-21.5 -63.5q-12 -14 -28 -22t-33 -9.5t-34 3.5t-31 17q-1 1 0 1h-1l-252 166q-2 1 -2 1.5t-2 1.5z" />
    <glyph glyph-name="uniE770" horiz-adv-x="510" 
d="M-68 1284q0 58 42 99q40 42 100 42q59 0 101 -42q42 -41 42 -100q0 -60 -42 -102q-44 -41 -101 -41q-61 0 -101 42q-41 44 -41 102zM294 1284q0 58 42 99q42 42 101 42t101 -42q42 -41 42 -100q0 -60 -42 -102q-44 -41 -101 -41q-60 0 -102 42q-41 44 -41 102z" />
    <glyph glyph-name="uniE773" horiz-adv-x="510" 
d="M553 1403q-2 -1 -1.5 -1.5t-1.5 -2.5l-201 -225h-1q1 0 0 -1q-21 -31 -57.5 -36.5t-66.5 14.5q-15 10 -24.5 25t-12.5 31.5t0.5 34t14.5 32.5q2 2 3 4t2 3l148 243q2 2 2 4t2 4q9 14 26 25t38 15.5t44.5 1.5t44.5 -18q24 -17 37.5 -37t17.5 -41t0 -40.5t-14 -34.5z" />
    <glyph glyph-name="uniE774" horiz-adv-x="510" 
d="M-45 1403q-10 15 -14 34.5t0 40.5t17.5 41t37.5 37q21 15 44.5 18t44.5 -1.5t38 -15.5t26 -25q2 -2 2 -4t2 -4l148 -243q1 -1 2 -3t3 -4q11 -15 14.5 -32.5t0.5 -34t-12.5 -31.5t-24.5 -25q-30 -20 -66.5 -14.5t-57.5 36.5q-1 1 0 1h-1l-201 225q-2 2 -1.5 2.5t-1.5 1.5z
" />
    <glyph glyph-name="uniE772" horiz-adv-x="510" 
d="M541 1318q17 -15 26 -35t9 -43q0 -21 -8 -39.5t-21.5 -32t-32 -21.5t-39.5 -8q-23 0 -42 9t-34 24l-105 99q-16 16 -37 17.5t-38 -11.5l-114 -106q-30 -30 -72 -30q-21 0 -39.5 7.5t-32 21t-21.5 31.5t-8 39q0 26 12 48.5t32 36.5l235 213q17 18 42.5 18t43.5 -18l-1 1
l245 -221v0z" />
    <glyph glyph-name="bulletoperator" unicode="&#x2219;" horiz-adv-x="632" 
d="M177 773q0 56 41 97t98 41t98 -41t41 -98q0 -58 -41 -99q-40 -40 -98 -40q-59 0 -99 40t-40 100z" />
    <glyph glyph-name="Euro" unicode="&#x20ac;" horiz-adv-x="1264" 
d="M293 855q-23 2 -39 19t-13 46q39 200 182 371q198 233 476 276h1q4 2 8 2h14q23 0 43.5 -8.5t35.5 -23.5t23.5 -35.5t8.5 -43.5q0 -21 -7.5 -40t-20.5 -33.5t-30.5 -24t-38.5 -12.5q-176 -29 -306 -165q-22 -23 -40.5 -46t-34.5 -49q-12 -22 -14.5 -35t0 -20t7.5 -9t8 -2
h269q2 0 3 -0.5t2 -0.5q35 0 58.5 -24t23.5 -59q0 -34 -22.5 -58t-56.5 -25h-4h-536zM935 195q42 -5 70 -36.5t28 -74.5q0 -23 -9 -43t-24 -35t-35 -24t-43 -9q-13 0 -25 3q-249 39 -434 223q-175 174 -222 408q-1 28 16 44t40 16h525q2 0 4 -0.5t4 -0.5q35 0 58.5 -23.5
t23.5 -58.5t-23 -58.5t-58 -23.5q-1 0 -1 -0.5t-1 -0.5h-2h-266h-3q-12 0 -15.5 -6t-2 -15t6 -18l7.5 -15q31 -50 76 -92q130 -133 305 -160z" />
    <glyph glyph-name="wonmonospace" horiz-adv-x="1024" 
 />
    <glyph glyph-name="Scedilla" unicode="&#x15e;" horiz-adv-x="1194" 
d="M1016 732q86 -107 86 -268q0 -212 -141 -352q-143 -140 -354 -140q-202 0 -332 120q-88 80 -131 207h1q-7 17 -7 38q0 24 9.5 45.5t25.5 37.5t37.5 25.5t45.5 9.5q42 0 73 -25t41 -63q15 -51 35 -76q72 -100 210 -100q109 0 181 73t72 185q0 44 -12 82q-6 19 -16 36
t-23 33q-14 16 -31 30.5t-38 28.5t-46 27t-54 25l-148 62q-316 133 -316 392q0 173 132 290q133 118 331 118q195 0 328 -139q19 -16 30 -37.5t11 -47.5q0 -23 -8.5 -43t-23.5 -35t-35 -23.5t-42 -8.5q-26 0 -48.5 11t-37.5 31q-12 14 -23.5 24t-23.5 17q-50 32 -128 32
q-99 0 -161 -55q-64 -54 -64 -136q0 -113 167 -182l154 -63q188 -77 274 -186zM787 -199l-239 -306l-146 73l199 309z" />
    <glyph glyph-name="scedilla" unicode="&#x15f;" horiz-adv-x="831" 
d="M604 -199l-239 -306l-146 73l199 309zM708 473q63 -65 63 -173q0 -141 -106 -236q-101 -90 -244 -90q-172 0 -277 123h1q-24 27 -24 68q0 22 8.5 42t22.5 34t33.5 22.5t42.5 8.5q26 0 48.5 -11.5t37.5 -31.5v1q9 -13 15 -17q20 -18 43.5 -28t52.5 -10q114 0 114 104
q0 60 -87 111q-17 8 -34 16.5t-34 17.5q-17 8 -33.5 16t-34.5 16q-100 49 -137 97q-51 60 -51 156q0 127 86 210q89 82 215 82q56 0 104 -17.5t86 -52.5q18 -14 29 -35.5t11 -46.5q0 -23 -8.5 -42.5t-22.5 -33.5t-33.5 -22.5t-41.5 -8.5t-41 7.5t-33 21.5q-30 27 -67 27
q-29 0 -51 -20q-21 -20 -21 -52q0 -58 128 -111q90 -38 149 -74t91 -68z" />
    <glyph glyph-name="ash" horiz-adv-x="510" 
d="M367 1187l-75 -151l-125 53l61 151l-5 46h-81v250h225v-349z" />
    <glyph glyph-name="Ringsmall" horiz-adv-x="1081" 
d="M326 1365q0 88 64 151q64 64 153 64q91 0 154 -64q64 -64 64 -154t-64 -154q-63 -64 -153 -64q-91 0 -155 64q-63 64 -63 157zM445 1363q0 -43 28.5 -71.5t70.5 -28.5t70.5 28.5t28.5 70.5t-28.5 70.5t-70.5 28.5q-21 0 -39 -8t-31.5 -21.5t-21 -31.5t-7.5 -37z" />
    <glyph glyph-name="Acutesmall" horiz-adv-x="776" 
d="M644 1376q-2 -2 -2 -2.5t-2 -1.5l-222 -204l-1 -1q-12 -14 -28 -22t-33 -9t-34 4t-31 17q-28 23 -31 59t21 65q2 2 3.5 4t2.5 3l172 227q2 2 2.5 4t2.5 4q10 13 27.5 22.5t39 12t44.5 -3.5t43 -22q22 -19 33.5 -40.5t13.5 -42.5t-4 -40t-17 -33z" />
    <glyph glyph-name="Gravesmall" horiz-adv-x="776" 
d="M204 1376q-11 14 -17 33t-4 40t13 42.5t34 40.5q20 16 43 22t44.5 3.5t39 -12t27.5 -22.5q2 -2 2.5 -4t2.5 -4l172 -227q1 -1 2.5 -3t3.5 -4q24 -29 21 -65t-31 -59q-14 -12 -31 -17t-34 -4t-33 9t-28 22l-1 1l-222 204q-2 1 -2 1.5t-2 2.5z" />
    <glyph glyph-name="Circumflexsmall" horiz-adv-x="776" 
d="M688 1315q17 -15 26 -35t9 -43q0 -21 -8 -39.5t-21.5 -32t-32 -21.5t-39.5 -8q-23 0 -42 9t-34 24l-105 99q-16 16 -37 17.5t-38 -11.5l-114 -106q-30 -30 -72 -30q-21 0 -39.5 7.5t-32 21t-21.5 31.5t-8 39q0 26 12 48.5t32 36.5l235 213q17 18 42.5 18t43.5 -18l-1 1
l245 -221v0z" />
    <glyph glyph-name="Dieresissmall" horiz-adv-x="776" 
d="M61 1307q0 58 42 99q42 42 101 42t101 -42q42 -41 42 -100q0 -60 -42 -102q-44 -41 -101 -41q-60 0 -102 42q-41 44 -41 102zM479 1307q0 58 42 99q43 42 101 42q60 0 101 -42q42 -41 42 -100q0 -60 -42 -102q-44 -41 -101 -41q-59 0 -101 42t-42 102z" />
    <glyph glyph-name="Tildesmall" horiz-adv-x="1229" 
d="M300 1219l-131 111l29 41q28 40 54 67.5t53 45t56 25t63 7.5q78 0 181 -52q104 -53 134 -53q56 0 124 108l127 -106q-96 -192 -260 -192q-56 0 -183 56q-91 46 -136 46q-55 0 -111 -104z" />
    <glyph glyph-name="Scaronsmall" horiz-adv-x="855" 
d="M788 321q0 -164 -105 -258q-102 -90 -268 -90q-225 0 -348 192l132 142q67 -141 216 -141q66 0 106 37q41 38 41 92q0 51 -36 84q-31 28 -125 62q-76 28 -154 66q-37 19 -67 51q-66 70 -66 167q0 126 77 221q91 111 246 111q188 0 313 -119l-114 -157q-70 82 -165 82
q-51 0 -88 -25q-43 -28 -43 -78q0 -65 157 -120q157 -54 220 -120q71 -74 71 -199zM782 1445l-351 -321l-356 321l154 119l201 -190l200 190z" />
    <glyph glyph-name="Caronsmall" 
d="M933 1445l-351 -321l-356 321l154 119l201 -190l200 190z" />
    <glyph glyph-name="Zcaronsmall" horiz-adv-x="942" 
d="M911 1030l-502 -836h465v-194h-843l504 836h-420v194h796zM873 1445l-351 -321l-356 321l154 119l201 -190l200 190z" />
    <glyph glyph-name="yea" horiz-adv-x="1725" 
d="M535 2026h185q23 -158 174 -158q150 0 173 158h185q-15 -167 -106.5 -251t-256.5 -84q-153 0 -248 89q-94 88 -106 246z" />
    <glyph glyph-name="ice" horiz-adv-x="604" 
d="M586 1872q17 -15 26 -35t9 -43q0 -21 -8 -39.5t-21.5 -32t-32 -21.5t-39.5 -8q-23 0 -42 9t-34 24l-105 99q-16 16 -37 17.5t-38 -11.5l-114 -106q-30 -30 -72 -30q-21 0 -39.5 7.5t-32 21t-21.5 31.5t-8 39q0 26 12 48.5t32 36.5l235 213q17 18 42.5 18t43.5 -18l-1 1
l245 -221v0z" />
    <glyph glyph-name="sure" horiz-adv-x="1517" 
d="M1060 1862q17 -15 26 -35t9 -43q0 -21 -8 -39.5t-21.5 -32t-32 -21.5t-39.5 -8q-23 0 -42 9t-34 24l-105 99q-16 16 -37 17.5t-38 -11.5l-114 -106q-30 -30 -72 -30q-21 0 -39.5 7.5t-32 21t-21.5 31.5t-8 39q0 26 12 48.5t32 36.5l235 213q17 18 42.5 18t43.5 -18l-1 1
l245 -221v0z" />
    <glyph glyph-name="hung" horiz-adv-x="1517" 
d="M495 1699l-131 111l29 41q28 40 54 67.5t53 45t56 25t63 7.5q78 0 181 -52q104 -53 134 -53q56 0 124 108l127 -106q-96 -192 -260 -192q-56 0 -183 56q-91 46 -136 46q-55 0 -111 -104z" />
    <glyph glyph-name="fee" horiz-adv-x="1517" 
d="M556 1906q0 88 64 151q64 64 153 64q91 0 154 -64q64 -64 64 -154t-64 -154q-63 -64 -153 -64q-91 0 -155 64q-63 64 -63 157zM675 1904q0 -43 28.5 -71.5t70.5 -28.5t70.5 28.5t28.5 70.5t-28.5 70.5t-70.5 28.5q-21 0 -39 -8t-31.5 -21.5t-21 -31.5t-7.5 -37z" />
    <glyph glyph-name="Caron" horiz-adv-x="1280" 
d="M400 1935q-35 32 -35 78q0 21 8 39.5t21.5 32t32 21.5t39.5 8q23 0 42 -9t34 -24l105 -99q16 -16 37 -17.5t38 11.5l114 106q30 30 72 30q21 0 39.5 -7.5t32 -21t21.5 -31.5t8 -39q0 -26 -12 -48.5t-32 -36.5l-235 -213q-17 -18 -42.5 -18t-43.5 18l1 -1l-245 221v0z" />
    <glyph glyph-name="Acute" 
d="M962 1959l-408 -276l-111 93l321 322z" />
    <glyph glyph-name="eat" horiz-adv-x="604" 
d="M-29 1844q0 56 41 100q42 42 101 42t101 -42t42 -102q0 -59 -42 -101t-101 -42q-61 0 -101 42q-41 44 -41 103zM348 1844q0 58 42 100q43 42 101 42q59 0 101 -42t42 -102q0 -59 -42 -101t-101 -42t-101 42t-42 103z" />
    <glyph glyph-name="kick" horiz-adv-x="604" 
d="M151 1851q0 61 44 105q47 44 107 44q62 0 106 -44q45 -44 45 -106q0 -64 -45 -107q-44 -44 -106 -44q-63 0 -107 44q-44 47 -44 108z" />
    <glyph glyph-name="uniF6C3" horiz-adv-x="510" 
d="M380 -440l-75 -151l-125 53l61 151l-5 46h-81v250h225v-349z" />
    <glyph glyph-name="uniE784" horiz-adv-x="510" 
d="M151 1472l75 151l125 -53l-61 -151l5 -46h81v-250h-225v349z" />
    <glyph glyph-name="Sacute" unicode="&#x15a;" horiz-adv-x="1194" 
d="M1016 732q86 -107 86 -268q0 -212 -141 -352q-143 -140 -354 -140q-202 0 -332 120q-88 80 -131 207h1q-7 17 -7 38q0 24 9.5 45.5t25.5 37.5t37.5 25.5t45.5 9.5q42 0 73 -25t41 -63q15 -51 35 -76q72 -100 210 -100q109 0 181 73t72 185q0 44 -12 82q-6 19 -16 36
t-23 33q-14 16 -31 30.5t-38 28.5t-46 27t-54 25l-148 62q-316 133 -316 392q0 173 132 290q133 118 331 118q195 0 328 -139q19 -16 30 -37.5t11 -47.5q0 -23 -8.5 -43t-23.5 -35t-35 -23.5t-42 -8.5q-26 0 -48.5 11t-37.5 31q-12 14 -23.5 24t-23.5 17q-50 32 -128 32
q-99 0 -161 -55q-64 -54 -64 -136q0 -113 167 -182l154 -63q188 -77 274 -186zM962 1959l-408 -276l-111 93l321 322z" />
    <glyph glyph-name="Tcaron" unicode="&#x164;" horiz-adv-x="988" 
d="M379 1272q-1 23 -17 38.5t-39 16.5h-191v1q-23 0 -43 8.5t-34.5 23.5t-23 34.5t-8.5 42.5t8.5 43t23.5 35t35 23.5t43 8.5h722q23 0 43 -9t35 -24t23.5 -35t8.5 -42q0 -23 -8.5 -42.5t-23.5 -34.5t-35 -24t-42 -9h-1h-189q-22 -1 -37.5 -16.5t-16.5 -38.5v-1155
q0 -24 -9 -45t-25 -37t-37.5 -25t-45.5 -9t-45.5 9t-37 24.5t-24.5 37t-9 45.5v1155zM211 1935q-35 32 -35 78q0 21 8 39.5t21.5 32t32 21.5t39.5 8q23 0 42 -9t34 -24l105 -99q16 -16 37 -17.5t38 11.5l114 106q30 30 72 30q21 0 39.5 -7.5t32 -21t21.5 -31.5t8 -39
q0 -26 -12 -48.5t-32 -36.5l-235 -213q-17 -18 -42.5 -18t-43.5 18l1 -1l-245 221v0z" />
    <glyph glyph-name="Zacute" unicode="&#x179;" horiz-adv-x="1280" 
d="M1087 220q22 -1 41.5 -9.5t34 -23.5t23 -35t8.5 -42q0 -23 -8.5 -42.5t-23.5 -34.5t-35 -23.5t-42 -8.5h-2h-803v1q-4 -1 -8 0q-7 0 -20 5q-37 11 -61 41.5t-24 70.5q0 12 2 25t8 31.5t18.5 43.5t33.5 61l579 1011q6 10 6 17t-3.5 10.5t-8.5 5t-9 1.5h-482h-8
q-23 0 -43 8.5t-35 23.5t-23.5 35t-8.5 43q0 22 8.5 42t23.5 35t35 23.5t43 8.5v1h766q38 -3 61 -17q10 -6 17 -15.5t9 -23t-2.5 -32t-17.5 -42.5q-3 -4 -5 -7.5t-4 -7.5l-656 -1148q-1 -3 -2 -8.5t1 -10.5t8 -9t19 -4q1 0 1 0.5t2 -0.5h587v0zM1012 1959l-408 -276l-111 93
l321 322z" />
    <glyph glyph-name="sacute" unicode="&#x15b;" horiz-adv-x="831" 
d="M708 473q63 -65 63 -173q0 -141 -106 -236q-101 -90 -244 -90q-172 0 -277 123h1q-24 27 -24 68q0 22 8.5 42t22.5 34t33.5 22.5t42.5 8.5q26 0 48.5 -11.5t37.5 -31.5v1q9 -13 15 -17q20 -18 43.5 -28t52.5 -10q114 0 114 104q0 60 -87 111q-17 8 -34 16.5t-34 17.5
q-17 8 -33.5 16t-34.5 16q-100 49 -137 97q-51 60 -51 156q0 127 86 210q89 82 215 82q56 0 104 -17.5t86 -52.5q18 -14 29 -35.5t11 -46.5q0 -23 -8.5 -42.5t-22.5 -33.5t-33.5 -22.5t-41.5 -8.5t-41 7.5t-33 21.5q-30 27 -67 27q-29 0 -51 -20q-21 -20 -21 -52
q0 -58 128 -111q90 -38 149 -74t91 -68zM688 1375q-2 -1 -2 -1.5t-1 -1.5l-224 -203h-1q1 0 0 -1q-12 -15 -28 -22t-33 -8t-33.5 4.5t-31.5 16.5q-13 11 -21 27t-9.5 33t4 33.5t18.5 31.5q4 5 5 7l174 225q2 2 2 3.5t2 3.5q11 13 29 22.5t39.5 12t44 -3.5t42.5 -23
q23 -19 34 -40.5t12.5 -42.5t-4.5 -40t-18 -33z" />
    <glyph glyph-name="tcaron" unicode="&#x165;" horiz-adv-x="771" 
d="M446 974q22 0 41 -8.5t33 -22.5t22.5 -33t8.5 -41t-8.5 -41t-22.5 -33t-33 -22t-41 -8h-4l-12 -1q-23 -1 -38.5 -17.5t-15.5 -39.5v-594v-2q0 -23 -8.5 -43.5t-23.5 -35.5t-35.5 -23.5t-44.5 -8.5q-23 0 -43.5 8.5t-36 23.5t-24.5 35.5t-9 43.5v4v592q0 17 -9.5 30.5
t-23.5 21.5q-14 2 -26 6q-2 1 -3.5 1t-3.5 2q-29 13 -47 40t-18 61t18 60.5t47 40.5q2 2 4.5 2t4.5 1q10 4 24 6q14 7 23.5 20.5t9.5 30.5v187q0 23 9 43.5t24 35.5t35.5 24t43.5 9t43.5 -9t36 -24t24.5 -35.5t9 -43.5v-187q0 -23 16 -39.5t39 -16.5h13h2v0zM736 1187
l-75 -151l-125 53l61 151l-5 46h-81v250h225v-349z" />
    <glyph glyph-name="zacute" unicode="&#x17a;" horiz-adv-x="1113" 
d="M264 -4q-35 -3 -61 5q-23 7 -41.5 24.5t-18.5 53.5q0 38 10.5 68t24.5 51q15 25 35 44h-1l349 422q12 17 22 37t10 36q0 9 -6.5 14t-14.5 7q-9 3 -20 4h-304v1q-22 0 -41 8.5t-33.5 22.5t-22.5 33.5t-8 40.5q0 22 8 41t22.5 33t33.5 22.5t41 8.5h616q12 0 27 -6.5
t27.5 -18t21 -28t8.5 -36.5q0 -28 -5 -49.5t-12 -38t-15.5 -29t-15.5 -22.5l-17 -21l-2 -1v-1l-337 -409q-11 -14 -20 -28q-8 -12 -14 -26.5t-6 -25.5q0 -16 13.5 -20.5t24.5 -5.5h295h6q45 0 75.5 -30t30.5 -75t-30.5 -75.5t-75.5 -30.5h-1h-578zM872 1375q-2 -1 -2 -1.5
t-1 -1.5l-224 -203h-1q1 0 0 -1q-12 -15 -28 -22t-33 -8t-33.5 4.5t-31.5 16.5q-13 11 -21 27t-9.5 33t4 33.5t18.5 31.5q4 5 5 7l174 225q2 2 2 3.5t2 3.5q11 13 29 22.5t39.5 12t44 -3.5t42.5 -23q23 -19 34 -40.5t12.5 -42.5t-4.5 -40t-18 -33z" />
    <glyph glyph-name="Aogonek" unicode="&#x104;" horiz-adv-x="1517" 
d="M1438 156q9 -21 7.5 -44t-11.5 -43.5t-27 -36.5t-39 -25q-21 -8 -43.5 -7t-42.5 10t-35.5 25t-24.5 37l-6 11l-106 250q-3 6 -8.5 13t-12.5 14t-16.5 11.5t-21.5 4.5h-584q-20 0 -33.5 -13t-20.5 -25l-124 -269q-13 -31 -41 -49.5t-63 -18.5q-24 0 -44.5 9t-35.5 24.5
t-24 36t-9 44.5q0 23 8 40l5 12l614 1322q2 4 8 13t15 18.5t21 16.5t27 7q16 0 29 -9t22 -20q11 -13 19 -29l598 -1329v-1zM946 596q18 0 25 7t8 15q1 10 -3 22l-202 464q-5 10 -9 7.5t-6 -5.5l-213 -468q-1 -3 -2 -10t0.5 -13.5t8 -12t20.5 -6.5h374h-1zM1256 0h196
q-194 -129 -194 -224q0 -82 101 -82q29 0 64.5 5t80.5 15l-23 -166q-79 -49 -172 -49q-110 0 -183 61q-73 58 -73 151q0 90 46 151q46 66 157 138z" />
    <glyph glyph-name="Zdotaccent" unicode="&#x17b;" horiz-adv-x="1280" 
d="M1087 220q22 -1 41.5 -9.5t34 -23.5t23 -35t8.5 -42q0 -23 -8.5 -42.5t-23.5 -34.5t-35 -23.5t-42 -8.5h-2h-803v1q-4 -1 -8 0q-7 0 -20 5q-37 11 -61 41.5t-24 70.5q0 12 2 25t8 31.5t18.5 43.5t33.5 61l579 1011q6 10 6 17t-3.5 10.5t-8.5 5t-9 1.5h-482h-8
q-23 0 -43 8.5t-35 23.5t-23.5 35t-8.5 43q0 22 8.5 42t23.5 35t35 23.5t43 8.5v1h766q38 -3 61 -17q10 -6 17 -15.5t9 -23t-2.5 -32t-17.5 -42.5q-3 -4 -5 -7.5t-4 -7.5l-656 -1148q-1 -3 -2 -8.5t1 -10.5t8 -9t19 -4q1 0 1 0.5t2 -0.5h587v0zM532 1851q0 61 44 105
q47 44 107 44q62 0 106 -44q45 -44 45 -106q0 -64 -45 -107q-44 -44 -106 -44q-63 0 -107 44q-44 47 -44 108z" />
    <glyph glyph-name="aogonek" unicode="&#x105;" horiz-adv-x="1228" 
d="M914 0q-23 0 -39 14.5t-18 37.5v50q-139 -130 -297 -130q-202 0 -333 146q-132 148 -132 371q0 219 132 365q129 146 327 146q168 0 303 -140q0 23 9 43.5t24 36t35.5 24.5t43.5 9q24 0 45 -9t36.5 -24.5t24.5 -36t9 -43.5q0 -2 -0.5 -3t-0.5 -2h1l-1 -799
q0 -23 -16.5 -39.5t-40.5 -16.5h-112zM796 259q77 91 77 225q0 136 -77 225q-77 87 -201 87q-114 0 -192 -87q-78 -90 -78 -220q0 -138 76 -226q78 -90 193 -90q124 0 202 86zM861 0h196q-194 -129 -194 -224q0 -82 101 -82q29 0 64.5 5t80.5 15l-23 -166q-79 -49 -172 -49
q-110 0 -183 61q-73 58 -73 151q0 90 46 151q46 66 157 138z" />
    <glyph glyph-name="Lcaron" unicode="&#x13d;" horiz-adv-x="908" 
d="M182 1428q0 24 9 45t25 37t37 25t45 9t45.5 -9.5t37 -25t24.5 -37t9 -45.5v-1v-1154q2 -22 17.5 -37.5t38.5 -16.5h294q22 -1 41.5 -9.5t33.5 -23t22.5 -34t8.5 -41.5q0 -23 -8.5 -42.5t-22.5 -34.5t-33.5 -23.5t-41.5 -9.5h-525q-23 0 -39.5 16.5t-17.5 39.5v1372z
M804 1187l-75 -151l-125 53l61 151l-5 46h-81v250h225v-349z" />
    <glyph glyph-name="lcaron" unicode="&#x13e;" horiz-adv-x="731" 
d="M366 111q0 -24 -9 -44.5t-24 -35.5t-35.5 -23.5t-44.5 -8.5q-23 0 -43.5 9t-35.5 24t-24 35.5t-9 44.5v9v1455v2q0 23 9 44t24 36.5t35.5 24.5t43.5 9t43.5 -9t36 -24.5t24.5 -36t9 -43.5v-1455v-13zM698 1187l-75 -151l-125 53l61 151l-5 46h-81v250h225v-349z" />
    <glyph glyph-name="zdotaccent" unicode="&#x17c;" horiz-adv-x="1113" 
d="M264 -4q-35 -3 -61 5q-23 7 -41.5 24.5t-18.5 53.5q0 38 10.5 68t24.5 51q15 25 35 44h-1l349 422q12 17 22 37t10 36q0 9 -6.5 14t-14.5 7q-9 3 -20 4h-304v1q-22 0 -41 8.5t-33.5 22.5t-22.5 33.5t-8 40.5q0 22 8 41t22.5 33t33.5 22.5t41 8.5h616q12 0 27 -6.5
t27.5 -18t21 -28t8.5 -36.5q0 -28 -5 -49.5t-12 -38t-15.5 -29t-15.5 -22.5l-17 -21l-2 -1v-1l-337 -409q-11 -14 -20 -28q-8 -12 -14 -26.5t-6 -25.5q0 -16 13.5 -20.5t24.5 -5.5h295h6q45 0 75.5 -30t30.5 -75t-30.5 -75.5t-75.5 -30.5h-1h-578zM455 1292q0 60 44 104
q47 44 107 44q62 0 106 -44q45 -44 45 -106q0 -63 -45 -106q-44 -44 -106 -44q-63 0 -107 44t-44 108z" />
    <glyph glyph-name="Racute" unicode="&#x154;" horiz-adv-x="1233" 
d="M1051 193q13 -15 20.5 -34t7.5 -42q0 -24 -9 -45t-25 -36.5t-37.5 -25t-45.5 -9.5q-31 0 -57 15t-41 41l-384 550q-2 4 -13.5 14.5t-25.5 11.5q-9 0 -15 -8.5t-7 -33.5v-467v-7v-5v-2q-2 -23 -11.5 -43t-25 -34.5t-36 -23t-44.5 -8.5t-44.5 9t-36.5 24t-25 35.5t-10 44.5
v4v1373q0 24 16.5 40.5t39.5 17.5h217q307 0 444 -116q150 -129 150 -338q0 -164 -95 -283q-76 -97 -194 -136q-10 -3 -17 -6t-12 -6t-7 -5q-7 -10 0 -24zM494 838q331 0 331 253q0 238 -322 238h-28q-23 -1 -39 -16.5t-17 -38.5v-382q2 -23 17 -38t37 -16h21zM880 1959
l-408 -276l-111 93l321 322z" />
    <glyph glyph-name="Abreve" unicode="&#x102;" horiz-adv-x="1517" 
d="M1438 156q9 -21 7.5 -44t-11.5 -43.5t-27 -36.5t-39 -25q-21 -8 -43.5 -7t-42.5 10t-35.5 25t-24.5 37l-6 11l-106 250q-3 6 -8.5 13t-12.5 14t-16.5 11.5t-21.5 4.5h-584q-20 0 -33.5 -13t-20.5 -25l-124 -269q-13 -31 -41 -49.5t-63 -18.5q-24 0 -44.5 9t-35.5 24.5
t-24 36t-9 44.5q0 23 8 40l5 12l614 1322q2 4 8 13t15 18.5t21 16.5t27 7q16 0 29 -9t22 -20q11 -13 19 -29l598 -1329v-1zM946 596q18 0 25 7t8 15q1 10 -3 22l-202 464q-5 10 -9 7.5t-6 -5.5l-213 -468q-1 -3 -2 -10t0.5 -13.5t8 -12t20.5 -6.5h374h-1zM410 2026h185
q23 -158 174 -158q150 0 173 158h185q-15 -167 -106.5 -251t-256.5 -84q-153 0 -248 89q-94 88 -106 246z" />
    <glyph glyph-name="Lacute" unicode="&#x139;" horiz-adv-x="908" 
d="M182 1428q0 24 9 45t25 37t37 25t45 9t45.5 -9.5t37 -25t24.5 -37t9 -45.5v-1v-1154q2 -22 17.5 -37.5t38.5 -16.5h294q22 -1 41.5 -9.5t33.5 -23t22.5 -34t8.5 -41.5q0 -23 -8.5 -42.5t-22.5 -34.5t-33.5 -23.5t-41.5 -9.5h-525q-23 0 -39.5 16.5t-17.5 39.5v1372z
M761 1959l-408 -276l-111 93l321 322z" />
    <glyph glyph-name="Eogonek" unicode="&#x118;" 
d="M926 221q23 0 43 -8.5t34.5 -23.5t23 -35t8.5 -42q0 -23 -9 -43t-24 -35t-35 -23.5t-42 -8.5h-5h-684q-22 2 -37 17.5t-16 38.5v1435q2 23 17 38.5t38 16.5h682h6q22 0 42 -8.5t35 -23.5t23.5 -35t8.5 -42q0 -23 -8.5 -43t-23.5 -35t-35 -23.5t-43 -8.5h-3v-1h-451
q-23 0 -38 -16t-17 -39v-338q1 -24 18 -40.5t40 -16.5l436 -1q22 0 41.5 -9t34 -23.5t23 -34.5t8.5 -42q0 -23 -8.5 -42.5t-23 -34.5t-34 -23.5t-41.5 -9.5h-1h-2h-3h-433q-23 -1 -38 -16.5t-17 -38.5v-326q1 -23 16.5 -38.5t37.5 -17.5h450h6v0zM842 0h196
q-194 -129 -194 -224q0 -82 101 -82q29 0 64.5 5t80.5 15l-23 -166q-79 -49 -172 -49q-110 0 -183 61q-73 58 -73 151q0 90 46 151q46 66 157 138z" />
    <glyph glyph-name="Ecaron" unicode="&#x11a;" 
d="M926 221q23 0 43 -8.5t34.5 -23.5t23 -35t8.5 -42q0 -23 -9 -43t-24 -35t-35 -23.5t-42 -8.5h-5h-684q-22 2 -37 17.5t-16 38.5v1435q2 23 17 38.5t38 16.5h682h6q22 0 42 -8.5t35 -23.5t23.5 -35t8.5 -42q0 -23 -8.5 -43t-23.5 -35t-35 -23.5t-43 -8.5h-3v-1h-451
q-23 0 -38 -16t-17 -39v-338q1 -24 18 -40.5t40 -16.5l436 -1q22 0 41.5 -9t34 -23.5t23 -34.5t8.5 -42q0 -23 -8.5 -42.5t-23 -34.5t-34 -23.5t-41.5 -9.5h-1h-2h-3h-433q-23 -1 -38 -16.5t-17 -38.5v-326q1 -23 16.5 -38.5t37.5 -17.5h450h6v0zM316 1935q-35 32 -35 78
q0 21 8 39.5t21.5 32t32 21.5t39.5 8q23 0 42 -9t34 -24l105 -99q16 -16 37 -17.5t38 11.5l114 106q30 30 72 30q21 0 39.5 -7.5t32 -21t21.5 -31.5t8 -39q0 -26 -12 -48.5t-32 -36.5l-235 -213q-17 -18 -42.5 -18t-43.5 18l1 -1l-245 221v0z" />
    <glyph glyph-name="Dcaron" unicode="&#x10e;" horiz-adv-x="1487" 
d="M1139 1349q240 -219 240 -574q0 -356 -250 -577q-126 -111 -262 -153q-128 -43 -363 -43h-266q-23 1 -38.5 16.5t-16.5 38.5v1436q1 22 15.5 37.5t36.5 17.5h272q235 0 369 -46q144 -45 263 -153zM971 365q172 157 172 410q0 255 -170 412q-153 141 -452 141h-49
q-23 0 -39 -16.5t-17 -39.5v-994q0 -23 15.5 -39t37.5 -18h52q159 0 262 34q101 34 188 110zM325 1935q-35 32 -35 78q0 21 8 39.5t21.5 32t32 21.5t39.5 8q23 0 42 -9t34 -24l105 -99q16 -16 37 -17.5t38 11.5l114 106q30 30 72 30q21 0 39.5 -7.5t32 -21t21.5 -31.5t8 -39
q0 -26 -12 -48.5t-32 -36.5l-235 -213q-17 -18 -42.5 -18t-43.5 18l1 -1l-245 221v0z" />
    <glyph glyph-name="Nacute" unicode="&#x143;" horiz-adv-x="1729" 
d="M1440 100q0 -18 -2 -34.5t-8 -29.5t-16 -22t-26 -11q-20 -3 -34.5 3.5t-26.5 17.5t-22.5 24.5t-22.5 24.5l-27 29l-2 2l-580 829q-12 12 -20 15t-12.5 0t-6 -9t-2.5 -12v-8h1h-1v-802q0 -24 -9 -45t-25 -36.5t-37 -24.5t-45 -9t-44.5 9t-36.5 24.5t-25 36t-10 44.5v1371
q1 6 4 16t9.5 19.5t17 16t25.5 6.5q18 0 32 -5t26 -13.5t23 -19t22 -22.5l613 -867q10 -9 17 -11t10.5 0.5t5.5 8t2 10.5v809v2q1 23 10.5 43t25.5 35t36.5 23.5t43.5 8.5q24 0 45.5 -9.5t37.5 -25t25 -37t9 -45.5v-1330zM1187 1959l-408 -276l-111 93l321 322z" />
    <glyph glyph-name="Ncaron" unicode="&#x147;" horiz-adv-x="1729" 
d="M1440 100q0 -18 -2 -34.5t-8 -29.5t-16 -22t-26 -11q-20 -3 -34.5 3.5t-26.5 17.5t-22.5 24.5t-22.5 24.5l-27 29l-2 2l-580 829q-12 12 -20 15t-12.5 0t-6 -9t-2.5 -12v-8h1h-1v-802q0 -24 -9 -45t-25 -36.5t-37 -24.5t-45 -9t-44.5 9t-36.5 24.5t-25 36t-10 44.5v1371
q1 6 4 16t9.5 19.5t17 16t25.5 6.5q18 0 32 -5t26 -13.5t23 -19t22 -22.5l613 -867q10 -9 17 -11t10.5 0.5t5.5 8t2 10.5v809v2q1 23 10.5 43t25.5 35t36.5 23.5t43.5 8.5q24 0 45.5 -9.5t37.5 -25t25 -37t9 -45.5v-1330zM584 1935q-35 32 -35 78q0 21 8 39.5t21.5 32
t32 21.5t39.5 8q23 0 42 -9t34 -24l105 -99q16 -16 37 -17.5t38 11.5l114 106q30 30 72 30q21 0 39.5 -7.5t32 -21t21.5 -31.5t8 -39q0 -26 -12 -48.5t-32 -36.5l-235 -213q-17 -18 -42.5 -18t-43.5 18l1 -1l-245 221v0z" />
    <glyph glyph-name="Ohungarumlaut" unicode="&#x150;" horiz-adv-x="1830" 
d="M108 779q0 326 239 560q238 234 572 234q330 0 566 -236q237 -236 237 -567q0 -333 -238 -565q-239 -233 -577 -233q-299 0 -537 207q-262 229 -262 600zM343 776q0 -256 172 -421q171 -165 395 -165q243 0 410 168q167 170 167 414q0 247 -165 414q-164 168 -406 168
q-241 0 -407 -168q-166 -166 -166 -410zM1496 1959l-408 -276l-111 93l321 322zM1078 1959l-408 -276l-111 93l321 322z" />
    <glyph glyph-name="Hungarumlaut" horiz-adv-x="1830" 
d="M1496 1959l-408 -276l-111 93l321 322zM1078 1959l-408 -276l-111 93l321 322z" />
    <glyph glyph-name="Rcaron" unicode="&#x158;" horiz-adv-x="1233" 
d="M1051 193q13 -15 20.5 -34t7.5 -42q0 -24 -9 -45t-25 -36.5t-37.5 -25t-45.5 -9.5q-31 0 -57 15t-41 41l-384 550q-2 4 -13.5 14.5t-25.5 11.5q-9 0 -15 -8.5t-7 -33.5v-467v-7v-5v-2q-2 -23 -11.5 -43t-25 -34.5t-36 -23t-44.5 -8.5t-44.5 9t-36.5 24t-25 35.5t-10 44.5
v4v1373q0 24 16.5 40.5t39.5 17.5h217q307 0 444 -116q150 -129 150 -338q0 -164 -95 -283q-76 -97 -194 -136q-10 -3 -17 -6t-12 -6t-7 -5q-7 -10 0 -24zM494 838q331 0 331 253q0 238 -322 238h-28q-23 -1 -39 -16.5t-17 -38.5v-382q2 -23 17 -38t37 -16h21zM274 1935
q-35 32 -35 78q0 21 8 39.5t21.5 32t32 21.5t39.5 8q23 0 42 -9t34 -24l105 -99q16 -16 37 -17.5t38 11.5l114 106q30 30 72 30q21 0 39.5 -7.5t32 -21t21.5 -31.5t8 -39q0 -26 -12 -48.5t-32 -36.5l-235 -213q-17 -18 -42.5 -18t-43.5 18l1 -1l-245 221v0z" />
    <glyph glyph-name="Uring" unicode="&#x16e;" horiz-adv-x="1513" 
d="M1338 1433v-886q0 -244 -154 -406q-170 -176 -423 -176t-423 176q-153 160 -153 406v886q0 24 9.5 45t25.5 37t37 25t45 9t45.5 -9t37.5 -25t25.5 -37t9.5 -45v-821q0 -199 65 -293q99 -134 276 -134q179 0 275 134q67 89 67 293v821q0 24 9 45t25 37t37 25t45 9
q25 0 46.5 -9t37.5 -25t25 -37t9 -45h1zM553 1906q0 88 64 151q64 64 153 64q91 0 154 -64q64 -64 64 -154t-64 -154q-63 -64 -153 -64q-91 0 -155 64q-63 64 -63 157zM672 1904q0 -43 28.5 -71.5t70.5 -28.5t70.5 28.5t28.5 70.5t-28.5 70.5t-70.5 28.5q-21 0 -39 -8
t-31.5 -21.5t-21 -31.5t-7.5 -37z" />
    <glyph glyph-name="Uhungarumlaut" unicode="&#x170;" horiz-adv-x="1513" 
d="M1338 1433v-886q0 -244 -154 -406q-170 -176 -423 -176t-423 176q-153 160 -153 406v886q0 24 9.5 45t25.5 37t37 25t45 9t45.5 -9t37.5 -25t25.5 -37t9.5 -45v-821q0 -199 65 -293q99 -134 276 -134q179 0 275 134q67 89 67 293v821q0 24 9 45t25 37t37 25t45 9
q25 0 46.5 -9t37.5 -25t25 -37t9 -45h1zM1350 1959l-408 -276l-111 93l321 322zM932 1959l-408 -276l-111 93l321 322z" />
    <glyph glyph-name="Tcedilla" unicode="&#x162;" horiz-adv-x="988" 
d="M379 1272q-1 23 -17 38.5t-39 16.5h-191v1q-23 0 -43 8.5t-34.5 23.5t-23 34.5t-8.5 42.5t8.5 43t23.5 35t35 23.5t43 8.5h722q23 0 43 -9t35 -24t23.5 -35t8.5 -42q0 -23 -8.5 -42.5t-23.5 -34.5t-35 -24t-42 -9h-1h-189q-22 -1 -37.5 -16.5t-16.5 -38.5v-1155
q0 -24 -9 -45t-25 -37t-37.5 -25t-45.5 -9t-45.5 9t-37 24.5t-24.5 37t-9 45.5v1155zM608 -440l-75 -151l-125 53l61 151l-5 46h-81v250h225v-349z" />
    <glyph glyph-name="racute" unicode="&#x155;" horiz-adv-x="766" 
d="M632 997q22 -2 41 -11t33.5 -24.5t22.5 -35.5t8 -42q0 -23 -9 -43.5t-24 -36t-35.5 -24.5t-43.5 -9q-8 0 -15.5 1t-15.5 3l-2 1q-11 3 -20 4t-20 1q-185 0 -185 -279v-378q1 -5 1 -16q0 -23 -9 -43.5t-24.5 -36t-36 -24.5t-43.5 -9q-24 0 -44.5 9t-36 24.5t-24.5 36
t-9 43.5v1v747v2q0 24 9 44.5t24.5 36t36.5 24.5t45 9q40 0 71 -24.5t39 -62.5h1q62 65 110 89q49 25 117 25h18.5t19.5 -2zM686 1375q-2 -1 -2 -1.5t-1 -1.5l-224 -203h-1q1 0 0 -1q-12 -15 -28 -22t-33 -8t-33.5 4.5t-31.5 16.5q-13 11 -21 27t-9.5 33t4 33.5t18.5 31.5
q4 5 5 7l174 225q2 2 2 3.5t2 3.5q11 13 29 22.5t39.5 12t44 -3.5t42.5 -23q23 -19 34 -40.5t12.5 -42.5t-4.5 -40t-18 -33z" />
    <glyph glyph-name="abreve" unicode="&#x103;" horiz-adv-x="1228" 
d="M914 0q-23 0 -39 14.5t-18 37.5v50q-139 -130 -297 -130q-202 0 -333 146q-132 148 -132 371q0 219 132 365q129 146 327 146q168 0 303 -140q0 23 9 43.5t24 36t35.5 24.5t43.5 9q24 0 45 -9t36.5 -24.5t24.5 -36t9 -43.5q0 -2 -0.5 -3t-0.5 -2h1l-1 -799
q0 -23 -16.5 -39.5t-40.5 -16.5h-112zM796 259q77 91 77 225q0 136 -77 225q-77 87 -201 87q-114 0 -192 -87q-78 -90 -78 -220q0 -138 76 -226q78 -90 193 -90q124 0 202 86zM266 1462h185q22 -157 174 -157q151 0 173 157h185q-15 -166 -106.5 -250.5t-256.5 -84.5
q-153 0 -248 89q-94 88 -106 246z" />
    <glyph glyph-name="lacute" unicode="&#x13a;" horiz-adv-x="510" 
d="M366 111q0 -24 -9 -44.5t-24 -35.5t-35.5 -23.5t-44.5 -8.5q-23 0 -43.5 9t-35.5 24t-24 35.5t-9 44.5v9v1455v2q0 23 9 44t24 36.5t35.5 24.5t43.5 9t43.5 -9t36 -24.5t24.5 -36t9 -43.5v-1455v-13zM570 2025l-408 -276l-111 93l321 322z" />
    <glyph glyph-name="eogonek" unicode="&#x119;" horiz-adv-x="1133" 
d="M943 125q-48 -52 -106 -89q-56 -33 -121 -50q-64 -16 -141 -16q-219 0 -351 141q-132 139 -132 374q0 231 128 374q128 141 343 141q109 0 193 -33.5t147 -103.5q125 -136 125 -376q-2 -23 -18.5 -39t-39.5 -16h-590q-4 0 -13 -1t-17.5 -5.5t-13.5 -14t-2 -26.5
q16 -87 71 -143q70 -70 178 -70q84 0 140 40q15 11 31.5 28.5t35.5 40.5q15 21 38.5 33t49.5 12q23 0 43 -8.5t34.5 -23.5t23 -35t8.5 -42q0 -39 -24 -69q-1 -2 -2 -2.5t-2 -1.5zM358 661q-2 -5 -3 -12.5t2 -14.5t11.5 -12.5t26.5 -5.5h3h353q14 1 21 6.5t9.5 12t1.5 13
t-2 11.5q-56 138 -213 138q-44 0 -77 -13q-36 -12 -66 -36q-15 -12 -27.5 -25.5t-22.5 -30.5q-5 -8 -9 -15.5t-8 -15.5zM563 0h196q-194 -129 -194 -224q0 -82 101 -82q29 0 64.5 5t80.5 15l-23 -166q-79 -49 -172 -49q-110 0 -183 61q-73 58 -73 151q0 90 46 151
q46 66 157 138z" />
    <glyph glyph-name="ecaron" unicode="&#x11b;" horiz-adv-x="1133" 
d="M943 125q-48 -52 -106 -89q-56 -33 -121 -50q-64 -16 -141 -16q-219 0 -351 141q-132 139 -132 374q0 231 128 374q128 141 343 141q109 0 193 -33.5t147 -103.5q125 -136 125 -376q-2 -23 -18.5 -39t-39.5 -16h-590q-4 0 -13 -1t-17.5 -5.5t-13.5 -14t-2 -26.5
q16 -87 71 -143q70 -70 178 -70q84 0 140 40q15 11 31.5 28.5t35.5 40.5q15 21 38.5 33t49.5 12q23 0 43 -8.5t34.5 -23.5t23 -35t8.5 -42q0 -39 -24 -69q-1 -2 -2 -2.5t-2 -1.5zM358 661q-2 -5 -3 -12.5t2 -14.5t11.5 -12.5t26.5 -5.5h3h353q14 1 21 6.5t9.5 12t1.5 13
t-2 11.5q-56 138 -213 138q-44 0 -77 -13q-36 -12 -66 -36q-15 -12 -27.5 -25.5t-22.5 -30.5q-5 -8 -9 -15.5t-8 -15.5zM933 1445l-351 -321l-356 321l154 119l201 -190l200 190z" />
    <glyph glyph-name="dcaron" unicode="&#x10f;" horiz-adv-x="1450" 
d="M326 490q0 -140 75 -228q77 -89 194 -89q125 0 202 86q77 89 77 226t-77 226q-77 87 -200 87q-116 0 -194 -88q-77 -89 -77 -220zM1030 0h-114q-23 1 -40 17.5t-17 39.5v44q-134 -129 -301 -129q-200 0 -331 146q-131 151 -131 373q0 216 131 364q129 147 326 147
q171 0 306 -140v710v4q0 24 9 44.5t24.5 36t36 24.5t44.5 9q23 0 44 -9t36.5 -24.5t24.5 -36t9 -44.5v-1524q-2 -22 -18.5 -37t-38.5 -15zM1417 1187l-75 -151l-125 53l61 151l-5 46h-81v250h225v-349z" />
    <glyph glyph-name="nacute" unicode="&#x144;" horiz-adv-x="1123" 
d="M983 114q0 -2 -0.5 -4.5t-0.5 -4.5q-1 -23 -10.5 -42.5t-25 -34t-35.5 -23t-43 -8.5q-24 0 -44.5 9t-36 24.5t-24.5 36t-9 44.5q0 9 1 14v416q0 145 -40 200q-41 57 -143 57q-114 0 -160 -75q-47 -73 -47 -256v-328q2 -7 2 -12.5v-13.5q0 -24 -9 -45.5t-24 -37.5
t-36 -25.5t-45 -9.5t-45.5 9t-37.5 25t-25 37t-9 45q0 11 1 16v732q0 24 9 45t25 37t37 25t45 9q20 0 38.5 -7t33.5 -19t25.5 -29t14.5 -36q119 118 269 118q171 0 266 -108q83 -90 83 -298v-482zM808 1375q-2 -1 -2 -1.5t-1 -1.5l-224 -203h-1q1 0 0 -1q-12 -15 -28 -22
t-33 -8t-33.5 4.5t-31.5 16.5q-13 11 -21 27t-9.5 33t4 33.5t18.5 31.5q4 5 5 7l174 225q2 2 2 3.5t2 3.5q11 13 29 22.5t39.5 12t44 -3.5t42.5 -23q23 -19 34 -40.5t12.5 -42.5t-4.5 -40t-18 -33z" />
    <glyph glyph-name="ncaron" unicode="&#x148;" horiz-adv-x="1123" 
d="M983 114q0 -2 -0.5 -4.5t-0.5 -4.5q-1 -23 -10.5 -42.5t-25 -34t-35.5 -23t-43 -8.5q-24 0 -44.5 9t-36 24.5t-24.5 36t-9 44.5q0 9 1 14v416q0 145 -40 200q-41 57 -143 57q-114 0 -160 -75q-47 -73 -47 -256v-328q2 -7 2 -12.5v-13.5q0 -24 -9 -45.5t-24 -37.5
t-36 -25.5t-45 -9.5t-45.5 9t-37.5 25t-25 37t-9 45q0 11 1 16v732q0 24 9 45t25 37t37 25t45 9q20 0 38.5 -7t33.5 -19t25.5 -29t14.5 -36q119 118 269 118q171 0 266 -108q83 -90 83 -298v-482zM933 1445l-351 -321l-356 321l154 119l201 -190l200 190z" />
    <glyph glyph-name="ohungarumlaut" unicode="&#x151;" horiz-adv-x="1231" 
d="M96 494q0 211 151 359t368 148q218 0 370 -149q150 -149 150 -366q0 -219 -151 -367q-152 -147 -373 -147q-219 0 -367 150q-148 148 -148 372zM326 490q0 -146 78 -231q80 -86 211 -86q132 0 211 85t79 227t-79 227q-80 86 -211 86q-129 0 -209 -86t-80 -222zM713 1454
l-334 -330l-99 76l244 364zM1130 1454l-334 -330l-99 76l243 364z" />
    <glyph glyph-name="rcaron" unicode="&#x159;" horiz-adv-x="766" 
d="M632 997q22 -2 41 -11t33.5 -24.5t22.5 -35.5t8 -42q0 -23 -9 -43.5t-24 -36t-35.5 -24.5t-43.5 -9q-8 0 -15.5 1t-15.5 3l-2 1q-11 3 -20 4t-20 1q-185 0 -185 -279v-378q1 -5 1 -16q0 -23 -9 -43.5t-24.5 -36t-36 -24.5t-43.5 -9q-24 0 -44.5 9t-36 24.5t-24.5 36
t-9 43.5v1v747v2q0 24 9 44.5t24.5 36t36.5 24.5t45 9q40 0 71 -24.5t39 -62.5h1q62 65 110 89q49 25 117 25h18.5t19.5 -2zM767 1445l-351 -321l-356 321l154 119l201 -190l200 190z" />
    <glyph glyph-name="uring" unicode="&#x16f;" horiz-adv-x="1116" 
d="M973 854v-443q0 -115 -29 -202q-28 -76 -97 -137q-114 -99 -290 -99q-175 0 -289 99q-35 31 -60 65t-39 72q-28 68 -28 202v451v1q0 23 9 43.5t24 35.5t35.5 24t44.5 9q23 0 43.5 -9t35.5 -24t24 -35.5t9 -43.5v-1v-445q0 -243 191 -243t191 243v445q0 23 9 43.5t24 36
t35.5 24.5t43.5 9q24 0 44.5 -9t35.5 -24.5t24 -36t9 -43.5v-8zM349 1345q0 88 64 151q64 64 153 64q91 0 154 -64q64 -64 64 -154t-64 -154q-63 -64 -153 -64q-91 0 -155 64q-63 64 -63 157zM468 1343q0 -43 28.5 -71.5t70.5 -28.5t70.5 28.5t28.5 70.5t-28.5 70.5
t-70.5 28.5q-21 0 -39 -8t-31.5 -21.5t-21 -31.5t-7.5 -37z" />
    <glyph glyph-name="uhungarumlaut" unicode="&#x171;" horiz-adv-x="1116" 
d="M973 854v-443q0 -115 -29 -202q-28 -76 -97 -137q-114 -99 -290 -99q-175 0 -289 99q-35 31 -60 65t-39 72q-28 68 -28 202v451v1q0 23 9 43.5t24 35.5t35.5 24t44.5 9q23 0 43.5 -9t35.5 -24t24 -35.5t9 -43.5v-1v-445q0 -243 191 -243t191 243v445q0 23 9 43.5t24 36
t35.5 24.5t43.5 9q24 0 44.5 -9t35.5 -24.5t24 -36t9 -43.5v-8zM687 1454l-334 -330l-99 76l244 364zM1104 1454l-334 -330l-99 76l243 364z" />
    <glyph glyph-name="tcedilla" unicode="&#x163;" horiz-adv-x="560" 
d="M446 974q22 0 41 -8.5t33 -22.5t22.5 -33t8.5 -41t-8.5 -41t-22.5 -33t-33 -22t-41 -8h-4l-12 -1q-23 -1 -38.5 -17.5t-15.5 -39.5v-594v-2q0 -23 -8.5 -43.5t-23.5 -35.5t-35.5 -23.5t-44.5 -8.5q-23 0 -43.5 8.5t-36 23.5t-24.5 35.5t-9 43.5v4v592q0 17 -9.5 30.5
t-23.5 21.5q-14 2 -26 6q-2 1 -3.5 1t-3.5 2q-29 13 -47 40t-18 61t18 60.5t47 40.5q2 2 4.5 2t4.5 1q10 4 24 6q14 7 23.5 20.5t9.5 30.5v187q0 23 9 43.5t24 35.5t35.5 24t43.5 9t43.5 -9t36 -24t24.5 -35.5t9 -43.5v-187q0 -23 16 -39.5t39 -16.5h13h2v0zM378 -440
l-75 -151l-125 53l61 151l-5 46h-81v250h225v-349z" />
    <glyph glyph-name="Emacron" unicode="&#x112;" 
d="M926 221q23 0 43 -8.5t34.5 -23.5t23 -35t8.5 -42q0 -23 -9 -43t-24 -35t-35 -23.5t-42 -8.5h-5h-684q-22 2 -37 17.5t-16 38.5v1435q2 23 17 38.5t38 16.5h682h6q22 0 42 -8.5t35 -23.5t23.5 -35t8.5 -42q0 -23 -8.5 -43t-23.5 -35t-35 -23.5t-43 -8.5h-3v-1h-451
q-23 0 -38 -16t-17 -39v-338q1 -24 18 -40.5t40 -16.5l436 -1q22 0 41.5 -9t34 -23.5t23 -34.5t8.5 -42q0 -23 -8.5 -42.5t-23 -34.5t-34 -23.5t-41.5 -9.5h-1h-2h-3h-433q-23 -1 -38 -16.5t-17 -38.5v-326q1 -23 16.5 -38.5t37.5 -17.5h450h6v0zM241 1907h701v-180h-701
v180z" />
    <glyph glyph-name="Macron" 
d="M241 1907h701v-180h-701v180z" />
    <glyph glyph-name="Amacron" unicode="&#x100;" horiz-adv-x="1517" 
d="M1438 156q9 -21 7.5 -44t-11.5 -43.5t-27 -36.5t-39 -25q-21 -8 -43.5 -7t-42.5 10t-35.5 25t-24.5 37l-6 11l-106 250q-3 6 -8.5 13t-12.5 14t-16.5 11.5t-21.5 4.5h-584q-20 0 -33.5 -13t-20.5 -25l-124 -269q-13 -31 -41 -49.5t-63 -18.5q-24 0 -44.5 9t-35.5 24.5
t-24 36t-9 44.5q0 23 8 40l5 12l614 1322q2 4 8 13t15 18.5t21 16.5t27 7q16 0 29 -9t22 -20q11 -13 19 -29l598 -1329v-1zM946 596q18 0 25 7t8 15q1 10 -3 22l-202 464q-5 10 -9 7.5t-6 -5.5l-213 -468q-1 -3 -2 -10t0.5 -13.5t8 -12t20.5 -6.5h374h-1zM417 1907h701v-180
h-701v180z" />
    <glyph glyph-name="amacron" unicode="&#x101;" horiz-adv-x="1228" 
d="M914 0q-23 0 -39 14.5t-18 37.5v50q-139 -130 -297 -130q-202 0 -333 146q-132 148 -132 371q0 219 132 365q129 146 327 146q168 0 303 -140q0 23 9 43.5t24 36t35.5 24.5t43.5 9q24 0 45 -9t36.5 -24.5t24.5 -36t9 -43.5q0 -2 -0.5 -3t-0.5 -2h1l-1 -799
q0 -23 -16.5 -39.5t-40.5 -16.5h-112zM796 259q77 91 77 225q0 136 -77 225q-77 87 -201 87q-114 0 -192 -87q-78 -90 -78 -220q0 -138 76 -226q78 -90 193 -90q124 0 202 86zM277 1343h701v-180h-701v180z" />
    <glyph glyph-name="emacron" unicode="&#x113;" horiz-adv-x="1133" 
d="M943 125q-48 -52 -106 -89q-56 -33 -121 -50q-64 -16 -141 -16q-219 0 -351 141q-132 139 -132 374q0 231 128 374q128 141 343 141q109 0 193 -33.5t147 -103.5q125 -136 125 -376q-2 -23 -18.5 -39t-39.5 -16h-590q-4 0 -13 -1t-17.5 -5.5t-13.5 -14t-2 -26.5
q16 -87 71 -143q70 -70 178 -70q84 0 140 40q15 11 31.5 28.5t35.5 40.5q15 21 38.5 33t49.5 12q23 0 43 -8.5t34.5 -23.5t23 -35t8.5 -42q0 -39 -24 -69q-1 -2 -2 -2.5t-2 -1.5zM358 661q-2 -5 -3 -12.5t2 -14.5t11.5 -12.5t26.5 -5.5h3h353q14 1 21 6.5t9.5 12t1.5 13
t-2 11.5q-56 138 -213 138q-44 0 -77 -13q-36 -12 -66 -36q-15 -12 -27.5 -25.5t-22.5 -30.5q-5 -8 -9 -15.5t-8 -15.5zM222 1343h701v-180h-701v180z" />
    <glyph glyph-name="Edotaccent" unicode="&#x116;" 
d="M926 221q23 0 43 -8.5t34.5 -23.5t23 -35t8.5 -42q0 -23 -9 -43t-24 -35t-35 -23.5t-42 -8.5h-5h-684q-22 2 -37 17.5t-16 38.5v1435q2 23 17 38.5t38 16.5h682h6q22 0 42 -8.5t35 -23.5t23.5 -35t8.5 -42q0 -23 -8.5 -43t-23.5 -35t-35 -23.5t-43 -8.5h-3v-1h-451
q-23 0 -38 -16t-17 -39v-338q1 -24 18 -40.5t40 -16.5l436 -1q22 0 41.5 -9t34 -23.5t23 -34.5t8.5 -42q0 -23 -8.5 -42.5t-23 -34.5t-34 -23.5t-41.5 -9.5h-1h-2h-3h-433q-23 -1 -38 -16.5t-17 -38.5v-326q1 -23 16.5 -38.5t37.5 -17.5h450h6v0zM461 1851q0 61 44 105
q47 44 107 44q62 0 106 -44q45 -44 45 -106q0 -64 -45 -107q-44 -44 -106 -44q-63 0 -107 44q-44 47 -44 108z" />
    <glyph glyph-name="edotaccent" unicode="&#x117;" horiz-adv-x="1133" 
d="M943 125q-48 -52 -106 -89q-56 -33 -121 -50q-64 -16 -141 -16q-219 0 -351 141q-132 139 -132 374q0 231 128 374q128 141 343 141q109 0 193 -33.5t147 -103.5q125 -136 125 -376q-2 -23 -18.5 -39t-39.5 -16h-590q-4 0 -13 -1t-17.5 -5.5t-13.5 -14t-2 -26.5
q16 -87 71 -143q70 -70 178 -70q84 0 140 40q15 11 31.5 28.5t35.5 40.5q15 21 38.5 33t49.5 12q23 0 43 -8.5t34.5 -23.5t23 -35t8.5 -42q0 -39 -24 -69q-1 -2 -2 -2.5t-2 -1.5zM358 661q-2 -5 -3 -12.5t2 -14.5t11.5 -12.5t26.5 -5.5h3h353q14 1 21 6.5t9.5 12t1.5 13
t-2 11.5q-56 138 -213 138q-44 0 -77 -13q-36 -12 -66 -36q-15 -12 -27.5 -25.5t-22.5 -30.5q-5 -8 -9 -15.5t-8 -15.5zM426 1292q0 60 44 104q47 44 107 44q62 0 106 -44q45 -44 45 -106q0 -63 -45 -106q-44 -44 -106 -44q-63 0 -107 44t-44 108z" />
    <glyph glyph-name="gcedilla" unicode="&#x123;" horiz-adv-x="1226" 
d="M1083 864q0 -2 0.5 -3.5t0.5 -2.5v-835q0 -35 -1.5 -65t-3.5 -56q-5 -53 -12 -93q-26 -110 -94 -189q-132 -152 -363 -152q-196 0 -321 106q-68 56 -106 135q-13 26 -13 53q0 23 9 43.5t24 35.5t35.5 24t43.5 9q37 0 65.5 -21.5t39.5 -55.5q5 -10 10 -18.5t11 -16.5
q69 -90 204 -90q247 0 247 302v77l-1 1q0 21 -8.5 24.5t-19.5 -0.5q-12 -4 -28 -17h-1q-113 -86 -252 -86q-199 0 -325 144q-128 146 -128 365q0 211 119 362q128 158 338 158q183 0 306 -138q0 23 9 43.5t24.5 35.5t36 23.5t43.5 8.5t43.5 -8.5t35.5 -23.5t23.5 -35.5
t8.5 -43.5zM800 268q69 84 69 218q0 140 -76 225q-78 87 -197 87q-129 0 -202 -94q-67 -85 -67 -220q0 -132 67 -217q73 -93 202 -93q128 0 204 94zM495 1472l75 151l125 -53l-61 -151l5 -46h81v-250h-225v349z" />
    <glyph glyph-name="Iogonek" unicode="&#x12e;" horiz-adv-x="604" 
d="M417 118q0 -24 -9 -45.5t-25 -37.5t-37 -25t-45 -9t-45 10.5t-37 28t-25 39.5t-10 46v1302v3q0 24 9 45.5t24.5 37.5t37 25t45.5 9t45.5 -9.5t37.5 -25.5t25 -37.5t9 -45.5v-2v-1302v-7zM189 0h196q-194 -129 -194 -224q0 -82 101 -82q29 0 64.5 5t80.5 15l-23 -166
q-79 -49 -172 -49q-110 0 -183 61q-73 58 -73 151q0 90 46 151q46 66 157 138z" />
    <glyph glyph-name="iogonek" unicode="&#x12f;" horiz-adv-x="510" 
d="M256 1231q-62 0 -104 43q-44 44 -44 105q0 58 44 102q43 43 103 43q59 0 104 -43q43 -42 43 -103t-43 -104q-42 -43 -103 -43zM256 975q24 0 44.5 -9t35.5 -24.5t24 -36t9 -43.5v-3v-744q-1 -1 -1 -3q0 -23 -9 -43t-24 -35t-35.5 -24t-43.5 -9t-43.5 9t-35.5 24t-24 35.5
t-9 43.5v12v734v3q0 23 9 43.5t24 36t35.5 24.5t43.5 9zM147 0h196q-194 -129 -194 -224q0 -82 101 -82q29 0 64.5 5t80.5 15l-23 -166q-79 -49 -172 -49q-110 0 -183 61q-73 58 -73 151q0 90 46 151q46 66 157 138z" />
    <glyph glyph-name="Imacron" unicode="&#x12a;" horiz-adv-x="604" 
d="M417 118q0 -24 -9 -45.5t-25 -37.5t-37 -25t-45 -9t-45 10.5t-37 28t-25 39.5t-10 46v1302v3q0 24 9 45.5t24.5 37.5t37 25t45.5 9t45.5 -9.5t37.5 -25.5t25 -37.5t9 -45.5v-2v-1302v-7zM3 1907h603v-180h-603v180z" />
    <glyph glyph-name="ooze" horiz-adv-x="604" 
d="M3 1907h603v-180h-603v180z" />
    <glyph glyph-name="imacron" unicode="&#x12b;" horiz-adv-x="510" 
d="M367 974v-974h-225v974h225zM0 1343h510v-180h-510v180z" />
    <glyph glyph-name="uniE775" horiz-adv-x="510" 
d="M0 1343h510v-180h-510v180z" />
    <glyph glyph-name="Kcedilla" unicode="&#x136;" horiz-adv-x="1357" 
d="M670 885v1q-17 -16 -19 -38.5t12 -40.5l507 -608q14 -16 21.5 -36t7.5 -43q0 -25 -9.5 -46.5t-26 -38t-38 -26t-46.5 -9.5q-30 0 -55.5 13.5t-42.5 36.5l-480 593q-6 8 -20 15.5t-28 6.5t-25 -14t-11 -46l-1 -493q0 -24 -9.5 -44t-25 -35t-36.5 -23.5t-45 -8.5t-45 9
t-37 25t-25 36.5t-9 44.5h-1v1312l1 3q0 24 9 45.5t25 37t37 24.5t45 9t45 -9t37 -25t25 -37t9 -45v-1h1v-454q1 -11 6.5 -19t22.5 3l537 551h1q32 35 81 35q22 0 42 -8.5t35 -23.5t24 -35t9 -43q0 -22 -8 -41.5t-22 -33.5zM757 -440l-75 -151l-125 53l61 151l-5 46h-81v250
h225v-349z" />
    <glyph glyph-name="Lcedilla" unicode="&#x13b;" horiz-adv-x="908" 
d="M182 1428q0 24 9 45t25 37t37 25t45 9t45.5 -9.5t37 -25t24.5 -37t9 -45.5v-1v-1154q2 -22 17.5 -37.5t38.5 -16.5h294q22 -1 41.5 -9.5t33.5 -23t22.5 -34t8.5 -41.5q0 -23 -8.5 -42.5t-22.5 -34.5t-33.5 -23.5t-41.5 -9.5h-525q-23 0 -39.5 16.5t-17.5 39.5v1372z
M631 -440l-75 -151l-125 53l61 151l-5 46h-81v250h225v-349z" />
    <glyph glyph-name="lcedilla" unicode="&#x13c;" horiz-adv-x="510" 
d="M366 111q0 -24 -9 -44.5t-24 -35.5t-35.5 -23.5t-44.5 -8.5q-23 0 -43.5 9t-35.5 24t-24 35.5t-9 44.5v9v1455v2q0 23 9 44t24 36.5t35.5 24.5t43.5 9t43.5 -9t36 -24.5t24.5 -36t9 -43.5v-1455v-13zM372 -440l-75 -151l-125 53l61 151l-5 46h-81v250h225v-349z" />
    <glyph glyph-name="Ncedilla" unicode="&#x145;" horiz-adv-x="1729" 
d="M1440 100q0 -18 -2 -34.5t-8 -29.5t-16 -22t-26 -11q-20 -3 -34.5 3.5t-26.5 17.5t-22.5 24.5t-22.5 24.5l-27 29l-2 2l-580 829q-12 12 -20 15t-12.5 0t-6 -9t-2.5 -12v-8h1h-1v-802q0 -24 -9 -45t-25 -36.5t-37 -24.5t-45 -9t-44.5 9t-36.5 24.5t-25 36t-10 44.5v1371
q1 6 4 16t9.5 19.5t17 16t25.5 6.5q18 0 32 -5t26 -13.5t23 -19t22 -22.5l613 -867q10 -9 17 -11t10.5 0.5t5.5 8t2 10.5v809v2q1 23 10.5 43t25.5 35t36.5 23.5t43.5 8.5q24 0 45.5 -9.5t37.5 -25t25 -37t9 -45.5v-1330zM1015 -440l-75 -151l-125 53l61 151l-5 46h-81v250
h225v-349z" />
    <glyph glyph-name="ncedilla" unicode="&#x146;" horiz-adv-x="1123" 
d="M983 114q0 -2 -0.5 -4.5t-0.5 -4.5q-1 -23 -10.5 -42.5t-25 -34t-35.5 -23t-43 -8.5q-24 0 -44.5 9t-36 24.5t-24.5 36t-9 44.5q0 9 1 14v416q0 145 -40 200q-41 57 -143 57q-114 0 -160 -75q-47 -73 -47 -256v-328q2 -7 2 -12.5v-13.5q0 -24 -9 -45.5t-24 -37.5
t-36 -25.5t-45 -9.5t-45.5 9t-37.5 25t-25 37t-9 45q0 11 1 16v732q0 24 9 45t25 37t37 25t45 9q20 0 38.5 -7t33.5 -19t25.5 -29t14.5 -36q119 118 269 118q171 0 266 -108q83 -90 83 -298v-482zM689 -440l-75 -151l-125 53l61 151l-5 46h-81v250h225v-349z" />
    <glyph glyph-name="Omacron" unicode="&#x14c;" horiz-adv-x="1830" 
d="M108 779q0 326 239 560q238 234 572 234q330 0 566 -236q237 -236 237 -567q0 -333 -238 -565q-239 -233 -577 -233q-299 0 -537 207q-262 229 -262 600zM343 776q0 -256 172 -421q171 -165 395 -165q243 0 410 168q167 170 167 414q0 247 -165 414q-164 168 -406 168
q-241 0 -407 -168q-166 -166 -166 -410zM571 1907h701v-180h-701v180z" />
    <glyph glyph-name="omacron" unicode="&#x14d;" horiz-adv-x="1231" 
d="M96 494q0 211 151 359t368 148q218 0 370 -149q150 -149 150 -366q0 -219 -151 -367q-152 -147 -373 -147q-219 0 -367 150q-148 148 -148 372zM326 490q0 -146 78 -231q80 -86 211 -86q132 0 211 85t79 227t-79 227q-80 86 -211 86q-129 0 -209 -86t-80 -222zM268 1343
h701v-180h-701v180z" />
    <glyph glyph-name="Rcedilla" unicode="&#x156;" horiz-adv-x="1233" 
d="M1051 193q13 -15 20.5 -34t7.5 -42q0 -24 -9 -45t-25 -36.5t-37.5 -25t-45.5 -9.5q-31 0 -57 15t-41 41l-384 550q-2 4 -13.5 14.5t-25.5 11.5q-9 0 -15 -8.5t-7 -33.5v-467v-7v-5v-2q-2 -23 -11.5 -43t-25 -34.5t-36 -23t-44.5 -8.5t-44.5 9t-36.5 24t-25 35.5t-10 44.5
v4v1373q0 24 16.5 40.5t39.5 17.5h217q307 0 444 -116q150 -129 150 -338q0 -164 -95 -283q-76 -97 -194 -136q-10 -3 -17 -6t-12 -6t-7 -5q-7 -10 0 -24zM494 838q331 0 331 253q0 238 -322 238h-28q-23 -1 -39 -16.5t-17 -38.5v-382q2 -23 17 -38t37 -16h21zM723 -440
l-75 -151l-125 53l61 151l-5 46h-81v250h225v-349z" />
    <glyph glyph-name="rcedilla" unicode="&#x157;" horiz-adv-x="766" 
d="M632 997q22 -2 41 -11t33.5 -24.5t22.5 -35.5t8 -42q0 -23 -9 -43.5t-24 -36t-35.5 -24.5t-43.5 -9q-8 0 -15.5 1t-15.5 3l-2 1q-11 3 -20 4t-20 1q-185 0 -185 -279v-378q1 -5 1 -16q0 -23 -9 -43.5t-24.5 -36t-36 -24.5t-43.5 -9q-24 0 -44.5 9t-36 24.5t-24.5 36
t-9 43.5v1v747v2q0 24 9 44.5t24.5 36t36.5 24.5t45 9q40 0 71 -24.5t39 -62.5h1q62 65 110 89q49 25 117 25h18.5t19.5 -2zM487 -440l-75 -151l-125 53l61 151l-5 46h-81v250h225v-349z" />
    <glyph glyph-name="Umacron" unicode="&#x16a;" horiz-adv-x="1513" 
d="M1338 1433v-886q0 -244 -154 -406q-170 -176 -423 -176t-423 176q-153 160 -153 406v886q0 24 9.5 45t25.5 37t37 25t45 9t45.5 -9t37.5 -25t25.5 -37t9.5 -45v-821q0 -199 65 -293q99 -134 276 -134q179 0 275 134q67 89 67 293v821q0 24 9 45t25 37t37 25t45 9
q25 0 46.5 -9t37.5 -25t25 -37t9 -45h1zM409 1907h701v-180h-701v180z" />
    <glyph glyph-name="umacron" unicode="&#x16b;" horiz-adv-x="1116" 
d="M973 854v-443q0 -115 -29 -202q-28 -76 -97 -137q-114 -99 -290 -99q-175 0 -289 99q-35 31 -60 65t-39 72q-28 68 -28 202v451v1q0 23 9 43.5t24 35.5t35.5 24t44.5 9q23 0 43.5 -9t35.5 -24t24 -35.5t9 -43.5v-1v-445q0 -243 191 -243t191 243v445q0 23 9 43.5t24 36
t35.5 24.5t43.5 9q24 0 44.5 -9t35.5 -24.5t24 -36t9 -43.5v-8zM215 1343h701v-180h-701v180z" />
    <glyph glyph-name="Uogonek" unicode="&#x172;" horiz-adv-x="1513" 
d="M1338 1433v-886q0 -244 -154 -406q-170 -176 -423 -176t-423 176q-153 160 -153 406v886q0 24 9.5 45t25.5 37t37 25t45 9t45.5 -9t37.5 -25t25.5 -37t9.5 -45v-821q0 -199 65 -293q99 -134 276 -134q179 0 275 134q67 89 67 293v821q0 24 9 45t25 37t37 25t45 9
q25 0 46.5 -9t37.5 -25t25 -37t9 -45h1zM744 0h196q-194 -129 -194 -224q0 -82 101 -82q29 0 64.5 5t80.5 15l-23 -166q-79 -49 -172 -49q-110 0 -183 61q-73 58 -73 151q0 90 46 151q46 66 157 138z" />
    <glyph glyph-name="uogonek" unicode="&#x173;" horiz-adv-x="1116" 
d="M973 854v-443q0 -115 -29 -202q-28 -76 -97 -137q-114 -99 -290 -99q-175 0 -289 99q-35 31 -60 65t-39 72q-28 68 -28 202v451v1q0 23 9 43.5t24 35.5t35.5 24t44.5 9q23 0 43.5 -9t35.5 -24t24 -35.5t9 -43.5v-1v-445q0 -243 191 -243t191 243v445q0 23 9 43.5t24 36
t35.5 24.5t43.5 9q24 0 44.5 -9t35.5 -24.5t24 -36t9 -43.5v-8zM534 0h196q-194 -129 -194 -224q0 -82 101 -82q29 0 64.5 5t80.5 15l-23 -166q-79 -49 -172 -49q-110 0 -183 61q-73 58 -73 151q0 90 46 151q46 66 157 138z" />
    <glyph glyph-name="kcedilla" unicode="&#x137;" horiz-adv-x="1020" 
d="M863 189q31 -33 31 -78q0 -24 -9 -44.5t-24 -36t-36 -24.5t-45 -9q-47 0 -79 32l-6 6q-2 3 -5 6.5t-5 6.5l-283 362l-36 -36v-260q0 -1 -1 -2v-1q0 -23 -8.5 -43.5t-23.5 -35.5t-35.5 -24t-44.5 -9q-23 0 -43 8.5t-35 23t-24 34t-10 42.5v6v1462l-1 2q0 24 9 44.5
t24 35.5t35.5 24t44.5 9q23 0 43.5 -9t35.5 -24t24 -35.5t9 -44.5h1v-918l287 285v-1q29 31 74 31t75 -30t30 -75q0 -20 -7.5 -38.5t-20.5 -32.5l-2 -2q0 -1 -1 -1l-239 -231l301 -375v0zM617 -440l-75 -151l-125 53l61 151l-5 46h-81v250h225v-349z" />
    <glyph glyph-name="Gcedilla" unicode="&#x122;" horiz-adv-x="1725" 
d="M1469 1352q8 -8 10.5 -13t6.5 -3q13 -16 18 -33t5 -38q0 -23 -9 -43.5t-24.5 -35.5t-36 -24t-43.5 -9q-20 0 -36.5 3.5t-31.5 17.5v1q-172 181 -404 181q-244 0 -413 -169q-167 -169 -167 -419q0 -259 186 -427q174 -156 377 -156q172 0 310 117q122 104 149 246
q1 9 -4 21.5t-27 12.5h-240v1h-1q-23 0 -43 8.5t-35 23.5t-23.5 35t-8.5 43q0 22 8.5 42t23.5 35t35 23.5t43 8.5h12h462q23 0 39 -15.5t18 -37.5q0 -173 -41 -307q-40 -125 -136 -233q-216 -244 -549 -244q-325 0 -558 235q-232 236 -232 567q0 337 237 573
q236 236 574 236q180 0 340 -74q26 -13 61 -37.5t67.5 -48.5t55.5 -43t25 -21zM1024 -440l-75 -151l-125 53l61 151l-5 46h-81v250h225v-349z" />
    <glyph glyph-name="apple" unicode="&#xf8ff;" horiz-adv-x="1618" 
d="M836 1204q41 0 145 35t178 35q123 0 219 -66q27 -20 53.5 -44.5t53.5 -57.5q-80 -70 -117 -123q-68 -94 -68 -211q0 -127 72 -229q70 -101 162 -129q-21 -62 -51.5 -126.5t-73.5 -129.5q-131 -195 -264 -195q-55 0 -146 33q-88 27 -153 27q-68 0 -148 -29
q-86 -35 -135 -35q-155 0 -307 260q-152 262 -152 516q0 234 115 383q117 148 293 148q76 0 182 -31q109 -31 142 -31zM1149 1618q0 -66 -31 -141.5t-94 -141.5q-59 -55 -113 -73q-39 -11 -104 -17q2 152 79 263.5t257 152.5q4 -14 5 -24.5t1 -18.5z" />
    <glyph glyph-name="gravecmb" unicode="&#x300;" horiz-adv-x="0" 
d="M-893 1361q-12 14 -19 32.5t-6 39.5t11 43t32 42q19 18 41.5 24.5t44 5t40 -10t29.5 -21.5q2 -2 2.5 -3.5t2.5 -3.5l182 -218q1 -2 6 -7q13 -14 19 -30.5t5.5 -33.5t-8 -33t-20.5 -28q-14 -12 -30.5 -18t-33.5 -5.5t-33 7t-29 20.5q-1 1 0 1h-1l-232 194q-1 1 -1 1.5
t-2 1.5z" />
    <glyph glyph-name="acutecmb" unicode="&#x301;" horiz-adv-x="0" 
d="M-283 1375q-2 -1 -2 -1.5t-1 -1.5l-224 -203h-1q1 0 0 -1q-12 -15 -28 -22t-33 -8t-33.5 4.5t-31.5 16.5q-13 11 -21 27t-9.5 33t4 33.5t18.5 31.5q4 5 5 7l174 225q2 2 2 3.5t2 3.5q11 13 29 22.5t39.5 12t44 -3.5t42.5 -23q23 -19 34 -40.5t12.5 -42.5t-4.5 -40
t-18 -33z" />
    <glyph glyph-name="circumflexcmb" unicode="&#x302;" horiz-adv-x="0" 
d="M-286 1308q17 -15 26 -35t9 -43q0 -21 -8 -39.5t-21.5 -32t-32 -21.5t-39.5 -8q-23 0 -42 9t-34 24l-105 99q-16 16 -37 17.5t-38 -11.5l-114 -106q-30 -30 -72 -30q-21 0 -39.5 7.5t-32 21t-21.5 31.5t-8 39q0 26 12 48.5t32 36.5l235 213q17 18 42.5 18t43.5 -18l-1 1
l245 -221v0z" />
    <glyph glyph-name="tildecmb" unicode="&#x303;" horiz-adv-x="0" 
d="M-855 1140l-131 111l29 41q28 40 54 67.5t53 45t56 25t63 7.5q78 0 181 -52q104 -53 134 -53q56 0 124 108l127 -106q-96 -192 -260 -192q-56 0 -183 56q-91 46 -136 46q-55 0 -111 -104z" />
    <glyph glyph-name="macroncmb" unicode="&#x304;" horiz-adv-x="0" 
d="M-926 1343h701v-180h-701v180z" />
    <glyph glyph-name="brevecmb" unicode="&#x306;" horiz-adv-x="0" 
d="M-934 1462h185q22 -157 174 -157q151 0 173 157h185q-15 -166 -106.5 -250.5t-256.5 -84.5q-153 0 -248 89q-94 88 -106 246z" />
    <glyph glyph-name="dotaccentcmb" unicode="&#x307;" horiz-adv-x="0" 
d="M-727 1292q0 60 44 104q47 44 107 44q62 0 106 -44q45 -44 45 -106q0 -63 -45 -106q-44 -44 -106 -44q-63 0 -107 44t-44 108z" />
    <glyph glyph-name="dieresiscmb" unicode="&#x308;" horiz-adv-x="0" 
d="M-928 1284q0 58 42 99q42 42 101 42t101 -42q42 -41 42 -100q0 -60 -42 -102q-44 -41 -101 -41q-60 0 -102 42q-41 44 -41 102zM-510 1284q0 58 42 99q43 42 101 42q60 0 101 -42q42 -41 42 -100q0 -60 -42 -102q-44 -41 -101 -41q-59 0 -101 42t-42 102z" />
    <glyph glyph-name="ringcmb" unicode="&#x30a;" horiz-adv-x="0" 
d="M-763 1345q0 88 64 151q64 64 153 64q91 0 154 -64q64 -64 64 -154t-64 -154q-63 -64 -153 -64q-91 0 -155 64q-63 64 -63 157zM-644 1343q0 -43 28.5 -71.5t70.5 -28.5t70.5 28.5t28.5 70.5t-28.5 70.5t-70.5 28.5q-21 0 -39 -8t-31.5 -21.5t-21 -31.5t-7.5 -37z" />
    <glyph glyph-name="hungarumlautcmb" unicode="&#x30b;" horiz-adv-x="0" 
d="M-429 1454l-334 -330l-99 76l244 364zM-12 1454l-334 -330l-99 76l243 364z" />
    <glyph glyph-name="caroncmb" unicode="&#x30c;" horiz-adv-x="0" 
d="M-222 1445l-351 -321l-356 321l154 119l201 -190l200 190z" />
    <glyph glyph-name="cedillacmb" unicode="&#x327;" horiz-adv-x="0" 
d="M-368 -199l-239 -306l-146 73l199 309z" />
    <glyph glyph-name="ogonekcmb" unicode="&#x328;" horiz-adv-x="0" 
d="M-667 0h196q-194 -129 -194 -224q0 -82 101 -82q29 0 64.5 5t80.5 15l-23 -166q-79 -49 -172 -49q-110 0 -183 61q-73 58 -73 151q0 90 46 151q46 66 157 138z" />
    <glyph glyph-name="soliduslongoverlaycmb" unicode="&#x338;" horiz-adv-x="0" 
d="M-44 1535q0 -3 -1 -4l-804 -1856v-1l-1 -2q-11 -27 -36 -43.5t-55 -16.5q-21 0 -39.5 8t-32.5 22t-22 32.5t-8 39.5q0 20 10 42l799 1848q10 31 36 51t61 20q21 0 39 -8t32 -22t22 -33t8 -40q0 -16 -7 -35z" />
    <glyph glyph-name="scommaaccent" unicode="&#x219;" horiz-adv-x="831" 
d="M601 -199l-239 -306l-146 73l199 309zM708 808l-186 -99q-44 90 -109 90q-31 0 -53 -20.5t-22 -52.5q0 -56 130 -111q179 -77 241 -142t62 -175q0 -141 -104 -236q-101 -90 -244 -90q-245 0 -347 239l192 89q40 -70 61 -89q41 -38 98 -38q114 0 114 104q0 60 -88 112
q-34 17 -68 33t-69 33q-98 48 -138 96q-51 61 -51 157q0 127 87 210q89 83 216 83q187 0 278 -193z" />
    <glyph glyph-name="commaaccent" unicode="&#x326;" horiz-adv-x="0" 
d="M-127 -440l-75 -151l-125 53l61 151l-5 46h-81v250h225v-349z" />
    <glyph glyph-name="Ccircumflex" unicode="&#x108;" horiz-adv-x="1435" 
d="M1185 260q41 14 82 1t61 -51q11 -21 12.5 -43.5t-5.5 -43t-21.5 -37.5t-35.5 -28q-4 -2 -7 -4t-7 -4q-76 -37 -156.5 -56t-161.5 -21q-10 0 -19 -0.5t-18 -0.5q-332 0 -566 231q-232 233 -232 563q0 295 195 526q239 283 621 283q173 0 340 -79q2 -2 6.5 -4t8.5 -4
q21 -11 35 -28.5t21 -38t5.5 -42.5t-11.5 -43q-10 -19 -26 -32t-35.5 -19.5t-40.5 -6.5t-41 8q-5 2 -12 5q-6 2 -14 5t-17 8q-58 26 -116.5 39t-118.5 13q-239 0 -401 -171q-164 -170 -164 -417q0 -243 164 -410t402 -167q17 0 34 1t34 3q41 5 81 17t81 29q9 4 17 8t14 6
q7 3 12 5zM1154 1872q17 -15 26 -35t9 -43q0 -21 -8 -39.5t-21.5 -32t-32 -21.5t-39.5 -8q-23 0 -42 9t-34 24l-105 99q-16 16 -37 17.5t-38 -11.5l-114 -106q-30 -30 -72 -30q-21 0 -39.5 7.5t-32 21t-21.5 31.5t-8 39q0 26 12 48.5t32 36.5l235 213q17 18 42.5 18
t43.5 -18l-1 1l245 -221v0z" />
    <glyph glyph-name="ccircumflex" unicode="&#x109;" horiz-adv-x="976" 
d="M796 214q22 0 41 -8.5t33 -23t22 -33.5t8 -41q0 -35 -20.5 -62t-52.5 -37q-101 -39 -200 -39q-227 0 -381 147q-153 148 -153 366t155 369q154 151 380 151q104 0 200 -36q31 -11 51.5 -38t20.5 -63q0 -22 -8.5 -41.5t-22.5 -34t-33.5 -23t-41.5 -8.5q-26 0 -50 13
q-55 26 -123 26q-128 0 -212 -87q-84 -90 -84 -225q0 -139 81 -226q84 -87 211 -87q75 0 134 31q22 10 45 10zM869 1308q17 -15 26 -35t9 -43q0 -21 -8 -39.5t-21.5 -32t-32 -21.5t-39.5 -8q-23 0 -42 9t-34 24l-105 99q-16 16 -37 17.5t-38 -11.5l-114 -106
q-30 -30 -72 -30q-21 0 -39.5 7.5t-32 21t-21.5 31.5t-8 39q0 26 12 48.5t32 36.5l235 213q17 18 42.5 18t43.5 -18l-1 1l245 -221v0z" />
    <glyph glyph-name="Cdotaccent" unicode="&#x10a;" horiz-adv-x="1435" 
d="M1185 260q41 14 82 1t61 -51q11 -21 12.5 -43.5t-5.5 -43t-21.5 -37.5t-35.5 -28q-4 -2 -7 -4t-7 -4q-76 -37 -156.5 -56t-161.5 -21q-10 0 -19 -0.5t-18 -0.5q-332 0 -566 231q-232 233 -232 563q0 295 195 526q239 283 621 283q173 0 340 -79q2 -2 6.5 -4t8.5 -4
q21 -11 35 -28.5t21 -38t5.5 -42.5t-11.5 -43q-10 -19 -26 -32t-35.5 -19.5t-40.5 -6.5t-41 8q-5 2 -12 5q-6 2 -14 5t-17 8q-58 26 -116.5 39t-118.5 13q-239 0 -401 -171q-164 -170 -164 -417q0 -243 164 -410t402 -167q17 0 34 1t34 3q41 5 81 17t81 29q9 4 17 8t14 6
q7 3 12 5zM748 1834q0 60 44 104q47 44 107 44q62 0 106 -44q45 -44 45 -106q0 -63 -45 -106q-44 -44 -106 -44q-63 0 -107 44t-44 108z" />
    <glyph glyph-name="cdotaccent" unicode="&#x10b;" horiz-adv-x="976" 
d="M796 214q22 0 41 -8.5t33 -23t22 -33.5t8 -41q0 -35 -20.5 -62t-52.5 -37q-101 -39 -200 -39q-227 0 -381 147q-153 148 -153 366t155 369q154 151 380 151q104 0 200 -36q31 -11 51.5 -38t20.5 -63q0 -22 -8.5 -41.5t-22.5 -34t-33.5 -23t-41.5 -8.5q-26 0 -50 13
q-55 26 -123 26q-128 0 -212 -87q-84 -90 -84 -225q0 -139 81 -226q84 -87 211 -87q75 0 134 31q22 10 45 10zM428 1292q0 60 44 104q47 44 107 44q62 0 106 -44q45 -44 45 -106q0 -63 -45 -106q-44 -44 -106 -44q-63 0 -107 44t-44 108z" />
    <glyph glyph-name="Ebreve" unicode="&#x114;" 
d="M926 221q23 0 43 -8.5t34.5 -23.5t23 -35t8.5 -42q0 -23 -9 -43t-24 -35t-35 -23.5t-42 -8.5h-5h-684q-22 2 -37 17.5t-16 38.5v1435q2 23 17 38.5t38 16.5h682h6q22 0 42 -8.5t35 -23.5t23.5 -35t8.5 -42q0 -23 -8.5 -43t-23.5 -35t-35 -23.5t-43 -8.5h-3v-1h-451
q-23 0 -38 -16t-17 -39v-338q1 -24 18 -40.5t40 -16.5l436 -1q22 0 41.5 -9t34 -23.5t23 -34.5t8.5 -42q0 -23 -8.5 -42.5t-23 -34.5t-34 -23.5t-41.5 -9.5h-1h-2h-3h-433q-23 -1 -38 -16.5t-17 -38.5v-326q1 -23 16.5 -38.5t37.5 -17.5h450h6v0zM249 2025h185
q22 -157 174 -157q151 0 173 157h185q-15 -166 -106.5 -250.5t-256.5 -84.5q-153 0 -248 89q-94 88 -106 246z" />
    <glyph glyph-name="ebreve" unicode="&#x115;" horiz-adv-x="1133" 
d="M943 125q-48 -52 -106 -89q-56 -33 -121 -50q-64 -16 -141 -16q-219 0 -351 141q-132 139 -132 374q0 231 128 374q128 141 343 141q109 0 193 -33.5t147 -103.5q125 -136 125 -376q-2 -23 -18.5 -39t-39.5 -16h-590q-4 0 -13 -1t-17.5 -5.5t-13.5 -14t-2 -26.5
q16 -87 71 -143q70 -70 178 -70q84 0 140 40q15 11 31.5 28.5t35.5 40.5q15 21 38.5 33t49.5 12q23 0 43 -8.5t34.5 -23.5t23 -35t8.5 -42q0 -39 -24 -69q-1 -2 -2 -2.5t-2 -1.5zM358 661q-2 -5 -3 -12.5t2 -14.5t11.5 -12.5t26.5 -5.5h3h353q14 1 21 6.5t9.5 12t1.5 13
t-2 11.5q-56 138 -213 138q-44 0 -77 -13q-36 -12 -66 -36q-15 -12 -27.5 -25.5t-22.5 -30.5q-5 -8 -9 -15.5t-8 -15.5zM221 1462h185q22 -157 174 -157q151 0 173 157h185q-15 -166 -106.5 -250.5t-256.5 -84.5q-153 0 -248 89q-94 88 -106 246z" />
    <glyph glyph-name="Gcircumflex" unicode="&#x11c;" horiz-adv-x="1725" 
d="M1469 1352q8 -8 10.5 -13t6.5 -3q13 -16 18 -33t5 -38q0 -23 -9 -43.5t-24.5 -35.5t-36 -24t-43.5 -9q-20 0 -36.5 3.5t-31.5 17.5v1q-172 181 -404 181q-244 0 -413 -169q-167 -169 -167 -419q0 -259 186 -427q174 -156 377 -156q172 0 310 117q122 104 149 246
q1 9 -4 21.5t-27 12.5h-240v1h-1q-23 0 -43 8.5t-35 23.5t-23.5 35t-8.5 43q0 22 8.5 42t23.5 35t35 23.5t43 8.5h12h462q23 0 39 -15.5t18 -37.5q0 -173 -41 -307q-40 -125 -136 -233q-216 -244 -549 -244q-325 0 -558 235q-232 236 -232 567q0 337 237 573
q236 236 574 236q180 0 340 -74q26 -13 61 -37.5t67.5 -48.5t55.5 -43t25 -21zM1202 1871q17 -15 26 -35t9 -43q0 -21 -8 -39.5t-21.5 -32t-32 -21.5t-39.5 -8q-23 0 -42 9t-34 24l-105 99q-16 16 -37 17.5t-38 -11.5l-114 -106q-30 -30 -72 -30q-21 0 -39.5 7.5t-32 21
t-21.5 31.5t-8 39q0 26 12 48.5t32 36.5l235 213q17 18 42.5 18t43.5 -18l-1 1l245 -221v0z" />
    <glyph glyph-name="gcircumflex" unicode="&#x11d;" horiz-adv-x="1226" 
d="M1083 864q0 -2 0.5 -3.5t0.5 -2.5v-835q0 -35 -1.5 -65t-3.5 -56q-5 -53 -12 -93q-26 -110 -94 -189q-132 -152 -363 -152q-196 0 -321 106q-68 56 -106 135q-13 26 -13 53q0 23 9 43.5t24 35.5t35.5 24t43.5 9q37 0 65.5 -21.5t39.5 -55.5q5 -10 10 -18.5t11 -16.5
q69 -90 204 -90q247 0 247 302v77l-1 1q0 21 -8.5 24.5t-19.5 -0.5q-12 -4 -28 -17h-1q-113 -86 -252 -86q-199 0 -325 144q-128 146 -128 365q0 211 119 362q128 158 338 158q183 0 306 -138q0 23 9 43.5t24.5 35.5t36 23.5t43.5 8.5t43.5 -8.5t35.5 -23.5t23.5 -35.5
t8.5 -43.5zM800 268q69 84 69 218q0 140 -76 225q-78 87 -197 87q-129 0 -202 -94q-67 -85 -67 -220q0 -132 67 -217q73 -93 202 -93q128 0 204 94zM869 1308q17 -15 26 -35t9 -43q0 -21 -8 -39.5t-21.5 -32t-32 -21.5t-39.5 -8q-23 0 -42 9t-34 24l-105 99q-16 16 -37 17.5
t-38 -11.5l-114 -106q-30 -30 -72 -30q-21 0 -39.5 7.5t-32 21t-21.5 31.5t-8 39q0 26 12 48.5t32 36.5l235 213q17 18 42.5 18t43.5 -18l-1 1l245 -221v0z" />
    <glyph glyph-name="Gdotaccent" unicode="&#x120;" horiz-adv-x="1725" 
d="M1469 1352q8 -8 10.5 -13t6.5 -3q13 -16 18 -33t5 -38q0 -23 -9 -43.5t-24.5 -35.5t-36 -24t-43.5 -9q-20 0 -36.5 3.5t-31.5 17.5v1q-172 181 -404 181q-244 0 -413 -169q-167 -169 -167 -419q0 -259 186 -427q174 -156 377 -156q172 0 310 117q122 104 149 246
q1 9 -4 21.5t-27 12.5h-240v1h-1q-23 0 -43 8.5t-35 23.5t-23.5 35t-8.5 43q0 22 8.5 42t23.5 35t35 23.5t43 8.5h12h462q23 0 39 -15.5t18 -37.5q0 -173 -41 -307q-40 -125 -136 -233q-216 -244 -549 -244q-325 0 -558 235q-232 236 -232 567q0 337 237 573
q236 236 574 236q180 0 340 -74q26 -13 61 -37.5t67.5 -48.5t55.5 -43t25 -21zM754 1841q0 60 44 104q47 44 107 44q62 0 106 -44q45 -44 45 -106q0 -63 -45 -106q-44 -44 -106 -44q-63 0 -107 44t-44 108z" />
    <glyph glyph-name="gdotaccent" unicode="&#x121;" horiz-adv-x="1226" 
d="M1083 864q0 -2 0.5 -3.5t0.5 -2.5v-835q0 -35 -1.5 -65t-3.5 -56q-5 -53 -12 -93q-26 -110 -94 -189q-132 -152 -363 -152q-196 0 -321 106q-68 56 -106 135q-13 26 -13 53q0 23 9 43.5t24 35.5t35.5 24t43.5 9q37 0 65.5 -21.5t39.5 -55.5q5 -10 10 -18.5t11 -16.5
q69 -90 204 -90q247 0 247 302v77l-1 1q0 21 -8.5 24.5t-19.5 -0.5q-12 -4 -28 -17h-1q-113 -86 -252 -86q-199 0 -325 144q-128 146 -128 365q0 211 119 362q128 158 338 158q183 0 306 -138q0 23 9 43.5t24.5 35.5t36 23.5t43.5 8.5t43.5 -8.5t35.5 -23.5t23.5 -35.5
t8.5 -43.5zM800 268q69 84 69 218q0 140 -76 225q-78 87 -197 87q-129 0 -202 -94q-67 -85 -67 -220q0 -132 67 -217q73 -93 202 -93q128 0 204 94zM428 1292q0 60 44 104q47 44 107 44q62 0 106 -44q45 -44 45 -106q0 -63 -45 -106q-44 -44 -106 -44q-63 0 -107 44t-44 108
z" />
    <glyph glyph-name="Hcircumflex" unicode="&#x124;" horiz-adv-x="1502" 
d="M1323 114v-1q-1 -24 -10.5 -44.5t-25 -35.5t-36.5 -23.5t-45 -8.5t-45.5 9t-37 25t-24.5 37t-9 45v14v542q-2 21 -16.5 36t-35.5 17h-563q-22 -2 -37.5 -17t-15.5 -38v-557v-1q-1 -24 -10.5 -44.5t-25.5 -35.5t-37 -23.5t-45 -8.5t-45.5 9.5t-37 25t-24.5 37t-9 45.5v14
v1290v12q0 24 9 45.5t25 37t37 25t45 9.5t45.5 -9.5t37.5 -25t25.5 -37t9.5 -45.5v-3v-430q0 -23 15.5 -38t37.5 -17h559q23 1 38.5 16t17.5 38v428q0 2 -0.5 3.5t-0.5 3.5q0 24 9.5 45t25 37t37 25t45.5 9t45.5 -9t37.5 -25t25 -37t9 -45v-4v-1317zM1057 1864
q17 -15 26 -35t9 -43q0 -21 -8 -39.5t-21.5 -32t-32 -21.5t-39.5 -8q-23 0 -42 9t-34 24l-105 99q-16 16 -37 17.5t-38 -11.5l-114 -106q-30 -30 -72 -30q-21 0 -39.5 7.5t-32 21t-21.5 31.5t-8 39q0 26 12 48.5t32 36.5l235 213q17 18 42.5 18t43.5 -18l-1 1l245 -221v0z
" />
    <glyph glyph-name="hcircumflex" unicode="&#x125;" horiz-adv-x="1123" 
d="M978 125q1 -4 0.5 -7.5t-0.5 -6.5q0 -24 -8.5 -44.5t-23.5 -35.5t-35.5 -24t-44.5 -9q-23 0 -43.5 9t-36 24t-24.5 35.5t-9 44.5v1v5v458q0 117 -41 169q-42 54 -134 54q-118 0 -166 -74q-47 -72 -47 -254v-346q0 -4 0.5 -7t0.5 -6q0 -24 -9 -44.5t-24.5 -35.5t-36 -24
t-43.5 -9t-43.5 8.5t-36 23.5t-24.5 35t-9 43v1v1v1v1v1460v5q0 23 9 43.5t24 36t35.5 24.5t43.5 9q24 0 44.5 -9t35.5 -24t24 -35.5t9 -44.5v-684q120 108 265 108q165 0 264 -107q84 -93 84 -298v-471v0zM546 1864q17 -15 26 -35t9 -43q0 -21 -8 -39.5t-21.5 -32
t-32 -21.5t-39.5 -8q-23 0 -42 9t-34 24l-105 99q-16 16 -37 17.5t-38 -11.5l-114 -106q-30 -30 -72 -30q-21 0 -39.5 7.5t-32 21t-21.5 31.5t-8 39q0 26 12 48.5t32 36.5l235 213q17 18 42.5 18t43.5 -18l-1 1l245 -221v0z" />
    <glyph glyph-name="Itilde" unicode="&#x128;" horiz-adv-x="827" 
d="M136 1682l-131 111l29 41q28 40 54 67.5t53 45t56 25t63 7.5q78 0 181 -52q104 -53 134 -53q56 0 124 108l127 -106q-96 -192 -260 -192q-56 0 -183 56q-91 46 -136 46q-55 0 -111 -104zM519 117q0 -24 -9 -45.5t-25 -37.5t-37 -25t-45 -9t-45 10.5t-37 28t-25 39.5
t-10 46v1302v3q0 24 9 45.5t24.5 37.5t37 25t45.5 9t45.5 -9.5t37.5 -25.5t25 -37.5t9 -45.5v-2v-1302v-7z" />
    <glyph glyph-name="itilde" unicode="&#x129;" horiz-adv-x="813" 
d="M520 974v-974h-225v974h225zM128 1121l-131 111l29 41q28 40 54 67.5t53 45t56 25t63 7.5q78 0 181 -52q104 -53 134 -53q56 0 124 108l127 -106q-96 -192 -260 -192q-56 0 -183 56q-91 46 -136 46q-55 0 -111 -104z" />
    <glyph glyph-name="Ibreve" unicode="&#x12c;" horiz-adv-x="721" 
d="M1 2018h185q22 -157 174 -157q151 0 173 157h185q-15 -166 -106.5 -250.5t-256.5 -84.5q-153 0 -248 89q-94 88 -106 246zM480 118q0 -24 -9 -45.5t-25 -37.5t-37 -25t-45 -9t-45 10.5t-37 28t-25 39.5t-10 46v1302v3q0 24 9 45.5t24.5 37.5t37 25t45.5 9t45.5 -9.5
t37.5 -25.5t25 -37.5t9 -45.5v-2v-1302v-7z" />
    <glyph glyph-name="ibreve" unicode="&#x12d;" horiz-adv-x="716" 
d="M458 981v-974h-225v974h225zM1 1457h185q22 -157 174 -157q151 0 173 157h185q-15 -166 -106.5 -250.5t-256.5 -84.5q-153 0 -248 89q-94 88 -106 246z" />
    <glyph glyph-name="kgreenlandic" unicode="&#x138;" horiz-adv-x="1020" 
d="M367 973v-314l317 315h302l-423 -409l454 -565h-292l-322 411l-36 -36v-375h-225v973h225z" />
    <glyph glyph-name="Jcircumflex" unicode="&#x134;" horiz-adv-x="931" 
d="M423 1431v1q1 23 10.5 43.5t25.5 36t36.5 24.5t43.5 9q24 0 45 -9t37 -24.5t25.5 -36t10.5 -43.5h1v-4v-1v-1l1 -882q0 -176 -26 -266q-23 -98 -85 -169q-116 -137 -311 -137q-64 0 -125 15q-13 3 -23 7l-13 5q-29 13 -47.5 40t-18.5 62q0 23 9 43t24 35t35.5 24t43.5 9
q25 0 43 -9q2 0 2.5 -0.5t2.5 -0.5q15 -5 33.5 -8t33.5 -3q105 0 145 79q42 79 42 276l-1 877v8zM865 1864q17 -15 26 -35t9 -43q0 -21 -8 -39.5t-21.5 -32t-32 -21.5t-39.5 -8q-23 0 -42 9t-34 24l-105 99q-16 16 -37 17.5t-38 -11.5l-114 -106q-30 -30 -72 -30
q-21 0 -39.5 7.5t-32 21t-21.5 31.5t-8 39q0 26 12 48.5t32 36.5l235 213q17 18 42.5 18t43.5 -18l-1 1l245 -221v0z" />
    <glyph glyph-name="Scircumflex" unicode="&#x15c;" horiz-adv-x="1194" 
d="M1016 732q86 -107 86 -268q0 -212 -141 -352q-143 -140 -354 -140q-202 0 -332 120q-88 80 -131 207h1q-7 17 -7 38q0 24 9.5 45.5t25.5 37.5t37.5 25.5t45.5 9.5q42 0 73 -25t41 -63q15 -51 35 -76q72 -100 210 -100q109 0 181 73t72 185q0 44 -12 82q-6 19 -16 36
t-23 33q-14 16 -31 30.5t-38 28.5t-46 27t-54 25l-148 62q-316 133 -316 392q0 173 132 290q133 118 331 118q195 0 328 -139q19 -16 30 -37.5t11 -47.5q0 -23 -8.5 -43t-23.5 -35t-35 -23.5t-42 -8.5q-26 0 -48.5 11t-37.5 31q-12 14 -23.5 24t-23.5 17q-50 32 -128 32
q-99 0 -161 -55q-64 -54 -64 -136q0 -113 167 -182l154 -63q188 -77 274 -186zM916 1864q17 -15 26 -35t9 -43q0 -21 -8 -39.5t-21.5 -32t-32 -21.5t-39.5 -8q-23 0 -42 9t-34 24l-105 99q-16 16 -37 17.5t-38 -11.5l-114 -106q-30 -30 -72 -30q-21 0 -39.5 7.5t-32 21
t-21.5 31.5t-8 39q0 26 12 48.5t32 36.5l235 213q17 18 42.5 18t43.5 -18l-1 1l245 -221v0z" />
    <glyph glyph-name="scircumflex" unicode="&#x15d;" horiz-adv-x="831" 
d="M708 473q63 -65 63 -173q0 -141 -106 -236q-101 -90 -244 -90q-172 0 -277 123h1q-24 27 -24 68q0 22 8.5 42t22.5 34t33.5 22.5t42.5 8.5q26 0 48.5 -11.5t37.5 -31.5v1q9 -13 15 -17q20 -18 43.5 -28t52.5 -10q114 0 114 104q0 60 -87 111q-17 8 -34 16.5t-34 17.5
q-17 8 -33.5 16t-34.5 16q-100 49 -137 97q-51 60 -51 156q0 127 86 210q89 82 215 82q56 0 104 -17.5t86 -52.5q18 -14 29 -35.5t11 -46.5q0 -23 -8.5 -42.5t-22.5 -33.5t-33.5 -22.5t-41.5 -8.5t-41 7.5t-33 21.5q-30 27 -67 27q-29 0 -51 -20q-21 -20 -21 -52
q0 -58 128 -111q90 -38 149 -74t91 -68zM719 1308q17 -15 26 -35t9 -43q0 -21 -8 -39.5t-21.5 -32t-32 -21.5t-39.5 -8q-23 0 -42 9t-34 24l-105 99q-16 16 -37 17.5t-38 -11.5l-114 -106q-30 -30 -72 -30q-21 0 -39.5 7.5t-32 21t-21.5 31.5t-8 39q0 26 12 48.5t32 36.5
l235 213q17 18 42.5 18t43.5 -18l-1 1l245 -221v0z" />
    <glyph glyph-name="dotlessj" horiz-adv-x="679" 
d="M453 845v-1199h-226v1199h226z" />
    <glyph glyph-name="jcircumflex" unicode="&#x135;" horiz-adv-x="702" 
d="M642 1314q17 -15 26 -35t9 -43q0 -21 -8 -39.5t-21.5 -32t-32 -21.5t-39.5 -8q-23 0 -42 9t-34 24l-105 99q-16 16 -37 17.5t-38 -11.5l-114 -106q-30 -30 -72 -30q-21 0 -39.5 7.5t-32 21t-21.5 31.5t-8 39q0 26 12 48.5t32 36.5l235 213q17 18 42.5 18t43.5 -18l-1 1
l245 -221v0zM453 845v-1199h-226v1199h226z" />
    <glyph glyph-name="IJ" unicode="&#x132;" horiz-adv-x="1480" 
d="M417 118q0 -24 -9 -45.5t-25 -37.5t-37 -25t-45 -9t-45 10.5t-37 28t-25 39.5t-10 46v1302v3q0 24 9 45.5t24.5 37.5t37 25t45.5 9t45.5 -9.5t37.5 -25.5t25 -37.5t9 -45.5v-2v-1302v-7zM1069 1438v1q1 23 10.5 43.5t25.5 36t36.5 24.5t43.5 9q24 0 45 -9t37 -24.5
t25.5 -36t10.5 -43.5h1v-4v-1v-1l1 -882q0 -176 -26 -266q-23 -98 -85 -169q-116 -137 -311 -137q-64 0 -125 15q-13 3 -23 7l-13 5q-29 13 -47.5 40t-18.5 62q0 23 9 43t24 35t35.5 24t43.5 9q25 0 43 -9q2 0 2.5 -0.5t2.5 -0.5q15 -5 33.5 -8t33.5 -3q105 0 145 79
q42 79 42 276l-1 877v8z" />
    <glyph glyph-name="ij" unicode="&#x133;" horiz-adv-x="1056" 
d="M256 1231q-62 0 -104 43q-44 44 -44 105q0 58 44 102q43 43 103 43q59 0 104 -43q43 -42 43 -103t-43 -104q-42 -43 -103 -43zM256 975q24 0 44.5 -9t35.5 -24.5t24 -36t9 -43.5v-3v-744q-1 -1 -1 -3q0 -23 -9 -43t-24 -35t-35.5 -24t-43.5 -9t-43.5 9t-35.5 24t-24 35.5
t-9 43.5v12v734v3q0 23 9 43.5t24 36t35.5 24.5t43.5 9zM595 1379q0 59 43 102t103 43q61 0 104 -43q43 -42 43 -103t-43 -104q-42 -43 -103 -43t-104 43t-43 105zM742 973q-23 0 -43.5 -9t-35.5 -24t-24 -35.5t-9 -43.5v-9v-1273h1q0 -23 8.5 -43t23.5 -35t35.5 -24
t43.5 -9t43.5 8.5t36 23.5t24.5 35t9 43v1v1281q0 23 -9 43.5t-24 36t-35.5 24.5t-44.5 9z" />
    <glyph glyph-name="Ldotaccent" unicode="&#x13f;" horiz-adv-x="908" 
d="M182 1428q0 24 9 45t25 37t37 25t45 9t45.5 -9.5t37 -25t24.5 -37t9 -45.5v-1v-1154q2 -22 17.5 -37.5t38.5 -16.5h294q22 -1 41.5 -9.5t33.5 -23t22.5 -34t8.5 -41.5q0 -23 -8.5 -42.5t-22.5 -34.5t-33.5 -23.5t-41.5 -9.5h-525q-23 0 -39.5 16.5t-17.5 39.5v1372z
M609 1292q0 60 44 104q47 44 107 44q62 0 106 -44q45 -44 45 -106q0 -63 -45 -106q-44 -44 -106 -44q-63 0 -107 44t-44 108z" />
    <glyph glyph-name="ldotaccent" unicode="&#x140;" horiz-adv-x="959" 
d="M366 111q0 -24 -9 -44.5t-24 -35.5t-35.5 -23.5t-44.5 -8.5q-23 0 -43.5 9t-35.5 24t-24 35.5t-9 44.5v9v1455v2q0 23 9 44t24 36.5t35.5 24.5t43.5 9t43.5 -9t36 -24.5t24.5 -36t9 -43.5v-1455v-13zM532 1281q0 60 44 104q47 44 107 44q62 0 106 -44q45 -44 45 -106
q0 -63 -45 -106q-44 -44 -106 -44q-63 0 -107 44t-44 108z" />
    <glyph glyph-name="Obreve" unicode="&#x14e;" horiz-adv-x="1830" 
d="M108 779q0 326 239 560q238 234 572 234q330 0 566 -236q237 -236 237 -567q0 -333 -238 -565q-239 -233 -577 -233q-299 0 -537 207q-262 229 -262 600zM343 776q0 -256 172 -421q171 -165 395 -165q243 0 410 168q167 170 167 414q0 247 -165 414q-164 168 -406 168
q-241 0 -407 -168q-166 -166 -166 -410zM555 2018h185q22 -157 174 -157q151 0 173 157h185q-15 -166 -106.5 -250.5t-256.5 -84.5q-153 0 -248 89q-94 88 -106 246z" />
    <glyph glyph-name="obreve" unicode="&#x14f;" horiz-adv-x="1231" 
d="M96 494q0 211 151 359t368 148q218 0 370 -149q150 -149 150 -366q0 -219 -151 -367q-152 -147 -373 -147q-219 0 -367 150q-148 148 -148 372zM326 490q0 -146 78 -231q80 -86 211 -86q132 0 211 85t79 227t-79 227q-80 86 -211 86q-129 0 -209 -86t-80 -222zM249 1462
h185q22 -157 174 -157q151 0 173 157h185q-15 -166 -106.5 -250.5t-256.5 -84.5q-153 0 -248 89q-94 88 -106 246z" />
    <glyph glyph-name="Utilde" unicode="&#x168;" horiz-adv-x="1513" 
d="M1338 1433v-886q0 -244 -154 -406q-170 -176 -423 -176t-423 176q-153 160 -153 406v886q0 24 9.5 45t25.5 37t37 25t45 9t45.5 -9t37.5 -25t25.5 -37t9.5 -45v-821q0 -199 65 -293q99 -134 276 -134q179 0 275 134q67 89 67 293v821q0 24 9 45t25 37t37 25t45 9
q25 0 46.5 -9t37.5 -25t25 -37t9 -45h1zM494 1682l-131 111l29 41q28 40 54 67.5t53 45t56 25t63 7.5q78 0 181 -52q104 -53 134 -53q56 0 124 108l127 -106q-96 -192 -260 -192q-56 0 -183 56q-91 46 -136 46q-55 0 -111 -104z" />
    <glyph glyph-name="utilde" unicode="&#x169;" horiz-adv-x="1116" 
d="M973 854v-443q0 -115 -29 -202q-28 -76 -97 -137q-114 -99 -290 -99q-175 0 -289 99q-35 31 -60 65t-39 72q-28 68 -28 202v451v1q0 23 9 43.5t24 35.5t35.5 24t44.5 9q23 0 43.5 -9t35.5 -24t24 -35.5t9 -43.5v-1v-445q0 -243 191 -243t191 243v445q0 23 9 43.5t24 36
t35.5 24.5t43.5 9q24 0 44.5 -9t35.5 -24.5t24 -36t9 -43.5v-8zM300 1140l-131 111l29 41q28 40 54 67.5t53 45t56 25t63 7.5q78 0 181 -52q104 -53 134 -53q56 0 124 108l127 -106q-96 -192 -260 -192q-56 0 -183 56q-91 46 -136 46q-55 0 -111 -104z" />
    <glyph glyph-name="Ubreve" unicode="&#x16c;" horiz-adv-x="1513" 
d="M1338 1433v-886q0 -244 -154 -406q-170 -176 -423 -176t-423 176q-153 160 -153 406v886q0 24 9.5 45t25.5 37t37 25t45 9t45.5 -9t37.5 -25t25.5 -37t9.5 -45v-821q0 -199 65 -293q99 -134 276 -134q179 0 275 134q67 89 67 293v821q0 24 9 45t25 37t37 25t45 9
q25 0 46.5 -9t37.5 -25t25 -37t9 -45h1zM402 2025h185q22 -157 174 -157q151 0 173 157h185q-15 -166 -106.5 -250.5t-256.5 -84.5q-153 0 -248 89q-94 88 -106 246z" />
    <glyph glyph-name="ubreve" unicode="&#x16d;" horiz-adv-x="1116" 
d="M973 854v-443q0 -115 -29 -202q-28 -76 -97 -137q-114 -99 -290 -99q-175 0 -289 99q-35 31 -60 65t-39 72q-28 68 -28 202v451v1q0 23 9 43.5t24 35.5t35.5 24t44.5 9q23 0 43.5 -9t35.5 -24t24 -35.5t9 -43.5v-1v-445q0 -243 191 -243t191 243v445q0 23 9 43.5t24 36
t35.5 24.5t43.5 9q24 0 44.5 -9t35.5 -24.5t24 -36t9 -43.5v-8zM221 1462h185q22 -157 174 -157q151 0 173 157h185q-15 -166 -106.5 -250.5t-256.5 -84.5q-153 0 -248 89q-94 88 -106 246z" />
    <glyph glyph-name="Wcircumflex" unicode="&#x174;" horiz-adv-x="2172" 
d="M2109 1391q-1 -3 -2.5 -6t-2.5 -6l-537 -1278q-13 -28 -26 -50q-11 -19 -26 -34.5t-29 -15.5q-13 0 -25 12t-22 28.5t-17 32t-10 23.5l-327 901l-340 -900q-3 -6 -10 -22t-17 -32.5t-22.5 -29.5t-26.5 -13q-12 0 -24 10.5t-22 25t-17.5 30t-11.5 24.5l-512 1288
q-12 22 -12 51q0 24 9 45.5t25 37.5t37.5 25t45.5 9q38 0 68 -22t42 -56l359 -921q1 -1 4 -9.5t10 -8.5q5 0 8 6t5 11l353 934q6 17 14 31q7 12 16 22.5t20 12.5h8q9 -2 16.5 -10.5t13.5 -18.5t10.5 -20t6.5 -14l339 -936q1 -1 4.5 -9.5t8.5 -8.5q6 0 9.5 6.5t5.5 10.5
l377 910q15 38 43.5 64t70.5 26q24 0 45.5 -9t37 -25t25 -37.5t9.5 -45.5q0 -20 -6 -36zM1376 1871q17 -15 26 -35t9 -43q0 -21 -8 -39.5t-21.5 -32t-32 -21.5t-39.5 -8q-23 0 -42 9t-34 24l-105 99q-16 16 -37 17.5t-38 -11.5l-114 -106q-30 -30 -72 -30q-21 0 -39.5 7.5
t-32 21t-21.5 31.5t-8 39q0 26 12 48.5t32 36.5l235 213q17 18 42.5 18t43.5 -18l-1 1l245 -221v0z" />
    <glyph glyph-name="wcircumflex" unicode="&#x175;" horiz-adv-x="1585" 
d="M1398 978q23 0 43.5 -9t36 -24.5t24.5 -36t9 -44.5q0 -22 -10 -47l-374 -769v1q-11 -22 -22 -40q-9 -15 -19 -27t-18 -12q-6 0 -13.5 8t-14.5 18.5t-13.5 22t-9.5 19.5l-192 441q-6 12 -14.5 23.5t-17.5 11.5q-10 0 -19 -13t-15 -25l-187 -428v1q-9 -22 -19 -40
q-8 -15 -18.5 -27t-18.5 -12q-6 0 -12.5 6t-13.5 15t-13 19.5t-10 19.5l-383 785q-11 22 -11 49q0 24 9 44.5t24.5 36t36 24.5t44.5 9q34 0 61.5 -18.5t41.5 -47.5l206 -449q3 -8 7 -14q7 -13 13 -13q5 0 12 13q4 6 7 14l200 469q2 4 6.5 12t12 15.5t17 13t21.5 5.5
q14 0 25 -7.5t19 -16.5q9 -11 15 -24l203 -470q2 -5 7.5 -14.5t10.5 -9.5q6 0 13 13q4 6 7 14l202 444q12 32 40.5 51.5t63.5 19.5zM1084 1315q17 -15 26 -35t9 -43q0 -21 -8 -39.5t-21.5 -32t-32 -21.5t-39.5 -8q-23 0 -42 9t-34 24l-105 99q-16 16 -37 17.5t-38 -11.5
l-114 -106q-30 -30 -72 -30q-21 0 -39.5 7.5t-32 21t-21.5 31.5t-8 39q0 26 12 48.5t32 36.5l235 213q17 18 42.5 18t43.5 -18l-1 1l245 -221v0z" />
    <glyph glyph-name="Ycircumflex" unicode="&#x176;" horiz-adv-x="1229" 
d="M740 685q-8 -14 -9 -24q-1 -6 -1 -11v-533q0 -24 -9.5 -45t-25.5 -37t-37 -25t-45 -9t-45 9.5t-37 25t-25 36.5t-9 45v2v532q-1 3 -2.5 13.5t-7.5 21.5v1l-393 682q-18 27 -18 63q0 24 9 45.5t25 37t37 25t45 9.5q35 0 63.5 -19t42.5 -49l1 1l303 -531l3.5 -3.5t5.5 -4
t7 0t9 8.5l305 530q14 29 42 47.5t63 18.5q24 0 45 -9t37 -25t25 -37t9 -45q0 -31 -13 -54zM901 1865q17 -15 26 -35t9 -43q0 -21 -8 -39.5t-21.5 -32t-32 -21.5t-39.5 -8q-23 0 -42 9t-34 24l-105 99q-16 16 -37 17.5t-38 -11.5l-114 -106q-30 -30 -72 -30q-21 0 -39.5 7.5
t-32 21t-21.5 31.5t-8 39q0 26 12 48.5t32 36.5l235 213q17 18 42.5 18t43.5 -18l-1 1l245 -221v0z" />
    <glyph glyph-name="ycircumflex" unicode="&#x177;" horiz-adv-x="1113" 
d="M1027 859q0 -18 -5.5 -34.5t-14.5 -30.5l-645 -1250q-12 -32 -40.5 -53.5t-66.5 -21.5q-24 0 -44.5 9t-36 24.5t-24.5 36t-9 44.5q0 39 22 67l268 503q4 6 7 14t3 12q0 3 -2.5 9t-4.5 11q-4 6 -7 14l-320 580q-10 14 -15.5 30.5t-5.5 35.5q0 24 9 44.5t24.5 36t36 24.5
t44.5 9q35 0 62.5 -19t41.5 -49v1l241 -453q3 -5 9 -12t13 -7q8 0 15 11q4 4 6 11l220 443q13 32 41 52.5t65 20.5q23 0 43.5 -9t36 -24.5t24.5 -36t9 -43.5zM865 1308q17 -15 26 -35t9 -43q0 -21 -8 -39.5t-21.5 -32t-32 -21.5t-39.5 -8q-23 0 -42 9t-34 24l-105 99
q-16 16 -37 17.5t-38 -11.5l-114 -106q-30 -30 -72 -30q-21 0 -39.5 7.5t-32 21t-21.5 31.5t-8 39q0 26 12 48.5t32 36.5l235 213q17 18 42.5 18t43.5 -18l-1 1l245 -221v0z" />
    <glyph glyph-name="quoterightn" unicode="&#x149;" horiz-adv-x="1592" 
d="M1374 114q0 -2 -0.5 -4.5t-0.5 -4.5q-1 -23 -10.5 -42.5t-25 -34t-35.5 -23t-43 -8.5q-24 0 -44.5 9t-36 24.5t-24.5 36t-9 44.5q0 9 1 14v416q0 145 -40 200q-41 57 -143 57q-114 0 -160 -75q-47 -73 -47 -256v-328q2 -7 2 -12.5v-13.5q0 -24 -9 -45.5t-24 -37.5
t-36 -25.5t-45 -9.5t-45.5 9t-37.5 25t-25 37t-9 45q0 11 1 16v732q0 24 9 45t25 37t37 25t45 9q20 0 38.5 -7t33.5 -19t25.5 -29t14.5 -36q119 118 269 118q171 0 266 -108q83 -90 83 -298v-482zM353 1625l200 -78l-285 -572l-152 63z" />
    <glyph glyph-name="Tbar" unicode="&#x166;" horiz-adv-x="988" 
d="M379 1272q-1 23 -17 38.5t-39 16.5h-191v1q-23 0 -43 8.5t-34.5 23.5t-23 34.5t-8.5 42.5t8.5 43t23.5 35t35 23.5t43 8.5h722q23 0 43 -9t35 -24t23.5 -35t8.5 -42q0 -23 -8.5 -42.5t-23.5 -34.5t-35 -24t-42 -9h-1h-189q-22 -1 -37.5 -16.5t-16.5 -38.5v-1155
q0 -24 -9 -45t-25 -37t-37.5 -25t-45.5 -9t-45.5 9t-37 24.5t-24.5 37t-9 45.5v1155zM610 981q20 0 37.5 -7.5t31 -20.5t21 -30.5t7.5 -37.5t-7.5 -37.5t-20.5 -31t-31 -21t-38 -7.5q-2 0 -5 0.5t-5 0.5h-225q-3 0 -5.5 -0.5t-5.5 -0.5q-40 0 -68 28t-28 68q0 41 28 69
t68 28h1v1h241q1 0 1.5 -0.5t2.5 -0.5z" />
    <glyph glyph-name="tbar" unicode="&#x167;" horiz-adv-x="560" 
d="M446 974q22 0 41 -8.5t33 -22.5t22.5 -33t8.5 -41t-8.5 -41t-22.5 -33t-33 -22t-41 -8h-4l-12 -1q-23 -1 -38.5 -17.5t-15.5 -39.5v-594v-2q0 -23 -8.5 -43.5t-23.5 -35.5t-35.5 -23.5t-44.5 -8.5q-23 0 -43.5 8.5t-36 23.5t-24.5 35.5t-9 43.5v4v592q0 17 -9.5 30.5
t-23.5 21.5q-14 2 -26 6q-2 1 -3.5 1t-3.5 2q-29 13 -47 40t-18 61t18 60.5t47 40.5q2 2 4.5 2t4.5 1q10 4 24 6q14 7 23.5 20.5t9.5 30.5v187q0 23 9 43.5t24 35.5t35.5 24t43.5 9t43.5 -9t36 -24t24.5 -35.5t9 -43.5v-187q0 -23 16 -39.5t39 -16.5h13h2v0zM387 587
q20 0 37.5 -7.5t31 -20.5t21 -30.5t7.5 -37.5t-7.5 -37.5t-20.5 -31t-31 -21t-38 -7.5q-2 0 -5 0.5t-5 0.5h-225q-3 0 -5.5 -0.5t-5.5 -0.5q-40 0 -68 28t-28 68q0 41 28 69t68 28h1v1h241q1 0 1.5 -0.5t2.5 -0.5z" />
    <glyph glyph-name="Hbar" unicode="&#x126;" horiz-adv-x="1738" 
d="M1426 114v-1q-1 -24 -10.5 -44.5t-25 -35.5t-36.5 -23.5t-45 -8.5t-45.5 9t-37 25t-24.5 37t-9 45v14v542q-2 21 -16.5 36t-35.5 17h-563q-22 -2 -37.5 -17t-15.5 -38v-557v-1q-1 -24 -10.5 -44.5t-25.5 -35.5t-37 -23.5t-45 -8.5t-45.5 9.5t-37 25t-24.5 37t-9 45.5v14
v1290v12q0 24 9 45.5t25 37t37 25t45 9.5t45.5 -9.5t37.5 -25t25.5 -37t9.5 -45.5v-3v-430q0 -23 15.5 -38t37.5 -17h559q23 1 38.5 16t17.5 38v428q0 2 -0.5 3.5t-0.5 3.5q0 24 9.5 45t25 37t37 25t45.5 9t45.5 -9t37.5 -25t25 -37t9 -45v-4v-1317zM0 1337h1737v-210h-1737
v210z" />
    <glyph glyph-name="hbar" unicode="&#x127;" horiz-adv-x="1123" 
d="M978 125q1 -4 0.5 -7.5t-0.5 -6.5q0 -24 -8.5 -44.5t-23.5 -35.5t-35.5 -24t-44.5 -9q-23 0 -43.5 9t-36 24t-24.5 35.5t-9 44.5v1v5v458q0 117 -41 169q-42 54 -134 54q-118 0 -166 -74q-47 -72 -47 -254v-346q0 -4 0.5 -7t0.5 -6q0 -24 -9 -44.5t-24.5 -35.5t-36 -24
t-43.5 -9t-43.5 8.5t-36 23.5t-24.5 35t-9 43v1v1v1v1v1460v5q0 23 9 43.5t24 36t35.5 24.5t43.5 9q24 0 44.5 -9t35.5 -24t24 -35.5t9 -44.5v-684q120 108 265 108q165 0 264 -107q84 -93 84 -298v-471v0zM380 1334q20 0 37.5 -7.5t31 -20.5t21 -30.5t7.5 -37.5t-7.5 -37.5
t-20.5 -31t-31 -21t-38 -7.5q-2 0 -5 0.5t-5 0.5h-225q-3 0 -5.5 -0.5t-5.5 -0.5q-40 0 -68 28t-28 68q0 41 28 69t68 28h1v1h241q1 0 1.5 -0.5t2.5 -0.5z" />
    </font>
</defs>
</svg>
