<svg xmlns="http://www.w3.org/2000/svg" viewBox="0 0 1107.7 417.6"><path d="M.85 1.71C0 2.56 11.92 17.89 27.54 35.79c88.03 99.39 81.22 89.73 74.12 100.81-4.26 6.53-4.55 11.93-1.14 15.34 2.84 2.84 4.82 7.1 4.54 9.66-.57 2.27-24.71 13.35-53.1 24.71C23.57 197.66-.01 207.6.28 208.45c0 .57 23.29 10.8 51.68 22.15 28.4 11.36 52.25 22.72 52.82 24.99.86 2.55-1.41 7.1-4.26 9.94-3.41 3.41-3.12 8.8 1.42 15.62 5.11 7.95 5.11 11.93-.28 17.32C86.61 313.52.57 412.63 0 414.9c0 4.54 209.58 2.84 214.12-1.7 2.56-2.56 11.08-19.03 19.31-36.35 8.24-17.9 16.76-33.8 18.75-35.79 2.84-2.84 11.93 3.42 33.79 22.44 37.2 32.66 60.77 46.57 84.62 51.12 10.22 1.7 137.44 2.84 283.12 2.55 218.38-.86 269.49-2.56 291.36-9.09 89.45-28.11 149.37-107.9 149.37-199.35S1034.8 37.77 945.06 9.37C923.2 2.84 871.8.86 648.03.28 438.17 0 372.58 1.42 356.11 7.1c-21.59 7.39-57.37 32.38-84.63 59.07-17.89 17.89-17.89 17.89-38.06-25.55-8.23-17.32-16.75-33.79-19.02-36.06C211.84 2 163.28.01 106.49.01 49.13 0 1.7.86.85 1.71z"/></svg>