<svg xmlns="http://www.w3.org/2000/svg" viewBox="0 0 184.68 56.13"><path fill="#123456" class="cls-1" d="M0 50h19v-3.7a1.11 1.11 0 001.23-.3 2.83 2.83 0 00.65-1.17 5.8 5.8 0 00.25-1.42v-.89h5.55L28 50h.92v-3.43h8.94V44.1H31v-1.54c.24 0 .66 0 1.23-.07s1.19-.08 1.85-.15 1.28-.13 1.85-.22 1-.14 1.23-.18a2.91 2.91 0 001.24-.52c.37-.27.74-.55 1.11-.86a7 7 0 011.17-.81 2.87 2.87 0 011.42-.34h.34a1.28 1.28 0 00.28 0c1.48.37 2.56.65 3.23.83a2.15 2.15 0 011.36.84 2.75 2.75 0 01.22 1.7c-.08.76-.13 1.9-.13 3.42h8v-6.73l1.55-.61v-3.7h4.31l1.24 3.7.61-4.94a1.54 1.54 0 01-.34-.28 1.49 1.49 0 01-.27-.33 2.91 2.91 0 01-.07-.31 2.44 2.44 0 01.07-.31 2.76 2.76 0 00.27-.46c.15-.27.33-.56.53-.87a7 7 0 01.64-.83 1 1 0 01.72-.37 2.35 2.35 0 012 1.05 7.88 7.88 0 011.14 2.5 18.42 18.42 0 01.56 2.89c.11 1 .19 1.73.28 2.26h2.15V29.6a1.31 1.31 0 01.47-1 2.89 2.89 0 011.1-.6 7.55 7.55 0 011.29-.25c.45 0 .81-.06 1-.06a7.18 7.18 0 011.88.22c.52.14 1 .71 1.33 1.69a2.06 2.06 0 00.55-.89 5.4 5.4 0 00.06-.89 11.11 11.11 0 00-.31-2.82 10.73 10.73 0 01-.38-2.8h.74L81 26.52l.37.7a2.77 2.77 0 01.25.53 2.28 2.28 0 00.8 1.33 1.34 1.34 0 01.58 1.15 1 1 0 01-.84 1 11.47 11.47 0 01-1.82.37 14.27 14.27 0 00-1.75.31c-.51.12-.73.39-.65.8l1.23 7.4a1.34 1.34 0 00.34-.28 1.19 1.19 0 00.28-.34 1.39 1.39 0 00.16-.43c.06-.25.12-.51.18-.79s.11-.56.15-.81a1 1 0 01.13-.43 3.16 3.16 0 01.58-.28c.27-.11.56-.21.87-.31a8.9 8.9 0 01.86-.25 3 3 0 01.58-.09v1.14c0 .55 0 1.15.06 1.79s0 1.24.06 1.82 0 1 0 1.11a7.42 7.42 0 00.13 1.04c.06.41.13.81.19 1.2s.12.74.18 1 .12.43.16.43h1a8.18 8.18 0 00-.08-1.38c-.07-.3-.15-.62-.25-1a6.39 6.39 0 01-.25-1.21 16.9 16.9 0 01-.09-2h9.49v4h-2.42v1.54h5.86V41h2.77V26.52a1.47 1.47 0 011-1.57 6.41 6.41 0 012.07-.34h2.28a.73.73 0 01.8.67 4.32 4.32 0 00.59-1.6A13.85 13.85 0 00107 22q0-.25-.06-1.05a1.63 1.63 0 00-1-.53 2.08 2.08 0 00-1.14-.09V14.8h-1.3v3.7H102s-.08-.17-.15-.49-.12-.72-.19-1.18-.12-.92-.18-1.41a10.58 10.58 0 01-.09-1.24v-2.99c0-.64 0-1.16.06-1.7s0-1 .06-1.44 0-.75 0-1h-4.2a9.06 9.06 0 01.31-1.54 1.2 1.2 0 01.43-.37 1.42 1.42 0 01.49-.25V0h1.85v4.93h.93V.61h2.47v11.11h1.54V7.4h6.47v6.48h2.2v4.31h2.78v4.32h-5.55v1.54h3.7v4.63h-3.58a12.42 12.42 0 00-.12 2.16 7.67 7.67 0 00.4 2 1 1 0 00.49.53l.65.18c.25.06.56.39.92 1h5.43a2.17 2.17 0 00-.09-.46c-.06-.23-.13-.49-.22-.77s-.14-.55-.18-.78a.81.81 0 010-.45c.57-.71 1-1.27 1.42-1.7l1-1.24c.33-.39.53-.65.62-.77a2.47 2.47 0 00.21-.31c.1-.17.23-.36.37-.58s.27-.43.4-.62a2.22 2.22 0 01.25-.34l.3-.06h.31l.87 2.13c.41 1 .87 2 1.39 3a15.21 15.21 0 001.63 2.59c.58.72 1.13 1 1.67.9v6.78a.83.83 0 00-.56.43 1.62 1.62 0 00-.09.71 4.76 4.76 0 00.12.77 2.25 2.25 0 01.09.62 8.34 8.34 0 002.23-.18c.28-.13.42-.15.42-.07v.62a6.06 6.06 0 00.87 2h4.53c.59 0 1.2-.06 1.8-.12l1.88-.22 2.27-.31a24.89 24.89 0 01-.12-3.33 5.18 5.18 0 01.59-2.35 3.16 3.16 0 011.66-1.36 9.31 9.31 0 013.12-.43 3.1 3.1 0 012.12.78 6.45 6.45 0 001.89 1.14 10.24 10.24 0 001.57.37l2.29.37 2.22.31c.67.08 1.12.14 1.32.18v1.54h-6.79v1.79l29-4h3.14v.62c0 .04-.13.48-.27 1a4.15 4.15 0 01-.35.89c-.4 1-.92 2.12-1.53 3.51s-1.23 2.75-1.83 4.05l-2.18 4.78H.8s-.09-.1-.15-.28-.12-.41-.19-.67l-.18-.81a2.81 2.81 0 01-.1-.71v-.71c0-.36 0-.72-.06-1.14s0-.8-.06-1.14S0 50.08 0 50zm110.6-30.88v1.23h3.08v-1.23zm0-4.32c-.08 0-.15 0-.21.25a2.26 2.26 0 00-.1.73 2 2 0 00.1.68c.06.21.13.27.21.19s.31-.43.31-.92-.1-.81-.31-.93z"/><path fill="#E74B07" class="cls-2" d="M16.88 25.76a3.29 3.29 0 00.59.09c1.82.18 1.66.15 1.7.33s.06.16.13.16a.18.18 0 01.13.06 3.59 3.59 0 01-.3.75c-.18.38-.33.7-.32.7a5.15 5.15 0 00.73-.26 3.77 3.77 0 01.77-.24.14.14 0 01.05.14c0 .07.05.12.16.15s.17.07.16.17c0 .3.05 2.11.07 2.14a25.33 25.33 0 002.15-2 4.07 4.07 0 00-.15-.55 2.93 2.93 0 01-.14-.54s.15-.07.55-.09a2.65 2.65 0 001.33-.27c.12-.08 1.42-1.26 2.89-2.63A24.52 24.52 0 0030.25 21a2.86 2.86 0 00-3.74-4 24.38 24.38 0 00-3.09 2.69 27.89 27.89 0 00-2.89 2.81 3.92 3.92 0 00-.31 1.39c0 .35 0 .35-.62.1a4.12 4.12 0 00-.53-.19 10.68 10.68 0 00-1.14 1c-.58.49-1.05.94-1.05.96z"/></svg>