<svg xmlns="http://www.w3.org/2000/svg" style="isolation:isolate" width="450" height="450"><defs><clipPath id="a"><path d="M0 0h450v450H0z"/></clipPath></defs><g clip-path="url(#a)"><path d="M195.343 71.771h19.771v108.743h-19.771V71.771zM363.4 318.914H56.943v-39.543c0-29.657-19.772-39.542-19.772-39.542v-19.772h375.658v19.772S363.4 269.486 363.4 292.075v26.839z" fill="#455A64"/><path d="M56.943 289.257v49.429H363.4v-49.429H56.943zm296.571-39.543a9.851 9.851 0 01-9.885 9.886h-19.772a9.852 9.852 0 01-9.886-9.886c0-5.486 4.4-9.885 9.886-9.885h19.772a9.851 9.851 0 019.885 9.885z" fill="#263238"/><path d="M225 140.971h-98.857l-29.657 39.543v19.772H225v-59.315zM195.343 52h19.771l19.772 19.771v19.772h-59.315V71.771L195.343 52zM155.8 101.429h98.857v29.657H155.8v-29.657z" fill="#78909C"/><path d="M343.629 220.057v-19.771l-29.658-39.543H195.343v59.314h148.286z" fill="#78909C"/><path d="M225 180.514h19.771v19.772H225v-19.772zm-88.971-19.771H155.8v19.771h-19.771v-19.771zm128.514 19.771h19.771v19.772h-19.771v-19.772z" fill="#37474F"/><path d="M106.371 200.286h88.972v19.771h-88.972v-19.771z" fill="#546E7A"/><path d="M254.657 140.971h-59.314c-19.772 0-19.772 19.772-19.772 19.772v59.314h19.772v-59.314h59.314v-19.772zm78.542 45.415l71.909-15.985-4.33-19.316-80.588 17.922 13.009 17.379zm-219.018-29.469l-54.549-15.55-5.398 19 47.224 13.514 12.723-16.964z" fill="#546E7A"/><path d="M422.714 318.914c-29.657 0-39.543-19.771-39.543-19.771s-9.885 19.771-39.542 19.771c-29.658 0-39.543-19.771-39.543-19.771s-9.886 19.771-39.543 19.771S225 299.143 225 299.143s-9.886 19.771-39.543 19.771-39.543-19.771-39.543-19.771-9.885 19.771-39.543 19.771c-29.657 0-39.542-19.771-39.542-19.771s-9.886 19.771-39.543 19.771V398h395.428v-79.086z" fill="#90CAF9"/><path d="M422.714 358.457c-29.657 0-39.543-19.771-39.543-19.771s-9.885 19.771-39.542 19.771c-29.658 0-39.543-19.771-39.543-19.771s-9.886 19.771-39.543 19.771S225 338.686 225 338.686s-9.886 19.771-39.543 19.771-39.543-19.771-39.543-19.771-9.885 19.771-39.543 19.771c-29.657 0-39.542-19.771-39.542-19.771s-9.886 19.771-39.543 19.771V398h395.428v-39.543z" fill="#2196F3"/></g></svg>